STARTFONT 2.1
FONT -baekmuk-gulim-bold-r-normal--14-140-75-75-M-140-ksx1001.1997-0
SIZE 14 75 75
FONTBOUNDINGBOX 14 14 0 -3
STARTPROPERTIES 18
FOUNDRY "baekmuk"
FAMILY_NAME "gulim"
WEIGHT_NAME "bold"
SLANT "r"
SETWIDTH_NAME "normal"
ADD_STYLE_NAME ""
PIXEL_SIZE 14
POINT_SIZE 140
RESOLUTION_X 75
RESOLUTION_Y 75
SPACING "M"
AVERAGE_WIDTH 140
CHARSET_REGISTRY "ksx1001.1997"
CHARSET_ENCODING "0"
DEFAULT_CHAR 8481
FONT_ASCENT 11
FONT_DESCENT 3
COPYRIGHT "(c)Hwan Design Inc. and Mizi Research Inc."
ENDPROPERTIES
CHARS 8328
STARTCHAR C020440
ENCODING 8480
SWIDTH 1400 0
DWIDTH 14 0
BBX 0 0 0 0
BITMAP
ENDCHAR
STARTCHAR C020441
ENCODING 8481
SWIDTH 1400 0
DWIDTH 14 0
BBX 0 0 0 0
BITMAP
ENDCHAR
STARTCHAR C020442
ENCODING 8482
SWIDTH 1400 0
DWIDTH 14 0
BBX 3 2 10 8
BITMAP
C0
60
ENDCHAR
STARTCHAR C020443
ENCODING 8483
SWIDTH 1400 0
DWIDTH 14 0
BBX 4 3 9 8
BITMAP
F0
30
F0
ENDCHAR
STARTCHAR C020444
ENCODING 8484
SWIDTH 1400 0
DWIDTH 14 0
BBX 3 2 6 3
BITMAP
E0
E0
ENDCHAR
STARTCHAR C020445
ENCODING 8485
SWIDTH 1400 0
DWIDTH 14 0
BBX 8 2 3 3
BITMAP
E3
03
ENDCHAR
STARTCHAR C020446
ENCODING 8486
SWIDTH 1400 0
DWIDTH 14 0
BBX 9 2 3 3
BITMAP
D980
D980
ENDCHAR
STARTCHAR C020447
ENCODING 8487
SWIDTH 1400 0
DWIDTH 14 0
BBX 6 1 4 8
BITMAP
CC
ENDCHAR
STARTCHAR C020450
ENCODING 8488
SWIDTH 1400 0
DWIDTH 14 0
BBX 5 5 5 2
BITMAP
78
78
D8
F0
F0
ENDCHAR
STARTCHAR C020451
ENCODING 8489
SWIDTH 1400 0
DWIDTH 14 0
BBX 7 1 4 4
BITMAP
FE
ENDCHAR
STARTCHAR C020452
ENCODING 8490
SWIDTH 1400 0
DWIDTH 14 0
BBX 13 1 1 4
BITMAP
FFF8
ENDCHAR
STARTCHAR C020453
ENCODING 8491
SWIDTH 1400 0
DWIDTH 14 0
BBX 5 10 5 0
BITMAP
D8
D8
D8
D8
D8
D8
D8
D8
D8
D8
ENDCHAR
STARTCHAR C020454
ENCODING 8492
SWIDTH 1400 0
DWIDTH 14 0
BBX 12 11 1 -1
BITMAP
C000
6000
3000
1800
0C00
0600
0300
0180
00C0
0060
0030
ENDCHAR
STARTCHAR C020455
ENCODING 8493
SWIDTH 1400 0
DWIDTH 14 0
BBX 8 2 4 3
BITMAP
F3
1E
ENDCHAR
STARTCHAR C020456
ENCODING 8494
SWIDTH 1400 0
DWIDTH 14 0
BBX 2 3 9 7
BITMAP
C0
C0
C0
ENDCHAR
STARTCHAR C020457
ENCODING 8495
SWIDTH 1400 0
DWIDTH 14 0
BBX 3 4 3 7
BITMAP
E0
E0
C0
C0
ENDCHAR
STARTCHAR C020460
ENCODING 8496
SWIDTH 1400 0
DWIDTH 14 0
BBX 5 3 8 7
BITMAP
C0
F0
38
ENDCHAR
STARTCHAR C020461
ENCODING 8497
SWIDTH 1400 0
DWIDTH 14 0
BBX 5 3 2 8
BITMAP
F8
D8
C0
ENDCHAR
STARTCHAR C020462
ENCODING 8498
SWIDTH 1400 0
DWIDTH 14 0
BBX 5 14 10 -3
BITMAP
70
C0
C0
C0
C0
C0
C0
C0
C0
C0
C0
C0
E0
30
ENDCHAR
STARTCHAR C020463
ENCODING 8499
SWIDTH 1400 0
DWIDTH 14 0
BBX 4 14 1 -3
BITMAP
E0
30
30
30
30
30
30
30
30
30
30
30
70
C0
ENDCHAR
STARTCHAR C020464
ENCODING 8500
SWIDTH 1400 0
DWIDTH 14 0
BBX 5 12 8 -2
BITMAP
18
30
30
60
C0
C0
C0
60
60
30
18
18
ENDCHAR
STARTCHAR C020465
ENCODING 8501
SWIDTH 1400 0
DWIDTH 14 0
BBX 6 11 1 -2
BITMAP
60
30
30
18
0C
0C
18
30
60
60
C0
ENDCHAR
STARTCHAR C020466
ENCODING 8502
SWIDTH 1400 0
DWIDTH 14 0
BBX 6 12 7 -2
BITMAP
1C
3C
38
78
F0
F0
F0
70
78
38
3C
18
ENDCHAR
STARTCHAR C020467
ENCODING 8503
SWIDTH 1400 0
DWIDTH 14 0
BBX 6 12 1 -2
BITMAP
F0
70
78
38
3C
1C
1C
3C
38
78
70
F0
ENDCHAR
STARTCHAR C020470
ENCODING 8504
SWIDTH 1400 0
DWIDTH 14 0
BBX 5 1 9 10
BITMAP
F8
ENDCHAR
STARTCHAR C020471
ENCODING 8505
SWIDTH 1400 0
DWIDTH 14 0
BBX 6 7 0 -3
BITMAP
0C
0C
0C
0C
0C
0C
FC
ENDCHAR
STARTCHAR C020472
ENCODING 8506
SWIDTH 1400 0
DWIDTH 14 0
BBX 5 7 9 4
BITMAP
F8
18
70
60
60
60
C0
ENDCHAR
STARTCHAR C020473
ENCODING 8507
SWIDTH 1400 0
DWIDTH 14 0
BBX 15 14 0 -3
BITMAP
0002
0002
0002
0002
0002
0002
0002
1C02
1C02
1C02
1C02
1C02
7C02
7C00
ENDCHAR
STARTCHAR C020474
ENCODING 8508
SWIDTH 1400 0
DWIDTH 14 0
BBX 3 13 9 -2
BITMAP
E0
E0
E0
C0
C0
C0
C0
C0
C0
C0
E0
E0
E0
ENDCHAR
STARTCHAR C020475
ENCODING 8509
SWIDTH 1400 0
DWIDTH 14 0
BBX 3 13 3 -2
BITMAP
E0
E0
60
60
60
60
60
60
60
60
E0
E0
E0
ENDCHAR
STARTCHAR C020476
ENCODING 8510
SWIDTH 1400 0
DWIDTH 14 0
BBX 9 9 3 0
BITMAP
1800
1800
1800
FF00
1800
1800
1800
1800
FF80
ENDCHAR
STARTCHAR C020477
ENCODING 8511
SWIDTH 1400 0
DWIDTH 14 0
BBX 8 8 3 0
BITMAP
C3
66
36
1C
1C
36
63
C0
ENDCHAR
STARTCHAR C020500
ENCODING 8512
SWIDTH 1400 0
DWIDTH 14 0
BBX 10 8 2 0
BITMAP
0C00
0C00
0000
FFC0
0000
0000
0C00
0C00
ENDCHAR
STARTCHAR C020501
ENCODING 8513
SWIDTH 1400 0
DWIDTH 14 0
BBX 10 8 2 1
BITMAP
1800
1800
0C00
FFC0
0C00
FFC0
0600
0600
ENDCHAR
STARTCHAR C020502
ENCODING 8514
SWIDTH 1400 0
DWIDTH 14 0
BBX 9 8 3 0
BITMAP
0380
0E00
7800
E000
3800
0F00
0180
FF80
ENDCHAR
STARTCHAR C020503
ENCODING 8515
SWIDTH 1400 0
DWIDTH 14 0
BBX 9 8 3 0
BITMAP
E000
3800
0E00
0380
1E00
7000
C000
FF80
ENDCHAR
STARTCHAR C020504
ENCODING 8516
SWIDTH 1400 0
DWIDTH 14 0
BBX 11 6 2 1
BITMAP
7BC0
EE60
CC60
CC60
CE60
7BC0
ENDCHAR
STARTCHAR C020505
ENCODING 8517
SWIDTH 1400 0
DWIDTH 14 0
BBX 7 7 4 1
BITMAP
30
30
00
00
00
C6
C6
ENDCHAR
STARTCHAR C020506
ENCODING 8518
SWIDTH 1400 0
DWIDTH 14 0
BBX 4 3 2 8
BITMAP
F0
30
F0
ENDCHAR
STARTCHAR C020507
ENCODING 8519
SWIDTH 1400 0
DWIDTH 14 0
BBX 3 3 2 8
BITMAP
60
C0
C0
ENDCHAR
STARTCHAR C020510
ENCODING 8520
SWIDTH 1400 0
DWIDTH 14 0
BBX 5 3 2 8
BITMAP
78
D8
F0
ENDCHAR
STARTCHAR C020511
ENCODING 8521
SWIDTH 1400 0
DWIDTH 14 0
BBX 9 10 3 0
BITMAP
CE00
7B00
F180
6180
6000
6000
6000
6180
3180
1F00
ENDCHAR
STARTCHAR C020512
ENCODING 8522
SWIDTH 1400 0
DWIDTH 14 0
BBX 8 11 3 0
BITMAP
18
3C
3C
18
1C
3C
36
66
7E
63
C3
ENDCHAR
STARTCHAR C020513
ENCODING 8523
SWIDTH 1400 0
DWIDTH 14 0
BBX 11 11 2 -1
BITMAP
1F60
31C0
30C0
63C0
6600
6600
6CC0
78C0
3180
7F00
C000
ENDCHAR
STARTCHAR C020514
ENCODING 8524
SWIDTH 1400 0
DWIDTH 14 0
BBX 9 10 3 0
BITMAP
0E00
1B00
3300
3000
1800
7E00
1800
7800
F980
FF00
ENDCHAR
STARTCHAR C020515
ENCODING 8525
SWIDTH 1400 0
DWIDTH 14 0
BBX 10 10 2 0
BITMAP
6180
3300
3300
7F80
1E00
FFC0
0C00
0C00
0C00
0C00
ENDCHAR
STARTCHAR C020516
ENCODING 8526
SWIDTH 1400 0
DWIDTH 14 0
BBX 7 12 4 -2
BITMAP
30
70
F8
FC
3C
36
30
30
7C
6C
6C
38
ENDCHAR
STARTCHAR C020517
ENCODING 8527
SWIDTH 1400 0
DWIDTH 14 0
BBX 9 12 3 -2
BITMAP
3C00
6600
6600
6600
3C00
1800
FF80
1800
1800
1800
1800
1800
ENDCHAR
STARTCHAR C020520
ENCODING 8528
SWIDTH 1400 0
DWIDTH 14 0
BBX 9 8 3 0
BITMAP
0300
0600
0C00
1800
3000
6000
C000
FF80
ENDCHAR
STARTCHAR C020521
ENCODING 8529
SWIDTH 1400 0
DWIDTH 14 0
BBX 9 7 3 0
BITMAP
1800
1800
1800
1800
1800
1800
FF80
ENDCHAR
STARTCHAR C020522
ENCODING 8530
SWIDTH 1400 0
DWIDTH 14 0
BBX 9 3 3 7
BITMAP
3E00
E300
0180
ENDCHAR
STARTCHAR C020523
ENCODING 8531
SWIDTH 1400 0
DWIDTH 14 0
BBX 6 10 4 0
BITMAP
38
6C
0C
0C
3C
6C
CC
CC
D8
78
ENDCHAR
STARTCHAR C020524
ENCODING 8532
SWIDTH 1400 0
DWIDTH 14 0
BBX 10 7 2 1
BITMAP
FFC0
60C0
6180
3180
3300
1E00
0E00
ENDCHAR
STARTCHAR C020525
ENCODING 8533
SWIDTH 1400 0
DWIDTH 14 0
BBX 10 6 2 1
BITMAP
FFC0
0000
FFC0
0000
0000
FFC0
ENDCHAR
STARTCHAR C020526
ENCODING 8534
SWIDTH 1400 0
DWIDTH 14 0
BBX 10 8 2 0
BITMAP
3000
3000
FFC0
0000
0000
FFC0
0180
0180
ENDCHAR
STARTCHAR C020527
ENCODING 8535
SWIDTH 1400 0
DWIDTH 14 0
BBX 5 12 5 -2
BITMAP
F0
18
18
C0
70
18
18
F8
30
D8
D8
70
ENDCHAR
STARTCHAR C020530
ENCODING 8536
SWIDTH 1400 0
DWIDTH 14 0
BBX 10 9 2 0
BITMAP
CCC0
6D80
3300
1E00
6EC0
6EC0
1B00
3D80
6CC0
ENDCHAR
STARTCHAR C020531
ENCODING 8537
SWIDTH 1400 0
DWIDTH 14 0
BBX 11 9 2 -1
BITMAP
0C00
1E00
FBE0
60C0
3180
3300
3D80
7F80
7380
ENDCHAR
STARTCHAR C020532
ENCODING 8538
SWIDTH 1400 0
DWIDTH 14 0
BBX 9 9 3 -1
BITMAP
1800
1C00
3C00
FF80
7F00
3E00
7E00
7700
C300
ENDCHAR
STARTCHAR C020533
ENCODING 8539
SWIDTH 1400 0
DWIDTH 14 0
BBX 11 11 2 -1
BITMAP
1F00
7180
60C0
C060
C060
C060
C060
C060
60C0
71C0
1F00
ENDCHAR
STARTCHAR C020534
ENCODING 8540
SWIDTH 1400 0
DWIDTH 14 0
BBX 11 11 2 -1
BITMAP
1F00
7F80
7FC0
FFC0
FFC0
FFE0
FFC0
FFC0
7FC0
7F80
1F00
ENDCHAR
STARTCHAR C020535
ENCODING 8541
SWIDTH 1400 0
DWIDTH 14 0
BBX 11 11 2 -1
BITMAP
1F00
7180
7EC0
F360
E1E0
E1E0
E1E0
F360
7EC0
71C0
1F00
ENDCHAR
STARTCHAR C020536
ENCODING 8542
SWIDTH 1400 0
DWIDTH 14 0
BBX 12 12 1 -2
BITMAP
0600
0F00
1980
30C0
6060
C030
6030
3060
18C0
1D80
0F00
0600
ENDCHAR
STARTCHAR C020537
ENCODING 8543
SWIDTH 1400 0
DWIDTH 14 0
BBX 11 12 2 -2
BITMAP
0C00
1E00
1F00
3F80
7FC0
FFE0
FFE0
7FC0
3F80
1F00
1E00
0C00
ENDCHAR
STARTCHAR C020540
ENCODING 8544
SWIDTH 1400 0
DWIDTH 14 0
BBX 11 10 2 -1
BITMAP
FFE0
C060
C060
C060
C060
C060
C060
C060
C060
FFE0
ENDCHAR
STARTCHAR C020541
ENCODING 8545
SWIDTH 1400 0
DWIDTH 14 0
BBX 11 10 2 -1
BITMAP
FFE0
FFE0
FFE0
FFE0
FFE0
FFE0
FFE0
FFE0
FFE0
FFE0
ENDCHAR
STARTCHAR C020542
ENCODING 8546
SWIDTH 1400 0
DWIDTH 14 0
BBX 11 8 2 0
BITMAP
0E00
1E00
1B00
3300
6180
6180
00C0
FFE0
ENDCHAR
STARTCHAR C020543
ENCODING 8547
SWIDTH 1400 0
DWIDTH 14 0
BBX 11 8 2 0
BITMAP
0E00
1E00
1F00
3F00
3F80
7FC0
7FC0
FFE0
ENDCHAR
STARTCHAR C020544
ENCODING 8548
SWIDTH 1400 0
DWIDTH 14 0
BBX 11 8 2 1
BITMAP
FFE0
C0C0
60C0
6180
3300
1B00
1E00
0E00
ENDCHAR
STARTCHAR C020545
ENCODING 8549
SWIDTH 1400 0
DWIDTH 14 0
BBX 11 8 2 1
BITMAP
FFE0
7FC0
7F80
3F80
3F00
1F00
0E00
0C00
ENDCHAR
STARTCHAR C020546
ENCODING 8550
SWIDTH 1400 0
DWIDTH 14 0
BBX 12 3 1 2
BITMAP
FFF0
0060
00C0
ENDCHAR
STARTCHAR C020547
ENCODING 8551
SWIDTH 1400 0
DWIDTH 14 0
BBX 12 3 2 2
BITMAP
FFF0
6000
3000
ENDCHAR
STARTCHAR C020550
ENCODING 8552
SWIDTH 1400 0
DWIDTH 14 0
BBX 4 11 6 -2
BITMAP
60
F0
60
60
60
60
60
60
60
60
60
ENDCHAR
STARTCHAR C020551
ENCODING 8553
SWIDTH 1400 0
DWIDTH 14 0
BBX 4 11 6 -2
BITMAP
60
60
60
60
60
60
60
60
60
F0
60
ENDCHAR
STARTCHAR C020552
ENCODING 8554
SWIDTH 1400 0
DWIDTH 14 0
BBX 10 3 2 3
BITMAP
6000
FFC0
C0C0
ENDCHAR
STARTCHAR C020553
ENCODING 8555
SWIDTH 1400 0
DWIDTH 14 0
BBX 10 4 2 2
BITMAP
FFC0
0000
0000
FFC0
ENDCHAR
STARTCHAR C020554
ENCODING 8556
SWIDTH 1400 0
DWIDTH 14 0
BBX 11 10 2 -1
BITMAP
0360
0FC0
1B00
3600
FC00
6C00
3E00
0F80
06C0
0360
ENDCHAR
STARTCHAR C020555
ENCODING 8557
SWIDTH 1400 0
DWIDTH 14 0
BBX 10 10 2 -1
BITMAP
1800
EC00
3600
1B80
0EC0
06C0
0F80
3E00
6C00
D800
ENDCHAR
STARTCHAR C020556
ENCODING 8558
SWIDTH 1400 0
DWIDTH 14 0
BBX 12 11 2 0
BITMAP
07F0
0600
0C00
0C00
0C00
1800
1800
D800
F000
7000
3000
ENDCHAR
STARTCHAR C020557
ENCODING 8559
SWIDTH 1400 0
DWIDTH 14 0
BBX 11 6 2 1
BITMAP
7BC0
C660
C660
CC60
D860
7BC0
ENDCHAR
STARTCHAR C020560
ENCODING 8560
SWIDTH 1400 0
DWIDTH 14 0
BBX 9 6 3 1
BITMAP
F780
1D80
1800
1800
1D80
F780
ENDCHAR
STARTCHAR C020561
ENCODING 8561
SWIDTH 1400 0
DWIDTH 14 0
BBX 7 7 4 0
BITMAP
C6
C6
00
00
00
30
30
ENDCHAR
STARTCHAR C020562
ENCODING 8562
SWIDTH 1400 0
DWIDTH 14 0
BBX 6 10 4 0
BITMAP
1C
30
30
30
30
30
30
30
F0
E0
ENDCHAR
STARTCHAR C020563
ENCODING 8563
SWIDTH 1400 0
DWIDTH 14 0
BBX 10 10 2 0
BITMAP
1DC0
1FC0
3300
3300
3300
3300
3300
3300
F600
EE00
ENDCHAR
STARTCHAR C020564
ENCODING 8564
SWIDTH 1400 0
DWIDTH 14 0
BBX 10 8 2 0
BITMAP
3FC0
6000
C000
FFC0
C000
C000
6000
3FC0
ENDCHAR
STARTCHAR C020565
ENCODING 8565
SWIDTH 1400 0
DWIDTH 14 0
BBX 10 8 2 0
BITMAP
FF00
0180
00C0
FFC0
00C0
00C0
0180
FF00
ENDCHAR
STARTCHAR C020566
ENCODING 8566
SWIDTH 1400 0
DWIDTH 14 0
BBX 9 8 3 0
BITMAP
7F00
C000
C000
C000
E000
3F80
0000
FF80
ENDCHAR
STARTCHAR C020567
ENCODING 8567
SWIDTH 1400 0
DWIDTH 14 0
BBX 9 8 3 0
BITMAP
7F00
0180
0180
0180
0300
FE00
0000
FF80
ENDCHAR
STARTCHAR C020570
ENCODING 8568
SWIDTH 1400 0
DWIDTH 14 0
BBX 10 8 2 0
BITMAP
3FC0
6000
C000
C000
C000
C000
6000
3FC0
ENDCHAR
STARTCHAR C020571
ENCODING 8569
SWIDTH 1400 0
DWIDTH 14 0
BBX 10 8 2 0
BITMAP
FF00
0180
00C0
00C0
00C0
00C0
0180
FF00
ENDCHAR
STARTCHAR C020572
ENCODING 8570
SWIDTH 1400 0
DWIDTH 14 0
BBX 8 10 4 0
BITMAP
03
03
03
03
03
03
03
C6
C6
7C
ENDCHAR
STARTCHAR C020573
ENCODING 8571
SWIDTH 1400 0
DWIDTH 14 0
BBX 7 10 4 0
BITMAP
7C
C6
C6
06
06
06
06
06
06
06
ENDCHAR
STARTCHAR C020574
ENCODING 8572
SWIDTH 1400 0
DWIDTH 14 0
BBX 9 8 3 0
BITMAP
1C00
1C00
3600
3600
6300
6300
C300
C180
ENDCHAR
STARTCHAR C020575
ENCODING 8573
SWIDTH 1400 0
DWIDTH 14 0
BBX 9 8 3 1
BITMAP
0180
C180
C300
6300
6600
3600
3C00
1C00
ENDCHAR
STARTCHAR C020576
ENCODING 8574
SWIDTH 1400 0
DWIDTH 14 0
BBX 9 5 3 2
BITMAP
FF80
0180
0180
0180
0180
ENDCHAR
STARTCHAR C020577
ENCODING 8575
SWIDTH 1400 0
DWIDTH 14 0
BBX 0 0 0 0
BITMAP
ENDCHAR
STARTCHAR C021041
ENCODING 8737
SWIDTH 1400 0
DWIDTH 14 0
BBX 12 6 1 1
BITMAP
00C0
FFE0
0030
0030
7FE0
00C0
ENDCHAR
STARTCHAR C021042
ENCODING 8738
SWIDTH 1400 0
DWIDTH 14 0
BBX 11 7 2 1
BITMAP
1B00
3180
7FC0
C060
C0C0
7FC0
3180
ENDCHAR
STARTCHAR C021043
ENCODING 8739
SWIDTH 1400 0
DWIDTH 14 0
BBX 9 9 3 1
BITMAP
C180
C180
6300
7F00
6300
3600
3600
1C00
1C00
ENDCHAR
STARTCHAR C021044
ENCODING 8740
SWIDTH 1400 0
DWIDTH 14 0
BBX 7 9 4 0
BITMAP
FE
06
06
06
FE
06
06
06
FE
ENDCHAR
STARTCHAR C021045
ENCODING 8741
SWIDTH 1400 0
DWIDTH 14 0
BBX 2 1 6 9
BITMAP
C0
ENDCHAR
STARTCHAR C021046
ENCODING 8742
SWIDTH 1400 0
DWIDTH 14 0
BBX 8 2 3 8
BITMAP
78
CF
ENDCHAR
STARTCHAR C021047
ENCODING 8743
SWIDTH 1400 0
DWIDTH 14 0
BBX 5 2 5 8
BITMAP
D8
70
ENDCHAR
STARTCHAR C021050
ENCODING 8744
SWIDTH 1400 0
DWIDTH 14 0
BBX 5 2 5 8
BITMAP
D8
F0
ENDCHAR
STARTCHAR C021051
ENCODING 8745
SWIDTH 1400 0
DWIDTH 14 0
BBX 5 2 5 9
BITMAP
F8
C0
ENDCHAR
STARTCHAR C021052
ENCODING 8746
SWIDTH 1400 0
DWIDTH 14 0
BBX 3 3 6 8
BITMAP
E0
60
E0
ENDCHAR
STARTCHAR C021053
ENCODING 8747
SWIDTH 1400 0
DWIDTH 14 0
BBX 2 2 6 9
BITMAP
C0
C0
ENDCHAR
STARTCHAR C021054
ENCODING 8748
SWIDTH 1400 0
DWIDTH 14 0
BBX 2 2 7 -1
BITMAP
C0
C0
ENDCHAR
STARTCHAR C021055
ENCODING 8749
SWIDTH 1400 0
DWIDTH 14 0
BBX 3 3 6 -2
BITMAP
C0
C0
E0
ENDCHAR
STARTCHAR C021056
ENCODING 8750
SWIDTH 1400 0
DWIDTH 14 0
BBX 2 10 6 0
BITMAP
C0
C0
00
C0
C0
C0
C0
C0
C0
C0
ENDCHAR
STARTCHAR C021057
ENCODING 8751
SWIDTH 1400 0
DWIDTH 14 0
BBX 7 10 4 0
BITMAP
18
18
00
18
18
78
C0
C6
C6
7C
ENDCHAR
STARTCHAR C021060
ENCODING 8752
SWIDTH 1400 0
DWIDTH 14 0
BBX 3 6 6 2
BITMAP
E0
00
00
00
00
E0
ENDCHAR
STARTCHAR C021061
ENCODING 8753
SWIDTH 1400 0
DWIDTH 14 0
BBX 7 10 4 0
BITMAP
1E
18
30
38
78
38
30
30
30
E0
ENDCHAR
STARTCHAR C021062
ENCODING 8754
SWIDTH 1400 0
DWIDTH 14 0
BBX 10 10 2 0
BITMAP
FFC0
60C0
30C0
18C0
0C00
0C00
18C0
30C0
60C0
FFC0
ENDCHAR
STARTCHAR C021063
ENCODING 8755
SWIDTH 1400 0
DWIDTH 14 0
BBX 11 10 2 0
BITMAP
FFE0
3180
3180
3180
3180
3180
3180
3180
3180
3180
ENDCHAR
STARTCHAR C021064
ENCODING 8756
SWIDTH 1400 0
DWIDTH 14 0
BBX 10 11 2 -1
BITMAP
C000
7FC0
3180
6180
60C0
60C0
60C0
60C0
3180
7FC0
C000
ENDCHAR
STARTCHAR C021065
ENCODING 8757
SWIDTH 1400 0
DWIDTH 14 0
BBX 10 10 2 0
BITMAP
EFC0
6C00
CC00
0C00
0F80
0C00
0C00
0C00
0C00
0C00
ENDCHAR
STARTCHAR C021066
ENCODING 8758
SWIDTH 1400 0
DWIDTH 14 0
BBX 12 12 1 -1
BITMAP
38C0
6D80
6F00
6F00
6E00
3C00
0F60
1DF0
3DF0
3DF0
6DF0
C760
ENDCHAR
STARTCHAR C021067
ENCODING 8759
SWIDTH 1400 0
DWIDTH 14 0
BBX 8 11 4 -1
BITMAP
03
07
1F
33
63
C3
63
3B
0F
07
03
ENDCHAR
STARTCHAR C021070
ENCODING 8760
SWIDTH 1400 0
DWIDTH 14 0
BBX 8 9 3 0
BITMAP
07
0F
1F
7F
FF
7F
1F
0F
07
ENDCHAR
STARTCHAR C021071
ENCODING 8761
SWIDTH 1400 0
DWIDTH 14 0
BBX 8 11 3 -1
BITMAP
C0
E0
F0
DC
C6
C3
C6
CC
F8
E0
C0
ENDCHAR
STARTCHAR C021072
ENCODING 8762
SWIDTH 1400 0
DWIDTH 14 0
BBX 9 11 3 -1
BITMAP
C000
E000
F800
FC00
FE00
FF80
FE00
FC00
F800
E000
C000
ENDCHAR
STARTCHAR C021073
ENCODING 8763
SWIDTH 1400 0
DWIDTH 14 0
BBX 10 11 2 -1
BITMAP
0C00
1E00
3300
6180
6180
C0C0
C0C0
DEC0
7F80
1E00
1E00
ENDCHAR
STARTCHAR C021074
ENCODING 8764
SWIDTH 1400 0
DWIDTH 14 0
BBX 9 11 3 -1
BITMAP
1800
1C00
3E00
7F00
FF00
FF80
FF80
FF80
FF80
1C00
3C00
ENDCHAR
STARTCHAR C021075
ENCODING 8765
SWIDTH 1400 0
DWIDTH 14 0
BBX 10 11 2 -1
BITMAP
7780
FFC0
CCC0
C0C0
C0C0
6180
6180
3300
3300
1E00
0C00
ENDCHAR
STARTCHAR C021076
ENCODING 8766
SWIDTH 1400 0
DWIDTH 14 0
BBX 11 11 2 -1
BITMAP
7BC0
FFC0
FFE0
FFC0
FFC0
7FC0
7F80
3F80
1F00
1E00
0C00
ENDCHAR
STARTCHAR C021077
ENCODING 8767
SWIDTH 1400 0
DWIDTH 14 0
BBX 11 12 2 -1
BITMAP
1E00
3300
3300
3300
1E00
7FC0
C060
C060
CE60
7FC0
0E00
0E00
ENDCHAR
STARTCHAR C021100
ENCODING 8768
SWIDTH 1400 0
DWIDTH 14 0
BBX 11 11 2 -1
BITMAP
1E00
1F00
3F00
1F00
7FC0
FFE0
FFE0
FFE0
7FC0
0E00
0E00
ENDCHAR
STARTCHAR C021101
ENCODING 8769
SWIDTH 1400 0
DWIDTH 14 0
BBX 11 11 2 -1
BITMAP
1F00
71C0
7FC0
FFE0
FFE0
FFE0
FFE0
FFE0
7FC0
71C0
1F00
ENDCHAR
STARTCHAR C021102
ENCODING 8770
SWIDTH 1400 0
DWIDTH 14 0
BBX 12 12 1 -1
BITMAP
0600
0F00
1D80
1FC0
3FE0
7FF0
FFF0
7FE0
3FC0
1F80
0F00
0600
ENDCHAR
STARTCHAR C021103
ENCODING 8771
SWIDTH 1400 0
DWIDTH 14 0
BBX 11 11 2 -1
BITMAP
FFE0
C060
C060
FF60
FF60
FF60
FF60
FF60
C060
C060
FFE0
ENDCHAR
STARTCHAR C021104
ENCODING 8772
SWIDTH 1400 0
DWIDTH 14 0
BBX 11 11 2 -1
BITMAP
1F00
3DC0
7CC0
FC60
FC60
FC60
FC60
FC60
7CC0
3DC0
1F00
ENDCHAR
STARTCHAR C021105
ENCODING 8773
SWIDTH 1400 0
DWIDTH 14 0
BBX 11 11 2 -1
BITMAP
1F00
73C0
63C0
C3E0
C3E0
C3E0
C3E0
C3E0
63C0
73C0
1F00
ENDCHAR
STARTCHAR C021106
ENCODING 8774
SWIDTH 1400 0
DWIDTH 14 0
BBX 10 11 2 -1
BITMAP
FFC0
F8C0
FDC0
FDC0
F8C0
FDC0
F8C0
FDC0
F8C0
C0C0
FFC0
ENDCHAR
STARTCHAR C021107
ENCODING 8775
SWIDTH 1400 0
DWIDTH 14 0
BBX 11 11 2 -1
BITMAP
FFE0
C060
FFE0
C060
C060
FFE0
C060
C060
FFE0
C060
FFE0
ENDCHAR
STARTCHAR C021110
ENCODING 8776
SWIDTH 1400 0
DWIDTH 14 0
BBX 11 11 2 -1
BITMAP
FFE0
DB60
DB60
DB60
DB60
DB60
DB60
DB60
DB60
DB60
FFE0
ENDCHAR
STARTCHAR C021111
ENCODING 8777
SWIDTH 1400 0
DWIDTH 14 0
BBX 11 11 2 -1
BITMAP
FFE0
CCE0
D9E0
F360
E660
CCE0
D9E0
F360
E660
C660
FFE0
ENDCHAR
STARTCHAR C021112
ENCODING 8778
SWIDTH 1400 0
DWIDTH 14 0
BBX 11 11 2 -1
BITMAP
FFE0
E660
E360
F1E0
D9E0
ECE0
E660
F360
D9E0
CCE0
FFE0
ENDCHAR
STARTCHAR C021113
ENCODING 8779
SWIDTH 1400 0
DWIDTH 14 0
BBX 11 11 2 -1
BITMAP
FFE0
FDE0
FFE0
FDE0
FDE0
FFE0
FDE0
FFE0
FDE0
FDE0
FFE0
ENDCHAR
STARTCHAR C021114
ENCODING 8780
SWIDTH 1400 0
DWIDTH 14 0
BBX 11 11 2 -1
BITMAP
FFE0
DEE0
F7E0
F3E0
FFE0
CCE0
FEE0
F3E0
FBE0
CEE0
FFE0
ENDCHAR
STARTCHAR C021115
ENCODING 8781
SWIDTH 1400 0
DWIDTH 14 0
BBX 11 10 2 -1
BITMAP
1F00
1E00
1E00
1F00
1F00
7FC0
DF60
DC60
61C0
3F80
ENDCHAR
STARTCHAR C021116
ENCODING 8782
SWIDTH 1400 0
DWIDTH 14 0
BBX 12 10 1 -1
BITMAP
0F00
79E0
DFF0
FFF0
7CE0
38C0
78E0
7DE0
6760
3FC0
ENDCHAR
STARTCHAR C021117
ENCODING 8783
SWIDTH 1400 0
DWIDTH 14 0
BBX 12 9 2 0
BITMAP
0F00
7FE0
FBF0
FFF0
3180
31C0
71C0
71E0
7FE0
ENDCHAR
STARTCHAR C021120
ENCODING 8784
SWIDTH 1400 0
DWIDTH 14 0
BBX 13 6 1 2
BITMAP
0780
FFF8
7E38
1FB8
0FF8
03E0
ENDCHAR
STARTCHAR C021121
ENCODING 8785
SWIDTH 1400 0
DWIDTH 14 0
BBX 13 7 1 1
BITMAP
0F00
FFF8
E370
EFC0
FF80
3E00
0C00
ENDCHAR
STARTCHAR C021122
ENCODING 8786
SWIDTH 1400 0
DWIDTH 14 0
BBX 8 12 3 -2
BITMAP
7F
CF
CF
CF
7F
0F
0F
0F
0F
0F
0F
03
ENDCHAR
STARTCHAR C021123
ENCODING 8787
SWIDTH 1400 0
DWIDTH 14 0
BBX 8 12 3 -1
BITMAP
18
18
18
FF
18
18
18
18
18
18
18
18
ENDCHAR
STARTCHAR C021124
ENCODING 8788
SWIDTH 1400 0
DWIDTH 14 0
BBX 8 13 3 -2
BITMAP
18
18
18
7E
18
FF
18
18
18
18
18
18
18
ENDCHAR
STARTCHAR C021125
ENCODING 8789
SWIDTH 1400 0
DWIDTH 14 0
BBX 5 9 5 0
BITMAP
70
F8
60
60
60
60
60
60
70
ENDCHAR
STARTCHAR C021126
ENCODING 8790
SWIDTH 1400 0
DWIDTH 14 0
BBX 8 8 3 0
BITMAP
07
07
0C
18
30
60
60
C0
ENDCHAR
STARTCHAR C021127
ENCODING 8791
SWIDTH 1400 0
DWIDTH 14 0
BBX 9 8 3 1
BITMAP
0180
0300
0600
0C00
1800
F000
E000
F000
ENDCHAR
STARTCHAR C021130
ENCODING 8792
SWIDTH 1400 0
DWIDTH 14 0
BBX 8 8 4 0
BITMAP
E0
E0
60
30
18
0C
06
03
ENDCHAR
STARTCHAR C021131
ENCODING 8793
SWIDTH 1400 0
DWIDTH 14 0
BBX 9 9 3 0
BITMAP
C000
6000
3000
3800
1800
0C00
0780
0380
0780
ENDCHAR
STARTCHAR C021132
ENCODING 8794
SWIDTH 1400 0
DWIDTH 14 0
BBX 5 9 5 0
BITMAP
C0
C0
C0
F8
F8
D8
D8
F0
E0
ENDCHAR
STARTCHAR C021133
ENCODING 8795
SWIDTH 1400 0
DWIDTH 14 0
BBX 4 11 5 -1
BITMAP
30
30
30
30
30
30
30
30
30
F0
E0
ENDCHAR
STARTCHAR C021134
ENCODING 8796
SWIDTH 1400 0
DWIDTH 14 0
BBX 8 11 3 -1
BITMAP
30
38
3C
36
33
33
36
30
30
F0
E0
ENDCHAR
STARTCHAR C021135
ENCODING 8797
SWIDTH 1400 0
DWIDTH 14 0
BBX 10 10 2 -1
BITMAP
3FC0
30C0
3FC0
30C0
30C0
30C0
30C0
30C0
F3C0
E380
ENDCHAR
STARTCHAR C021136
ENCODING 8798
SWIDTH 1400 0
DWIDTH 14 0
BBX 11 11 2 -1
BITMAP
1F00
3180
7BC0
DE60
DE00
FFE0
1E60
DB60
79C0
31C0
1F00
ENDCHAR
STARTCHAR C021137
ENCODING 8799
SWIDTH 1400 0
DWIDTH 14 0
BBX 12 11 1 -1
BITMAP
30C0
7FE0
6760
CFB0
F8F0
FFF0
C630
C630
6660
6660
30C0
ENDCHAR
STARTCHAR C021140
ENCODING 8800
SWIDTH 1400 0
DWIDTH 14 0
BBX 13 10 1 0
BITMAP
CC00
CC00
EC00
EDE0
FFF0
FF30
FF30
DF30
CFF0
CDF8
ENDCHAR
STARTCHAR C021141
ENCODING 8801
SWIDTH 1400 0
DWIDTH 14 0
BBX 13 10 1 0
BITMAP
7800
6C00
CC00
C1E0
C3F0
C330
CF30
CF30
6FF0
79F8
ENDCHAR
STARTCHAR C021142
ENCODING 8802
SWIDTH 1400 0
DWIDTH 14 0
BBX 12 10 1 0
BITMAP
FF30
3330
3330
33F0
33F0
33F0
33F0
33F0
33F0
33F0
ENDCHAR
STARTCHAR C021143
ENCODING 8803
SWIDTH 1400 0
DWIDTH 14 0
BBX 13 7 1 0
BITMAP
73E0
DBF0
DBF0
7BF0
DBF0
DBF0
7FF8
ENDCHAR
STARTCHAR C021144
ENCODING 8804
SWIDTH 1400 0
DWIDTH 14 0
BBX 13 9 1 -2
BITMAP
FBF0
FFF0
CFF0
CFF0
CFF0
FFF0
FBF8
C000
C000
ENDCHAR
STARTCHAR C021145
ENCODING 8805
SWIDTH 1400 0
DWIDTH 14 0
BBX 11 10 2 0
BITMAP
FC60
3060
3060
3F60
39E0
39E0
3FE0
39E0
39E0
3F60
ENDCHAR
STARTCHAR C021441
ENCODING 8993
SWIDTH 1400 0
DWIDTH 14 0
BBX 3 11 6 -1
BITMAP
60
60
60
60
60
60
60
60
60
C0
C0
ENDCHAR
STARTCHAR C021442
ENCODING 8994
SWIDTH 1400 0
DWIDTH 14 0
BBX 5 3 5 8
BITMAP
60
78
F0
ENDCHAR
STARTCHAR C021443
ENCODING 8995
SWIDTH 1400 0
DWIDTH 14 0
BBX 11 11 2 -1
BITMAP
0180
1980
1980
7FE0
1B00
3300
3300
FFC0
3300
3600
3600
ENDCHAR
STARTCHAR C021444
ENCODING 8996
SWIDTH 1400 0
DWIDTH 14 0
BBX 10 12 3 -1
BITMAP
0600
1E00
F780
F6C0
F600
7E00
3780
36C0
36C0
F7C0
7F00
3600
ENDCHAR
STARTCHAR C021445
ENCODING 8997
SWIDTH 1400 0
DWIDTH 14 0
BBX 13 11 1 -1
BITMAP
7C30
C660
C6C0
C780
6F00
3FF0
0F18
1B18
3318
61B0
00E0
ENDCHAR
STARTCHAR C021446
ENCODING 8998
SWIDTH 1400 0
DWIDTH 14 0
BBX 9 10 3 0
BITMAP
1C00
3600
3600
3600
1C00
7C00
6D80
C700
6700
3D80
ENDCHAR
STARTCHAR C021447
ENCODING 8999
SWIDTH 1400 0
DWIDTH 14 0
BBX 3 3 6 8
BITMAP
60
60
C0
ENDCHAR
STARTCHAR C021450
ENCODING 9000
SWIDTH 1400 0
DWIDTH 14 0
BBX 5 13 5 -2
BITMAP
18
30
60
60
C0
C0
C0
C0
C0
60
60
30
18
ENDCHAR
STARTCHAR C021451
ENCODING 9001
SWIDTH 1400 0
DWIDTH 14 0
BBX 5 13 5 -2
BITMAP
C0
60
30
30
18
18
18
18
18
30
30
60
C0
ENDCHAR
STARTCHAR C021452
ENCODING 9002
SWIDTH 1400 0
DWIDTH 14 0
BBX 9 7 3 1
BITMAP
3600
3E00
1C00
FF80
1C00
3600
3600
ENDCHAR
STARTCHAR C021453
ENCODING 9003
SWIDTH 1400 0
DWIDTH 14 0
BBX 11 11 2 -1
BITMAP
0C00
0C00
0C00
0C00
0C00
FFE0
0C00
0C00
0C00
0C00
0C00
ENDCHAR
STARTCHAR C021454
ENCODING 9004
SWIDTH 1400 0
DWIDTH 14 0
BBX 3 4 6 -2
BITMAP
E0
E0
60
C0
ENDCHAR
STARTCHAR C021455
ENCODING 9005
SWIDTH 1400 0
DWIDTH 14 0
BBX 12 1 2 4
BITMAP
FFF0
ENDCHAR
STARTCHAR C021456
ENCODING 9006
SWIDTH 1400 0
DWIDTH 14 0
BBX 3 2 6 -1
BITMAP
E0
E0
ENDCHAR
STARTCHAR C021457
ENCODING 9007
SWIDTH 1400 0
DWIDTH 14 0
BBX 6 11 5 -1
BITMAP
0C
18
18
18
30
30
60
60
C0
C0
C0
ENDCHAR
STARTCHAR C021460
ENCODING 9008
SWIDTH 1400 0
DWIDTH 14 0
BBX 9 10 3 0
BITMAP
3E00
6300
E380
C180
C180
C180
C180
E380
6300
3E00
ENDCHAR
STARTCHAR C021461
ENCODING 9009
SWIDTH 1400 0
DWIDTH 14 0
BBX 5 10 4 0
BITMAP
18
38
78
D8
18
18
18
18
18
18
ENDCHAR
STARTCHAR C021462
ENCODING 9010
SWIDTH 1400 0
DWIDTH 14 0
BBX 8 10 3 0
BITMAP
3E
E7
C3
03
06
1C
30
60
C0
FF
ENDCHAR
STARTCHAR C021463
ENCODING 9011
SWIDTH 1400 0
DWIDTH 14 0
BBX 8 10 3 0
BITMAP
3E
63
03
07
3C
07
03
C3
63
3E
ENDCHAR
STARTCHAR C021464
ENCODING 9012
SWIDTH 1400 0
DWIDTH 14 0
BBX 8 10 3 0
BITMAP
0E
1E
1E
36
66
C6
C6
FF
06
06
ENDCHAR
STARTCHAR C021465
ENCODING 9013
SWIDTH 1400 0
DWIDTH 14 0
BBX 8 10 4 0
BITMAP
FE
C0
C0
C0
FE
03
03
C3
E6
7C
ENDCHAR
STARTCHAR C021466
ENCODING 9014
SWIDTH 1400 0
DWIDTH 14 0
BBX 9 10 3 0
BITMAP
3E00
6600
C300
C000
FF00
E380
C180
C180
6380
3E00
ENDCHAR
STARTCHAR C021467
ENCODING 9015
SWIDTH 1400 0
DWIDTH 14 0
BBX 8 10 4 0
BITMAP
FF
06
06
0C
0C
18
30
30
60
60
ENDCHAR
STARTCHAR C021470
ENCODING 9016
SWIDTH 1400 0
DWIDTH 14 0
BBX 8 10 3 0
BITMAP
3E
63
63
63
3E
63
63
C3
63
3E
ENDCHAR
STARTCHAR C021471
ENCODING 9017
SWIDTH 1400 0
DWIDTH 14 0
BBX 8 11 4 -1
BITMAP
7C
66
C3
C3
C3
67
7F
03
C6
E6
3C
ENDCHAR
STARTCHAR C021472
ENCODING 9018
SWIDTH 1400 0
DWIDTH 14 0
BBX 2 9 7 0
BITMAP
C0
C0
00
00
00
00
00
C0
C0
ENDCHAR
STARTCHAR C021473
ENCODING 9019
SWIDTH 1400 0
DWIDTH 14 0
BBX 3 9 6 0
BITMAP
60
60
00
00
00
00
00
E0
60
ENDCHAR
STARTCHAR C021474
ENCODING 9020
SWIDTH 1400 0
DWIDTH 14 0
BBX 11 11 2 -1
BITMAP
00E0
0380
0E00
1800
7000
C000
7000
1C00
0600
0380
00E0
ENDCHAR
STARTCHAR C021475
ENCODING 9021
SWIDTH 1400 0
DWIDTH 14 0
BBX 11 4 2 3
BITMAP
FFE0
0000
0000
FFE0
ENDCHAR
STARTCHAR C021476
ENCODING 9022
SWIDTH 1400 0
DWIDTH 14 0
BBX 10 10 3 0
BITMAP
C000
7000
1C00
0700
01C0
00C0
0380
0E00
3800
E000
ENDCHAR
STARTCHAR C021477
ENCODING 9023
SWIDTH 1400 0
DWIDTH 14 0
BBX 9 12 3 -1
BITMAP
7E00
C300
C180
C180
C380
6F00
1800
1800
1800
1800
0000
1800
ENDCHAR
STARTCHAR C021500
ENCODING 9024
SWIDTH 1400 0
DWIDTH 14 0
BBX 12 11 1 -1
BITMAP
1F80
30E0
6060
CFB0
D9B0
D9B0
D9B0
DDB0
6FE0
3000
1F80
ENDCHAR
STARTCHAR C021501
ENCODING 9025
SWIDTH 1400 0
DWIDTH 14 0
BBX 9 10 3 0
BITMAP
1C00
1C00
3C00
3600
6600
6300
6300
7F00
C180
C180
ENDCHAR
STARTCHAR C021502
ENCODING 9026
SWIDTH 1400 0
DWIDTH 14 0
BBX 9 11 3 0
BITMAP
FF00
C180
C180
C180
C300
FF00
C180
C180
C180
C180
FF00
ENDCHAR
STARTCHAR C021503
ENCODING 9027
SWIDTH 1400 0
DWIDTH 14 0
BBX 10 10 3 0
BITMAP
3F00
7380
6180
C0C0
C000
C000
C0C0
6180
7180
1F00
ENDCHAR
STARTCHAR C021504
ENCODING 9028
SWIDTH 1400 0
DWIDTH 14 0
BBX 10 10 3 0
BITMAP
FF00
C380
C1C0
C0C0
C0C0
C0C0
C0C0
C0C0
C180
FF00
ENDCHAR
STARTCHAR C021505
ENCODING 9029
SWIDTH 1400 0
DWIDTH 14 0
BBX 8 10 4 0
BITMAP
FF
C0
C0
C0
FF
C0
C0
C0
C0
FF
ENDCHAR
STARTCHAR C021506
ENCODING 9030
SWIDTH 1400 0
DWIDTH 14 0
BBX 8 10 4 0
BITMAP
FF
C0
C0
C0
FF
C0
C0
C0
C0
C0
ENDCHAR
STARTCHAR C021507
ENCODING 9031
SWIDTH 1400 0
DWIDTH 14 0
BBX 9 12 3 -1
BITMAP
1E00
7380
6180
C000
C000
CF80
C180
C180
C180
6300
7300
3E00
ENDCHAR
STARTCHAR C021510
ENCODING 9032
SWIDTH 1400 0
DWIDTH 14 0
BBX 9 11 3 0
BITMAP
C000
C180
C180
C180
C180
FF80
C180
C180
C180
C180
C180
ENDCHAR
STARTCHAR C021511
ENCODING 9033
SWIDTH 1400 0
DWIDTH 14 0
BBX 2 11 7 -1
BITMAP
C0
C0
C0
C0
C0
C0
C0
C0
C0
C0
C0
ENDCHAR
STARTCHAR C021512
ENCODING 9034
SWIDTH 1400 0
DWIDTH 14 0
BBX 8 10 3 0
BITMAP
03
03
03
03
03
C3
C3
C3
66
3C
ENDCHAR
STARTCHAR C021513
ENCODING 9035
SWIDTH 1400 0
DWIDTH 14 0
BBX 9 11 4 -1
BITMAP
C300
C600
DC00
F000
E000
F000
D800
CC00
C600
C300
0180
ENDCHAR
STARTCHAR C021514
ENCODING 9036
SWIDTH 1400 0
DWIDTH 14 0
BBX 9 10 4 0
BITMAP
C000
C000
C000
C000
C000
C000
C000
C000
C000
FF80
ENDCHAR
STARTCHAR C021515
ENCODING 9037
SWIDTH 1400 0
DWIDTH 14 0
BBX 11 10 2 0
BITMAP
C0E0
E0E0
E1E0
F1E0
F360
DB60
DB60
DE60
CE60
CC60
ENDCHAR
STARTCHAR C021516
ENCODING 9038
SWIDTH 1400 0
DWIDTH 14 0
BBX 9 11 3 0
BITMAP
C180
E180
E180
F180
D980
D980
CD80
CD80
C780
C380
C180
ENDCHAR
STARTCHAR C021517
ENCODING 9039
SWIDTH 1400 0
DWIDTH 14 0
BBX 9 11 3 -1
BITMAP
3E00
6700
6300
C180
C180
C180
C180
C180
6300
6300
3E00
ENDCHAR
STARTCHAR C021520
ENCODING 9040
SWIDTH 1400 0
DWIDTH 14 0
BBX 10 10 3 0
BITMAP
FF80
C1C0
C0C0
C0C0
C1C0
FF80
C000
C000
C000
C000
ENDCHAR
STARTCHAR C021521
ENCODING 9041
SWIDTH 1400 0
DWIDTH 14 0
BBX 10 13 2 -2
BITMAP
3F00
7380
E180
C0C0
C0C0
C0C0
C0C0
C0C0
E180
7380
3E00
6600
03C0
ENDCHAR
STARTCHAR C021522
ENCODING 9042
SWIDTH 1400 0
DWIDTH 14 0
BBX 9 11 3 -1
BITMAP
FF00
C180
C180
C180
C380
FF00
C300
C300
C300
C180
C180
ENDCHAR
STARTCHAR C021523
ENCODING 9043
SWIDTH 1400 0
DWIDTH 14 0
BBX 9 11 3 -1
BITMAP
7E00
E300
C300
C000
6000
3E00
0380
C180
C180
6380
3E00
ENDCHAR
STARTCHAR C021524
ENCODING 9044
SWIDTH 1400 0
DWIDTH 14 0
BBX 10 11 3 -1
BITMAP
FFC0
0C00
0C00
0C00
0C00
0C00
0C00
0C00
0C00
0C00
0C00
ENDCHAR
STARTCHAR C021525
ENCODING 9045
SWIDTH 1400 0
DWIDTH 14 0
BBX 9 11 3 0
BITMAP
0180
C180
C180
C180
C180
C180
C180
C180
C180
6300
3E00
ENDCHAR
STARTCHAR C021526
ENCODING 9046
SWIDTH 1400 0
DWIDTH 14 0
BBX 9 11 3 0
BITMAP
C180
C180
C300
6300
6300
6600
3600
3600
3C00
1C00
1C00
ENDCHAR
STARTCHAR C021527
ENCODING 9047
SWIDTH 1400 0
DWIDTH 14 0
BBX 13 11 1 0
BITMAP
C018
C718
C730
6730
6F30
6DB0
6DE0
3DE0
3DE0
38E0
18C0
ENDCHAR
STARTCHAR C021530
ENCODING 9048
SWIDTH 1400 0
DWIDTH 14 0
BBX 9 11 3 -1
BITMAP
C180
6300
3600
1E00
1C00
1C00
3600
3600
6300
C180
C000
ENDCHAR
STARTCHAR C021531
ENCODING 9049
SWIDTH 1400 0
DWIDTH 14 0
BBX 9 11 3 0
BITMAP
0180
C300
C300
6600
3C00
3C00
1800
1800
1800
1800
1800
ENDCHAR
STARTCHAR C021532
ENCODING 9050
SWIDTH 1400 0
DWIDTH 14 0
BBX 9 10 3 0
BITMAP
FF00
0300
0600
0C00
1800
1800
3000
6000
C000
FF80
ENDCHAR
STARTCHAR C021533
ENCODING 9051
SWIDTH 1400 0
DWIDTH 14 0
BBX 6 13 5 -2
BITMAP
FC
C0
C0
C0
C0
C0
C0
C0
C0
C0
C0
C0
7C
ENDCHAR
STARTCHAR C021534
ENCODING 9052
SWIDTH 1400 0
DWIDTH 14 0
BBX 13 10 1 0
BITMAP
6730
6730
6730
FFF8
6DE0
3DE0
FFF8
3DE0
39E0
18C0
ENDCHAR
STARTCHAR C021535
ENCODING 9053
SWIDTH 1400 0
DWIDTH 14 0
BBX 6 13 4 -2
BITMAP
FC
0C
0C
0C
0C
0C
0C
0C
0C
0C
0C
0C
FC
ENDCHAR
STARTCHAR C021536
ENCODING 9054
SWIDTH 1400 0
DWIDTH 14 0
BBX 5 2 5 8
BITMAP
70
D8
ENDCHAR
STARTCHAR C021537
ENCODING 9055
SWIDTH 1400 0
DWIDTH 14 0
BBX 13 1 1 -2
BITMAP
FFF8
ENDCHAR
STARTCHAR C021540
ENCODING 9056
SWIDTH 1400 0
DWIDTH 14 0
BBX 3 3 6 7
BITMAP
C0
60
60
ENDCHAR
STARTCHAR C021541
ENCODING 9057
SWIDTH 1400 0
DWIDTH 14 0
BBX 7 7 4 0
BITMAP
7C
66
06
FE
C6
CE
7E
ENDCHAR
STARTCHAR C021542
ENCODING 9058
SWIDTH 1400 0
DWIDTH 14 0
BBX 7 9 4 0
BITMAP
C0
C0
FC
EE
C6
C6
C6
EE
FC
ENDCHAR
STARTCHAR C021543
ENCODING 9059
SWIDTH 1400 0
DWIDTH 14 0
BBX 7 7 4 0
BITMAP
3C
66
C0
C0
C0
66
3C
ENDCHAR
STARTCHAR C021544
ENCODING 9060
SWIDTH 1400 0
DWIDTH 14 0
BBX 7 9 4 0
BITMAP
06
06
7E
EE
C6
C6
C6
EE
7E
ENDCHAR
STARTCHAR C021545
ENCODING 9061
SWIDTH 1400 0
DWIDTH 14 0
BBX 7 7 4 0
BITMAP
7C
E6
C6
FE
C6
CE
7C
ENDCHAR
STARTCHAR C021546
ENCODING 9062
SWIDTH 1400 0
DWIDTH 14 0
BBX 7 9 4 0
BITMAP
3E
30
30
FC
30
30
30
30
30
ENDCHAR
STARTCHAR C021547
ENCODING 9063
SWIDTH 1400 0
DWIDTH 14 0
BBX 7 9 4 -2
BITMAP
7E
EE
C6
C6
C6
EE
7E
C6
7C
ENDCHAR
STARTCHAR C021550
ENCODING 9064
SWIDTH 1400 0
DWIDTH 14 0
BBX 7 10 4 -1
BITMAP
C0
C0
FC
E6
C6
C6
C6
C6
C6
C0
ENDCHAR
STARTCHAR C021551
ENCODING 9065
SWIDTH 1400 0
DWIDTH 14 0
BBX 2 10 6 0
BITMAP
C0
00
C0
C0
C0
C0
C0
C0
C0
C0
ENDCHAR
STARTCHAR C021552
ENCODING 9066
SWIDTH 1400 0
DWIDTH 14 0
BBX 5 12 4 -2
BITMAP
18
00
18
18
18
18
18
18
18
18
18
F0
ENDCHAR
STARTCHAR C021553
ENCODING 9067
SWIDTH 1400 0
DWIDTH 14 0
BBX 6 9 5 0
BITMAP
C0
C0
D8
F0
E0
E0
F0
D8
CC
ENDCHAR
STARTCHAR C021554
ENCODING 9068
SWIDTH 1400 0
DWIDTH 14 0
BBX 2 9 7 0
BITMAP
C0
C0
C0
C0
C0
C0
C0
C0
C0
ENDCHAR
STARTCHAR C021555
ENCODING 9069
SWIDTH 1400 0
DWIDTH 14 0
BBX 9 8 3 0
BITMAP
3300
FF80
CD80
CD80
CD80
CD80
CD80
CD80
ENDCHAR
STARTCHAR C021556
ENCODING 9070
SWIDTH 1400 0
DWIDTH 14 0
BBX 6 7 4 0
BITMAP
F8
CC
CC
CC
CC
CC
CC
ENDCHAR
STARTCHAR C021557
ENCODING 9071
SWIDTH 1400 0
DWIDTH 14 0
BBX 7 8 4 0
BITMAP
7C
6C
C6
C6
C6
C6
6C
7C
ENDCHAR
STARTCHAR C021560
ENCODING 9072
SWIDTH 1400 0
DWIDTH 14 0
BBX 7 10 4 -2
BITMAP
C0
FC
EC
C6
C6
C6
C6
EC
F8
C0
ENDCHAR
STARTCHAR C021561
ENCODING 9073
SWIDTH 1400 0
DWIDTH 14 0
BBX 7 9 4 -2
BITMAP
7E
C6
C6
C6
C6
E6
7E
06
06
ENDCHAR
STARTCHAR C021562
ENCODING 9074
SWIDTH 1400 0
DWIDTH 14 0
BBX 6 7 5 0
BITMAP
FC
CC
C0
C0
C0
C0
C0
ENDCHAR
STARTCHAR C021563
ENCODING 9075
SWIDTH 1400 0
DWIDTH 14 0
BBX 7 8 4 0
BITMAP
78
CC
C0
70
1C
C6
66
7C
ENDCHAR
STARTCHAR C021564
ENCODING 9076
SWIDTH 1400 0
DWIDTH 14 0
BBX 6 9 5 0
BITMAP
60
60
F8
60
60
60
60
6C
38
ENDCHAR
STARTCHAR C021565
ENCODING 9077
SWIDTH 1400 0
DWIDTH 14 0
BBX 7 8 4 0
BITMAP
C6
C6
C6
C6
C6
C6
CE
7E
ENDCHAR
STARTCHAR C021566
ENCODING 9078
SWIDTH 1400 0
DWIDTH 14 0
BBX 7 7 4 0
BITMAP
C6
C6
6C
6C
78
38
38
ENDCHAR
STARTCHAR C021567
ENCODING 9079
SWIDTH 1400 0
DWIDTH 14 0
BBX 11 7 2 0
BITMAP
CE60
CEC0
7EC0
7EC0
7B80
3B80
3180
ENDCHAR
STARTCHAR C021570
ENCODING 9080
SWIDTH 1400 0
DWIDTH 14 0
BBX 7 7 4 0
BITMAP
C6
6C
38
38
38
6C
C6
ENDCHAR
STARTCHAR C021571
ENCODING 9081
SWIDTH 1400 0
DWIDTH 14 0
BBX 7 10 4 -2
BITMAP
C6
C6
CC
6C
78
38
38
30
30
E0
ENDCHAR
STARTCHAR C021572
ENCODING 9082
SWIDTH 1400 0
DWIDTH 14 0
BBX 7 8 4 0
BITMAP
FE
0C
18
18
30
60
C0
FE
ENDCHAR
STARTCHAR C021573
ENCODING 9083
SWIDTH 1400 0
DWIDTH 14 0
BBX 5 13 6 -2
BITMAP
70
60
60
60
60
60
C0
60
60
60
60
60
78
ENDCHAR
STARTCHAR C021574
ENCODING 9084
SWIDTH 1400 0
DWIDTH 14 0
BBX 0 0 0 0
BITMAP
ENDCHAR
STARTCHAR C021575
ENCODING 9085
SWIDTH 1400 0
DWIDTH 14 0
BBX 4 13 5 -2
BITMAP
E0
60
60
60
60
60
30
60
60
60
60
60
E0
ENDCHAR
STARTCHAR C021576
ENCODING 9086
SWIDTH 1400 0
DWIDTH 14 0
BBX 8 1 4 4
BITMAP
FF
ENDCHAR
STARTCHAR C021577
ENCODING 9087
SWIDTH 1400 0
DWIDTH 14 0
BBX 0 0 0 0
BITMAP
ENDCHAR
STARTCHAR C022041
ENCODING 9249
SWIDTH 1400 0
DWIDTH 14 0
BBX 9 7 3 0
BITMAP
FF80
0180
0180
0180
0180
0180
0180
ENDCHAR
STARTCHAR C022042
ENCODING 9250
SWIDTH 1400 0
DWIDTH 14 0
BBX 10 7 2 0
BITMAP
FFC0
18C0
18C0
18C0
18C0
18C0
18C0
ENDCHAR
STARTCHAR C022043
ENCODING 9251
SWIDTH 1400 0
DWIDTH 14 0
BBX 10 7 2 0
BITMAP
FB00
1B00
1B00
1B00
1F80
1EC0
1CC0
ENDCHAR
STARTCHAR C022044
ENCODING 9252
SWIDTH 1400 0
DWIDTH 14 0
BBX 9 7 3 0
BITMAP
C000
C000
C000
C000
C000
C000
FF80
ENDCHAR
STARTCHAR C022045
ENCODING 9253
SWIDTH 1400 0
DWIDTH 14 0
BBX 11 7 2 0
BITMAP
C7E0
C180
C180
C180
C3C0
C3C0
F660
ENDCHAR
STARTCHAR C022046
ENCODING 9254
SWIDTH 1400 0
DWIDTH 14 0
BBX 11 8 2 -1
BITMAP
C7C0
CFE0
C000
C3C0
C660
C660
F660
03C0
ENDCHAR
STARTCHAR C022047
ENCODING 9255
SWIDTH 1400 0
DWIDTH 14 0
BBX 9 7 3 0
BITMAP
FF80
C000
C000
C000
C000
C000
FF80
ENDCHAR
STARTCHAR C022050
ENCODING 9256
SWIDTH 1400 0
DWIDTH 14 0
BBX 11 7 2 0
BITMAP
FFC0
C600
C600
C600
C600
C600
FFE0
ENDCHAR
STARTCHAR C022051
ENCODING 9257
SWIDTH 1400 0
DWIDTH 14 0
BBX 9 7 3 0
BITMAP
FF80
0180
0180
FF80
C000
C000
FF80
ENDCHAR
STARTCHAR C022052
ENCODING 9258
SWIDTH 1400 0
DWIDTH 14 0
BBX 10 8 2 -1
BITMAP
FFC0
18C0
18C0
F8C0
C0C0
C0C0
CCC0
7800
ENDCHAR
STARTCHAR C022053
ENCODING 9259
SWIDTH 1400 0
DWIDTH 14 0
BBX 11 8 2 -1
BITMAP
FFE0
1E60
1E60
FE60
C660
C660
DFE0
7000
ENDCHAR
STARTCHAR C022054
ENCODING 9260
SWIDTH 1400 0
DWIDTH 14 0
BBX 11 8 2 -1
BITMAP
FE60
1E60
1E60
FFE0
C660
C660
DFE0
7000
ENDCHAR
STARTCHAR C022055
ENCODING 9261
SWIDTH 1400 0
DWIDTH 14 0
BBX 11 8 2 -1
BITMAP
F980
1980
1980
F980
C3C0
C360
DE60
7000
ENDCHAR
STARTCHAR C022056
ENCODING 9262
SWIDTH 1400 0
DWIDTH 14 0
BBX 11 8 2 -1
BITMAP
FFC0
1E00
1E00
FFC0
C600
C600
CFE0
7800
ENDCHAR
STARTCHAR C022057
ENCODING 9263
SWIDTH 1400 0
DWIDTH 14 0
BBX 12 8 2 -1
BITMAP
FFE0
1B60
1B60
FB60
C360
C3C0
DFF0
7000
ENDCHAR
STARTCHAR C022060
ENCODING 9264
SWIDTH 1400 0
DWIDTH 14 0
BBX 11 8 2 -1
BITMAP
FBC0
1FE0
1800
FBC0
C660
C660
DE60
73C0
ENDCHAR
STARTCHAR C022061
ENCODING 9265
SWIDTH 1400 0
DWIDTH 14 0
BBX 9 7 3 0
BITMAP
FF80
C180
C180
C180
C180
C180
FF80
ENDCHAR
STARTCHAR C022062
ENCODING 9266
SWIDTH 1400 0
DWIDTH 14 0
BBX 9 7 3 0
BITMAP
C180
C180
C180
FF80
C180
C180
FF80
ENDCHAR
STARTCHAR C022063
ENCODING 9267
SWIDTH 1400 0
DWIDTH 14 0
BBX 10 7 2 0
BITMAP
DEC0
DEC0
DEC0
FFC0
DEC0
DEC0
FFC0
ENDCHAR
STARTCHAR C022064
ENCODING 9268
SWIDTH 1400 0
DWIDTH 14 0
BBX 11 7 2 0
BITMAP
D980
D980
D980
F980
DBC0
DB60
FE60
ENDCHAR
STARTCHAR C022065
ENCODING 9269
SWIDTH 1400 0
DWIDTH 14 0
BBX 10 7 2 0
BITMAP
0C00
0C00
0C00
1E00
1E00
3380
E0C0
ENDCHAR
STARTCHAR C022066
ENCODING 9270
SWIDTH 1400 0
DWIDTH 14 0
BBX 11 8 2 -1
BITMAP
3180
3180
3180
3180
7980
7BC0
CE60
0600
ENDCHAR
STARTCHAR C022067
ENCODING 9271
SWIDTH 1400 0
DWIDTH 14 0
BBX 9 7 3 0
BITMAP
3E00
E380
C180
C180
C180
E380
3E00
ENDCHAR
STARTCHAR C022070
ENCODING 9272
SWIDTH 1400 0
DWIDTH 14 0
BBX 9 7 3 0
BITMAP
FF80
1800
1800
1C00
3600
6600
C380
ENDCHAR
STARTCHAR C022071
ENCODING 9273
SWIDTH 1400 0
DWIDTH 14 0
BBX 11 7 2 0
BITMAP
FFE0
3180
3180
7180
7BC0
6FC0
C660
ENDCHAR
STARTCHAR C022072
ENCODING 9274
SWIDTH 1400 0
DWIDTH 14 0
BBX 9 7 3 0
BITMAP
7E00
0000
FF80
1800
1C00
3600
E300
ENDCHAR
STARTCHAR C022073
ENCODING 9275
SWIDTH 1400 0
DWIDTH 14 0
BBX 10 6 2 1
BITMAP
FFC0
00C0
00C0
FFC0
00C0
00C0
ENDCHAR
STARTCHAR C022074
ENCODING 9276
SWIDTH 1400 0
DWIDTH 14 0
BBX 9 7 3 0
BITMAP
FF80
C000
C000
FF80
C000
C000
FF80
ENDCHAR
STARTCHAR C022075
ENCODING 9277
SWIDTH 1400 0
DWIDTH 14 0
BBX 10 7 2 0
BITMAP
7FC0
0000
3000
3300
3300
3300
FFC0
ENDCHAR
STARTCHAR C022076
ENCODING 9278
SWIDTH 1400 0
DWIDTH 14 0
BBX 10 9 2 -1
BITMAP
3F00
0000
FFC0
0000
1F00
3180
3180
3180
1F00
ENDCHAR
STARTCHAR C022077
ENCODING 9279
SWIDTH 1400 0
DWIDTH 14 0
BBX 4 1 6 3
BITMAP
F0
ENDCHAR
STARTCHAR C022100
ENCODING 9280
SWIDTH 1400 0
DWIDTH 14 0
BBX 5 12 5 -2
BITMAP
18
D8
D8
D8
D8
D8
F8
D8
D8
D8
D8
D8
ENDCHAR
STARTCHAR C022101
ENCODING 9281
SWIDTH 1400 0
DWIDTH 14 0
BBX 5 13 6 -3
BITMAP
C0
C0
C0
C0
F8
C0
C0
C0
F8
C0
C0
C0
C0
ENDCHAR
STARTCHAR C022102
ENCODING 9282
SWIDTH 1400 0
DWIDTH 14 0
BBX 5 12 5 -2
BITMAP
18
D8
D8
D8
F8
D8
D8
F8
D8
D8
D8
D8
ENDCHAR
STARTCHAR C022103
ENCODING 9283
SWIDTH 1400 0
DWIDTH 14 0
BBX 6 12 4 -2
BITMAP
0C
0C
0C
0C
0C
FC
0C
0C
0C
0C
0C
0C
ENDCHAR
STARTCHAR C022104
ENCODING 9284
SWIDTH 1400 0
DWIDTH 14 0
BBX 8 12 3 -2
BITMAP
1B
1B
1B
1B
1B
FB
1B
1B
1B
1B
1B
03
ENDCHAR
STARTCHAR C022105
ENCODING 9285
SWIDTH 1400 0
DWIDTH 14 0
BBX 6 12 4 -2
BITMAP
0C
0C
0C
0C
FC
0C
0C
0C
FC
0C
0C
0C
ENDCHAR
STARTCHAR C022106
ENCODING 9286
SWIDTH 1400 0
DWIDTH 14 0
BBX 8 13 3 -3
BITMAP
03
1B
1B
1B
FB
1B
1B
1B
FB
1B
1B
1B
03
ENDCHAR
STARTCHAR C022107
ENCODING 9287
SWIDTH 1400 0
DWIDTH 14 0
BBX 12 7 1 0
BITMAP
0600
0600
0600
0600
0600
0600
FFF0
ENDCHAR
STARTCHAR C022110
ENCODING 9288
SWIDTH 1400 0
DWIDTH 14 0
BBX 12 13 2 -3
BITMAP
0180
0180
0180
1980
1980
1980
19F0
1980
FF80
E180
0180
0180
0180
ENDCHAR
STARTCHAR C022111
ENCODING 9289
SWIDTH 1400 0
DWIDTH 14 0
BBX 12 12 1 -2
BITMAP
0030
01B0
01B0
19B0
19B0
19B0
19B0
19B0
FFB0
01B0
01B0
0030
ENDCHAR
STARTCHAR C022112
ENCODING 9290
SWIDTH 1400 0
DWIDTH 14 0
BBX 9 13 3 -3
BITMAP
0180
0180
0180
3180
3180
3180
3180
3180
FF80
0180
0180
0180
0180
ENDCHAR
STARTCHAR C022113
ENCODING 9291
SWIDTH 1400 0
DWIDTH 14 0
BBX 12 6 1 1
BITMAP
1980
1980
1980
1980
1980
FFF0
ENDCHAR
STARTCHAR C022114
ENCODING 9292
SWIDTH 1400 0
DWIDTH 14 0
BBX 12 10 1 -2
BITMAP
FFF0
0600
0600
0600
0600
0600
0600
0600
0600
0600
ENDCHAR
STARTCHAR C022115
ENCODING 9293
SWIDTH 1400 0
DWIDTH 14 0
BBX 10 12 2 -2
BITMAP
00C0
00C0
00C0
00C0
FFC0
18C0
1FC0
18C0
18C0
18C0
18C0
00C0
ENDCHAR
STARTCHAR C022116
ENCODING 9294
SWIDTH 1400 0
DWIDTH 14 0
BBX 12 12 1 -2
BITMAP
01B0
01B0
01B0
01B0
FFB0
19B0
1FB0
19B0
19B0
19B0
19B0
01B0
ENDCHAR
STARTCHAR C022117
ENCODING 9295
SWIDTH 1400 0
DWIDTH 14 0
BBX 10 12 2 -2
BITMAP
00C0
00C0
00C0
01C0
FFC0
0CC0
0CC0
0CC0
0CC0
0CC0
0CC0
00C0
ENDCHAR
STARTCHAR C022120
ENCODING 9296
SWIDTH 1400 0
DWIDTH 14 0
BBX 11 10 2 -2
BITMAP
FFE0
1B00
1B00
1B00
1B00
1B00
1B00
1B00
1B00
1B00
ENDCHAR
STARTCHAR C022121
ENCODING 9297
SWIDTH 1400 0
DWIDTH 14 0
BBX 11 1 2 3
BITMAP
FFE0
ENDCHAR
STARTCHAR C022122
ENCODING 9298
SWIDTH 1400 0
DWIDTH 14 0
BBX 10 12 2 -2
BITMAP
00C0
00C0
00C0
00C0
00C0
00C0
03C0
FEC0
00C0
00C0
00C0
00C0
ENDCHAR
STARTCHAR C022123
ENCODING 9299
SWIDTH 1400 0
DWIDTH 14 0
BBX 2 12 6 -2
BITMAP
C0
C0
C0
C0
C0
C0
C0
C0
C0
C0
C0
C0
ENDCHAR
STARTCHAR C022124
ENCODING 9300
SWIDTH 1400 0
DWIDTH 14 0
BBX 0 0 0 0
BITMAP
ENDCHAR
STARTCHAR C022125
ENCODING 9301
SWIDTH 1400 0
DWIDTH 14 0
BBX 11 7 2 0
BITMAP
C600
C600
C600
C600
C600
C600
F7E0
ENDCHAR
STARTCHAR C022126
ENCODING 9302
SWIDTH 1400 0
DWIDTH 14 0
BBX 11 7 2 0
BITMAP
C7E0
C600
C600
C600
C600
DE00
F7E0
ENDCHAR
STARTCHAR C022127
ENCODING 9303
SWIDTH 1400 0
DWIDTH 14 0
BBX 11 7 2 0
BITMAP
C180
C180
C180
C380
C3C0
C660
FC20
ENDCHAR
STARTCHAR C022130
ENCODING 9304
SWIDTH 1400 0
DWIDTH 14 0
BBX 11 7 2 0
BITMAP
C000
C380
C380
C780
C6C0
DEC0
F7E0
ENDCHAR
STARTCHAR C022131
ENCODING 9305
SWIDTH 1400 0
DWIDTH 14 0
BBX 12 7 2 0
BITMAP
FEC0
36C0
36C0
F6C0
C7E0
C7E0
FE30
ENDCHAR
STARTCHAR C022132
ENCODING 9306
SWIDTH 1400 0
DWIDTH 14 0
BBX 11 7 2 0
BITMAP
FFC0
1E00
1E00
FE00
C600
CE00
FFE0
ENDCHAR
STARTCHAR C022133
ENCODING 9307
SWIDTH 1400 0
DWIDTH 14 0
BBX 12 7 2 0
BITMAP
F3C0
3BC0
3BC0
FFC0
DBE0
DBE0
FF30
ENDCHAR
STARTCHAR C022134
ENCODING 9308
SWIDTH 1400 0
DWIDTH 14 0
BBX 11 7 2 0
BITMAP
F980
1980
1B80
FBC0
C6C0
C660
FFE0
ENDCHAR
STARTCHAR C022135
ENCODING 9309
SWIDTH 1400 0
DWIDTH 14 0
BBX 11 7 2 0
BITMAP
FFE0
1800
1BC0
FE60
C660
C660
FFC0
ENDCHAR
STARTCHAR C022136
ENCODING 9310
SWIDTH 1400 0
DWIDTH 14 0
BBX 11 7 2 0
BITMAP
FB60
DB60
DB60
DBE0
DB60
DB60
FBE0
ENDCHAR
STARTCHAR C022137
ENCODING 9311
SWIDTH 1400 0
DWIDTH 14 0
BBX 11 7 2 0
BITMAP
F980
D980
D980
D980
DBC0
DB40
FE20
ENDCHAR
STARTCHAR C022140
ENCODING 9312
SWIDTH 1400 0
DWIDTH 14 0
BBX 11 7 2 0
BITMAP
F980
D980
DB80
DBC0
DEC0
DE60
FFE0
ENDCHAR
STARTCHAR C022141
ENCODING 9313
SWIDTH 1400 0
DWIDTH 14 0
BBX 7 10 4 -2
BITMAP
FE
C6
C6
C6
FE
7C
C6
C6
C6
7C
ENDCHAR
STARTCHAR C022142
ENCODING 9314
SWIDTH 1400 0
DWIDTH 14 0
BBX 11 7 2 0
BITMAP
DFE0
D860
D860
F860
D860
D860
F860
ENDCHAR
STARTCHAR C022143
ENCODING 9315
SWIDTH 1400 0
DWIDTH 14 0
BBX 11 7 2 0
BITMAP
DBE0
DB00
DB00
FB00
DB00
DB00
FBE0
ENDCHAR
STARTCHAR C022144
ENCODING 9316
SWIDTH 1400 0
DWIDTH 14 0
BBX 11 7 2 0
BITMAP
F7E0
F660
F660
F660
FF60
FF60
F1E0
ENDCHAR
STARTCHAR C022145
ENCODING 9317
SWIDTH 1400 0
DWIDTH 14 0
BBX 11 7 2 0
BITMAP
FDE0
FD80
FD80
FD80
FF80
FF80
F3E0
ENDCHAR
STARTCHAR C022146
ENCODING 9318
SWIDTH 1400 0
DWIDTH 14 0
BBX 11 7 2 0
BITMAP
DFE0
D980
D980
F980
DBC0
DE60
FE60
ENDCHAR
STARTCHAR C022147
ENCODING 9319
SWIDTH 1400 0
DWIDTH 14 0
BBX 12 7 2 0
BITMAP
DBF0
DB00
DB00
FBE0
DB00
DB00
FBF0
ENDCHAR
STARTCHAR C022150
ENCODING 9320
SWIDTH 1400 0
DWIDTH 14 0
BBX 7 11 4 -2
BITMAP
C6
C6
FE
C6
C6
FE
00
7C
C6
C6
7C
ENDCHAR
STARTCHAR C022151
ENCODING 9321
SWIDTH 1400 0
DWIDTH 14 0
BBX 9 11 3 -2
BITMAP
FD80
FD80
FF80
FD80
FD80
FF80
0000
3E00
6300
6300
3E00
ENDCHAR
STARTCHAR C022152
ENCODING 9322
SWIDTH 1400 0
DWIDTH 14 0
BBX 11 7 2 0
BITMAP
37E0
3060
3060
7060
7860
CC60
C060
ENDCHAR
STARTCHAR C022153
ENCODING 9323
SWIDTH 1400 0
DWIDTH 14 0
BBX 11 7 2 0
BITMAP
3600
3600
3600
3600
7E00
6E00
C7E0
ENDCHAR
STARTCHAR C022154
ENCODING 9324
SWIDTH 1400 0
DWIDTH 14 0
BBX 11 7 2 0
BITMAP
37E0
3600
3600
7600
7E00
CE00
C7E0
ENDCHAR
STARTCHAR C022155
ENCODING 9325
SWIDTH 1400 0
DWIDTH 14 0
BBX 11 7 2 0
BITMAP
3060
3660
3660
37E0
7E60
6E60
C7E0
ENDCHAR
STARTCHAR C022156
ENCODING 9326
SWIDTH 1400 0
DWIDTH 14 0
BBX 11 7 2 0
BITMAP
37E0
3180
3180
7180
7BC0
C660
C660
ENDCHAR
STARTCHAR C022157
ENCODING 9327
SWIDTH 1400 0
DWIDTH 14 0
BBX 9 7 3 -1
BITMAP
1C00
3C00
7600
6600
C300
FF00
0180
ENDCHAR
STARTCHAR C022160
ENCODING 9328
SWIDTH 1400 0
DWIDTH 14 0
BBX 11 7 2 0
BITMAP
73C0
DE60
DE60
DE60
DE60
DE60
73C0
ENDCHAR
STARTCHAR C022161
ENCODING 9329
SWIDTH 1400 0
DWIDTH 14 0
BBX 9 9 3 -1
BITMAP
1800
1800
7E00
E300
C180
C180
C180
6300
3E00
ENDCHAR
STARTCHAR C022162
ENCODING 9330
SWIDTH 1400 0
DWIDTH 14 0
BBX 12 7 2 0
BITMAP
3180
3180
F980
D980
DBC0
DB60
7630
ENDCHAR
STARTCHAR C022163
ENCODING 9331
SWIDTH 1400 0
DWIDTH 14 0
BBX 11 7 2 0
BITMAP
3000
3180
FB80
DBC0
DEC0
DEC0
77E0
ENDCHAR
STARTCHAR C022164
ENCODING 9332
SWIDTH 1400 0
DWIDTH 14 0
BBX 9 11 3 -2
BITMAP
FF80
0000
0600
6600
3600
FF80
3E00
6300
6300
6300
3E00
ENDCHAR
STARTCHAR C022165
ENCODING 9333
SWIDTH 1400 0
DWIDTH 14 0
BBX 12 9 1 -1
BITMAP
79F0
0000
FFF0
0000
39E0
6F30
6F30
6F30
39E0
ENDCHAR
STARTCHAR C022166
ENCODING 9334
SWIDTH 1400 0
DWIDTH 14 0
BBX 11 9 2 -1
BITMAP
FFE0
0000
0000
1F00
3380
3180
3180
3380
1F00
ENDCHAR
STARTCHAR C022167
ENCODING 9335
SWIDTH 1400 0
DWIDTH 14 0
BBX 11 12 2 -2
BITMAP
0180
0180
0180
3D80
3DE0
3D80
3D80
3D80
FFE0
C180
0180
0180
ENDCHAR
STARTCHAR C022170
ENCODING 9336
SWIDTH 1400 0
DWIDTH 14 0
BBX 10 13 2 -3
BITMAP
00C0
03C0
03C0
6FC0
6FC0
6FC0
6FC0
6FC0
FFC0
03C0
03C0
03C0
00C0
ENDCHAR
STARTCHAR C022171
ENCODING 9337
SWIDTH 1400 0
DWIDTH 14 0
BBX 9 12 2 -2
BITMAP
0180
0180
0180
3D80
3D80
3D80
3D80
3D80
FF80
0180
0180
0180
ENDCHAR
STARTCHAR C022172
ENCODING 9338
SWIDTH 1400 0
DWIDTH 14 0
BBX 10 12 2 -2
BITMAP
00C0
00C0
00C0
00C0
FFC0
3CC0
3FC0
3CC0
3FC0
3CC0
3CC0
3CC0
ENDCHAR
STARTCHAR C022173
ENCODING 9339
SWIDTH 1400 0
DWIDTH 14 0
BBX 10 12 2 -2
BITMAP
00C0
03C0
03C0
03C0
03C0
FBC0
7FC0
7BC0
7FC0
7BC0
7BC0
7BC0
ENDCHAR
STARTCHAR C022174
ENCODING 9340
SWIDTH 1400 0
DWIDTH 14 0
BBX 10 12 2 -2
BITMAP
00C0
00C0
00C0
00C0
01C0
FFC0
36C0
36C0
36C0
36C0
36C0
36C0
ENDCHAR
STARTCHAR C022175
ENCODING 9341
SWIDTH 1400 0
DWIDTH 14 0
BBX 3 2 6 3
BITMAP
E0
E0
ENDCHAR
STARTCHAR C022176
ENCODING 9342
SWIDTH 1400 0
DWIDTH 14 0
BBX 7 12 4 -2
BITMAP
06
06
06
06
06
E6
E6
06
06
06
06
06
ENDCHAR
STARTCHAR C022177
ENCODING 9343
SWIDTH 1400 0
DWIDTH 14 0
BBX 0 0 0 0
BITMAP
ENDCHAR
STARTCHAR C022441
ENCODING 9505
SWIDTH 1400 0
DWIDTH 14 0
BBX 2 10 6 0
BITMAP
C0
00
00
C0
C0
C0
C0
C0
C0
C0
ENDCHAR
STARTCHAR C022442
ENCODING 9506
SWIDTH 1400 0
DWIDTH 14 0
BBX 6 10 4 0
BITMAP
CC
00
00
6C
6C
6C
6C
6C
6C
6C
ENDCHAR
STARTCHAR C022443
ENCODING 9507
SWIDTH 1400 0
DWIDTH 14 0
BBX 8 10 3 0
BITMAP
DB
00
00
7B
7B
7B
7B
7B
7B
7B
ENDCHAR
STARTCHAR C022444
ENCODING 9508
SWIDTH 1400 0
DWIDTH 14 0
BBX 7 10 4 0
BITMAP
C0
00
00
F6
F6
F6
DC
DC
CC
C0
ENDCHAR
STARTCHAR C022445
ENCODING 9509
SWIDTH 1400 0
DWIDTH 14 0
BBX 7 6 4 1
BITMAP
C6
EE
6C
7C
38
38
ENDCHAR
STARTCHAR C022446
ENCODING 9510
SWIDTH 1400 0
DWIDTH 14 0
BBX 8 10 3 0
BITMAP
03
00
00
CF
DB
DB
7B
73
33
33
ENDCHAR
STARTCHAR C022447
ENCODING 9511
SWIDTH 1400 0
DWIDTH 14 0
BBX 10 10 2 0
BITMAP
03C0
0000
0000
03C0
DBC0
7BC0
73C0
33C0
33C0
33C0
ENDCHAR
STARTCHAR C022450
ENCODING 9512
SWIDTH 1400 0
DWIDTH 14 0
BBX 11 10 2 0
BITMAP
07C0
0000
0000
DFE0
F7E0
F7E0
F7E0
77E0
67E0
67E0
ENDCHAR
STARTCHAR C022451
ENCODING 9513
SWIDTH 1400 0
DWIDTH 14 0
BBX 7 10 4 0
BITMAP
C0
00
00
F0
F6
DC
CC
DC
DE
F6
ENDCHAR
STARTCHAR C022452
ENCODING 9514
SWIDTH 1400 0
DWIDTH 14 0
BBX 5 7 5 0
BITMAP
18
F0
70
60
70
F0
18
ENDCHAR
STARTCHAR C022453
ENCODING 9515
SWIDTH 1400 0
DWIDTH 14 0
BBX 0 0 0 0
BITMAP
ENDCHAR
STARTCHAR C022454
ENCODING 9516
SWIDTH 1400 0
DWIDTH 14 0
BBX 0 0 0 0
BITMAP
ENDCHAR
STARTCHAR C022455
ENCODING 9517
SWIDTH 1400 0
DWIDTH 14 0
BBX 0 0 0 0
BITMAP
ENDCHAR
STARTCHAR C022460
ENCODING 9520
SWIDTH 1400 0
DWIDTH 14 0
BBX 2 10 6 0
BITMAP
C0
C0
C0
C0
C0
C0
C0
C0
C0
C0
ENDCHAR
STARTCHAR C022461
ENCODING 9521
SWIDTH 1400 0
DWIDTH 14 0
BBX 6 10 4 0
BITMAP
CC
CC
CC
CC
CC
CC
CC
CC
CC
CC
ENDCHAR
STARTCHAR C022462
ENCODING 9522
SWIDTH 1400 0
DWIDTH 14 0
BBX 9 10 3 0
BITMAP
D980
D980
D980
D980
D980
D980
D980
D980
D980
D980
ENDCHAR
STARTCHAR C022463
ENCODING 9523
SWIDTH 1400 0
DWIDTH 14 0
BBX 9 10 3 0
BITMAP
F180
F300
DB00
DB00
DB00
DE00
CE00
CE00
C600
C000
ENDCHAR
STARTCHAR C022464
ENCODING 9524
SWIDTH 1400 0
DWIDTH 14 0
BBX 7 9 4 1
BITMAP
C6
CC
CC
6C
78
78
38
38
30
ENDCHAR
STARTCHAR C022465
ENCODING 9525
SWIDTH 1400 0
DWIDTH 14 0
BBX 8 10 3 0
BITMAP
CF
CF
DB
DB
7B
7B
7B
33
33
33
ENDCHAR
STARTCHAR C022466
ENCODING 9526
SWIDTH 1400 0
DWIDTH 14 0
BBX 10 10 2 0
BITMAP
CFC0
CFC0
DBC0
DBC0
7BC0
7BC0
73C0
33C0
33C0
33C0
ENDCHAR
STARTCHAR C022467
ENCODING 9527
SWIDTH 1400 0
DWIDTH 14 0
BBX 11 10 2 0
BITMAP
1FE0
DFE0
DFE0
F7E0
F7E0
F7E0
77E0
77E0
67E0
07E0
ENDCHAR
STARTCHAR C022470
ENCODING 9528
SWIDTH 1400 0
DWIDTH 14 0
BBX 8 10 3 0
BITMAP
C0
DB
DE
CE
CE
CC
CE
DE
DB
DB
ENDCHAR
STARTCHAR C022471
ENCODING 9529
SWIDTH 1400 0
DWIDTH 14 0
BBX 6 10 4 0
BITMAP
CC
EC
78
38
30
30
38
78
EC
CC
ENDCHAR
STARTCHAR C022472
ENCODING 9530
SWIDTH 1400 0
DWIDTH 14 0
BBX 0 0 0 0
BITMAP
ENDCHAR
STARTCHAR C022473
ENCODING 9531
SWIDTH 1400 0
DWIDTH 14 0
BBX 0 0 0 0
BITMAP
ENDCHAR
STARTCHAR C022474
ENCODING 9532
SWIDTH 1400 0
DWIDTH 14 0
BBX 0 0 0 0
BITMAP
ENDCHAR
STARTCHAR C022475
ENCODING 9533
SWIDTH 1400 0
DWIDTH 14 0
BBX 0 0 0 0
BITMAP
ENDCHAR
STARTCHAR C022500
ENCODING 9536
SWIDTH 1400 0
DWIDTH 14 0
BBX 0 0 0 0
BITMAP
ENDCHAR
STARTCHAR C022501
ENCODING 9537
SWIDTH 1400 0
DWIDTH 14 0
BBX 8 9 4 0
BITMAP
06
1E
1E
36
66
67
7F
C3
03
ENDCHAR
STARTCHAR C022502
ENCODING 9538
SWIDTH 1400 0
DWIDTH 14 0
BBX 9 10 3 0
BITMAP
1F00
3180
3180
3300
3F00
6600
6300
6300
C300
FE00
ENDCHAR
STARTCHAR C022503
ENCODING 9539
SWIDTH 1400 0
DWIDTH 14 0
BBX 9 10 3 0
BITMAP
1F80
3000
3000
3000
6000
6000
6000
C000
C000
C000
ENDCHAR
STARTCHAR C022504
ENCODING 9540
SWIDTH 1400 0
DWIDTH 14 0
BBX 9 10 2 0
BITMAP
0180
0380
0780
0D80
1980
1980
3180
6180
E180
FF80
ENDCHAR
STARTCHAR C022505
ENCODING 9541
SWIDTH 1400 0
DWIDTH 14 0
BBX 9 10 3 0
BITMAP
1F80
3000
3000
6000
7E00
6000
6000
C000
C000
FE00
ENDCHAR
STARTCHAR C022506
ENCODING 9542
SWIDTH 1400 0
DWIDTH 14 0
BBX 9 10 3 0
BITMAP
3F80
0300
0600
0600
0C00
1800
3000
6000
C000
FF00
ENDCHAR
STARTCHAR C022507
ENCODING 9543
SWIDTH 1400 0
DWIDTH 14 0
BBX 10 10 2 -1
BITMAP
70C0
70C0
30C0
3180
3F80
6180
6180
6300
C300
C300
ENDCHAR
STARTCHAR C022510
ENCODING 9544
SWIDTH 1400 0
DWIDTH 14 0
BBX 9 11 3 -1
BITMAP
3E00
7300
6180
C180
C180
FF00
C300
C300
C600
7C00
1800
ENDCHAR
STARTCHAR C022511
ENCODING 9545
SWIDTH 1400 0
DWIDTH 14 0
BBX 3 9 6 1
BITMAP
60
60
60
60
C0
C0
C0
C0
C0
ENDCHAR
STARTCHAR C022512
ENCODING 9546
SWIDTH 1400 0
DWIDTH 14 0
BBX 8 10 4 0
BITMAP
63
66
6C
D8
F0
F8
D8
CC
CC
06
ENDCHAR
STARTCHAR C022513
ENCODING 9547
SWIDTH 1400 0
DWIDTH 14 0
BBX 7 10 4 0
BITMAP
18
18
38
6C
6C
CC
CC
CC
06
06
ENDCHAR
STARTCHAR C022514
ENCODING 9548
SWIDTH 1400 0
DWIDTH 14 0
BBX 10 10 2 0
BITMAP
30C0
30C0
71C0
73C0
7BC0
7EC0
7F80
DD80
CD80
C180
ENDCHAR
STARTCHAR C022515
ENCODING 9549
SWIDTH 1400 0
DWIDTH 14 0
BBX 9 10 3 0
BITMAP
3180
3300
7300
7B00
7B00
7B00
CF00
CE00
C600
C600
ENDCHAR
STARTCHAR C022516
ENCODING 9550
SWIDTH 1400 0
DWIDTH 14 0
BBX 9 10 3 0
BITMAP
3F80
0000
0000
0000
3E00
0000
0000
0000
0000
FE00
ENDCHAR
STARTCHAR C022517
ENCODING 9551
SWIDTH 1400 0
DWIDTH 14 0
BBX 9 10 3 0
BITMAP
1E00
7300
6300
C180
C180
C300
C300
C300
C600
7C00
ENDCHAR
STARTCHAR C022520
ENCODING 9552
SWIDTH 1400 0
DWIDTH 14 0
BBX 9 10 3 0
BITMAP
7F80
6300
6300
6300
C300
C300
C300
C600
C600
C600
ENDCHAR
STARTCHAR C022521
ENCODING 9553
SWIDTH 1400 0
DWIDTH 14 0
BBX 8 11 3 -1
BITMAP
3E
33
33
63
63
7E
60
60
C0
C0
C0
ENDCHAR
STARTCHAR C022522
ENCODING 9554
SWIDTH 1400 0
DWIDTH 14 0
BBX 9 10 3 0
BITMAP
3F80
3000
1800
1800
0C00
0C00
1800
3000
6000
FF00
ENDCHAR
STARTCHAR C022523
ENCODING 9555
SWIDTH 1400 0
DWIDTH 14 0
BBX 7 10 4 0
BITMAP
FE
30
30
30
30
30
60
60
60
60
ENDCHAR
STARTCHAR C022524
ENCODING 9556
SWIDTH 1400 0
DWIDTH 14 0
BBX 7 10 4 0
BITMAP
C0
C6
CC
6C
78
30
30
30
60
60
ENDCHAR
STARTCHAR C022525
ENCODING 9557
SWIDTH 1400 0
DWIDTH 14 0
BBX 9 9 3 0
BITMAP
3F00
7F80
CD80
D980
D980
D980
FB80
7E00
1800
ENDCHAR
STARTCHAR C022526
ENCODING 9558
SWIDTH 1400 0
DWIDTH 14 0
BBX 8 10 3 0
BITMAP
33
36
36
1C
18
3C
3C
6C
C6
C6
ENDCHAR
STARTCHAR C022527
ENCODING 9559
SWIDTH 1400 0
DWIDTH 14 0
BBX 9 10 3 0
BITMAP
CD80
D980
D980
D980
DB00
DB00
7E00
3000
3000
3000
ENDCHAR
STARTCHAR C022530
ENCODING 9560
SWIDTH 1400 0
DWIDTH 14 0
BBX 10 10 2 0
BITMAP
0F00
3980
30C0
60C0
60C0
60C0
6180
3300
3600
F780
ENDCHAR
STARTCHAR C022531
ENCODING 9561
SWIDTH 1400 0
DWIDTH 14 0
BBX 0 0 0 0
BITMAP
ENDCHAR
STARTCHAR C022532
ENCODING 9562
SWIDTH 1400 0
DWIDTH 14 0
BBX 0 0 0 0
BITMAP
ENDCHAR
STARTCHAR C022533
ENCODING 9563
SWIDTH 1400 0
DWIDTH 14 0
BBX 0 0 0 0
BITMAP
ENDCHAR
STARTCHAR C022536
ENCODING 9566
SWIDTH 1400 0
DWIDTH 14 0
BBX 0 0 0 0
BITMAP
ENDCHAR
STARTCHAR C022537
ENCODING 9567
SWIDTH 1400 0
DWIDTH 14 0
BBX 0 0 0 0
BITMAP
ENDCHAR
STARTCHAR C022541
ENCODING 9569
SWIDTH 1400 0
DWIDTH 14 0
BBX 7 8 4 0
BITMAP
3E
6E
CC
CC
CC
CC
DC
70
ENDCHAR
STARTCHAR C022542
ENCODING 9570
SWIDTH 1400 0
DWIDTH 14 0
BBX 7 12 4 -2
BITMAP
1E
76
66
6C
78
CC
C6
C6
6C
FC
C0
C0
ENDCHAR
STARTCHAR C022543
ENCODING 9571
SWIDTH 1400 0
DWIDTH 14 0
BBX 7 10 4 -2
BITMAP
C6
EC
6C
78
78
78
70
70
70
60
ENDCHAR
STARTCHAR C022544
ENCODING 9572
SWIDTH 1400 0
DWIDTH 14 0
BBX 7 11 4 0
BITMAP
7E
30
18
38
6C
CC
CC
CC
CC
D8
70
ENDCHAR
STARTCHAR C022545
ENCODING 9573
SWIDTH 1400 0
DWIDTH 14 0
BBX 7 8 4 0
BITMAP
3C
66
66
38
E0
C0
CC
78
ENDCHAR
STARTCHAR C022546
ENCODING 9574
SWIDTH 1400 0
DWIDTH 14 0
BBX 7 13 4 -2
BITMAP
7E
0C
0C
18
30
60
C0
C0
C0
60
38
0C
38
ENDCHAR
STARTCHAR C022547
ENCODING 9575
SWIDTH 1400 0
DWIDTH 14 0
BBX 6 9 4 -1
BITMAP
FC
7C
6C
CC
CC
CC
CC
CC
18
ENDCHAR
STARTCHAR C022550
ENCODING 9576
SWIDTH 1400 0
DWIDTH 14 0
BBX 7 11 4 0
BITMAP
3C
66
66
C6
C6
FE
CC
CC
CC
D8
78
ENDCHAR
STARTCHAR C022551
ENCODING 9577
SWIDTH 1400 0
DWIDTH 14 0
BBX 3 8 6 0
BITMAP
60
C0
C0
C0
C0
C0
C0
E0
ENDCHAR
STARTCHAR C022552
ENCODING 9578
SWIDTH 1400 0
DWIDTH 14 0
BBX 7 8 4 0
BITMAP
66
7C
70
70
78
D8
D8
CC
ENDCHAR
STARTCHAR C022553
ENCODING 9579
SWIDTH 1400 0
DWIDTH 14 0
BBX 8 10 4 0
BITMAP
38
1C
1C
1C
3C
3C
6C
6E
CE
C7
ENDCHAR
STARTCHAR C022554
ENCODING 9580
SWIDTH 1400 0
DWIDTH 14 0
BBX 7 10 4 -2
BITMAP
66
66
6C
6C
CC
CC
DC
FE
C0
C0
ENDCHAR
STARTCHAR C022555
ENCODING 9581
SWIDTH 1400 0
DWIDTH 14 0
BBX 6 8 5 0
BITMAP
CC
D8
D8
F0
F0
F0
E0
E0
ENDCHAR
STARTCHAR C022556
ENCODING 9582
SWIDTH 1400 0
DWIDTH 14 0
BBX 7 13 4 -2
BITMAP
7E
30
60
60
30
38
E0
C0
C0
F0
18
18
78
ENDCHAR
STARTCHAR C022557
ENCODING 9583
SWIDTH 1400 0
DWIDTH 14 0
BBX 7 8 4 0
BITMAP
38
6C
CC
C6
CC
CC
CC
78
ENDCHAR
STARTCHAR C022560
ENCODING 9584
SWIDTH 1400 0
DWIDTH 14 0
BBX 7 8 4 0
BITMAP
FE
6C
CC
CC
CC
CC
D8
C0
ENDCHAR
STARTCHAR C022561
ENCODING 9585
SWIDTH 1400 0
DWIDTH 14 0
BBX 7 10 4 -2
BITMAP
18
3E
66
66
66
C6
EC
F8
C0
C0
ENDCHAR
STARTCHAR C022562
ENCODING 9586
SWIDTH 1400 0
DWIDTH 14 0
BBX 8 8 4 0
BITMAP
3F
6C
CC
C6
CC
CC
CC
78
ENDCHAR
STARTCHAR C022563
ENCODING 9587
SWIDTH 1400 0
DWIDTH 14 0
BBX 5 8 5 0
BITMAP
F8
60
60
60
60
60
60
70
ENDCHAR
STARTCHAR C022564
ENCODING 9588
SWIDTH 1400 0
DWIDTH 14 0
BBX 6 8 4 0
BITMAP
60
6C
CC
CC
CC
CC
D8
78
ENDCHAR
STARTCHAR C022565
ENCODING 9589
SWIDTH 1400 0
DWIDTH 14 0
BBX 8 10 4 -2
BITMAP
36
7F
DB
DB
DB
DB
F6
7C
30
30
ENDCHAR
STARTCHAR C022566
ENCODING 9590
SWIDTH 1400 0
DWIDTH 14 0
BBX 7 10 4 -2
BITMAP
E6
6C
38
38
30
30
78
78
D8
CC
ENDCHAR
STARTCHAR C022567
ENCODING 9591
SWIDTH 1400 0
DWIDTH 14 0
BBX 9 9 3 -1
BITMAP
0D80
6D80
DB00
DB00
DB00
DB00
DB00
7E00
3000
ENDCHAR
STARTCHAR C022570
ENCODING 9592
SWIDTH 1400 0
DWIDTH 14 0
BBX 8 8 3 0
BITMAP
1E
73
63
C3
DB
DB
FB
7E
ENDCHAR
STARTCHAR C022571
ENCODING 9593
SWIDTH 1400 0
DWIDTH 14 0
BBX 0 0 0 0
BITMAP
ENDCHAR
STARTCHAR C023041
ENCODING 9761
SWIDTH 1400 0
DWIDTH 14 0
BBX 14 1 0 4
BITMAP
FFFC
ENDCHAR
STARTCHAR C023042
ENCODING 9762
SWIDTH 1400 0
DWIDTH 14 0
BBX 2 14 6 -3
BITMAP
C0
C0
C0
C0
C0
C0
C0
C0
C0
C0
C0
C0
C0
C0
ENDCHAR
STARTCHAR C023043
ENCODING 9763
SWIDTH 1400 0
DWIDTH 14 0
BBX 8 8 6 -3
BITMAP
FF
C0
C0
C0
C0
C0
C0
C0
ENDCHAR
STARTCHAR C023044
ENCODING 9764
SWIDTH 1400 0
DWIDTH 14 0
BBX 8 8 0 -3
BITMAP
FF
03
03
03
03
03
03
03
ENDCHAR
STARTCHAR C023045
ENCODING 9765
SWIDTH 1400 0
DWIDTH 14 0
BBX 8 7 0 4
BITMAP
03
03
03
03
03
03
FF
ENDCHAR
STARTCHAR C023046
ENCODING 9766
SWIDTH 1400 0
DWIDTH 14 0
BBX 8 7 6 4
BITMAP
C0
C0
C0
C0
C0
C0
FF
ENDCHAR
STARTCHAR C023047
ENCODING 9767
SWIDTH 1400 0
DWIDTH 14 0
BBX 8 14 6 -3
BITMAP
C0
C0
C0
C0
C0
C0
FF
C0
C0
C0
C0
C0
C0
C0
ENDCHAR
STARTCHAR C023050
ENCODING 9768
SWIDTH 1400 0
DWIDTH 14 0
BBX 15 8 0 -3
BITMAP
FFFE
0180
0180
0180
0180
0180
0180
0180
ENDCHAR
STARTCHAR C023051
ENCODING 9769
SWIDTH 1400 0
DWIDTH 14 0
BBX 8 14 0 -3
BITMAP
03
03
03
03
03
03
FF
03
03
03
03
03
03
03
ENDCHAR
STARTCHAR C023052
ENCODING 9770
SWIDTH 1400 0
DWIDTH 14 0
BBX 14 7 0 4
BITMAP
0300
0300
0300
0300
0300
0300
FFFC
ENDCHAR
STARTCHAR C023053
ENCODING 9771
SWIDTH 1400 0
DWIDTH 14 0
BBX 14 14 0 -3
BITMAP
0300
0300
0300
0300
0300
0300
FFFC
0300
0300
0300
0300
0300
0300
0300
ENDCHAR
STARTCHAR C023054
ENCODING 9772
SWIDTH 1400 0
DWIDTH 14 0
BBX 14 1 0 4
BITMAP
FFFC
ENDCHAR
STARTCHAR C023055
ENCODING 9773
SWIDTH 1400 0
DWIDTH 14 0
BBX 2 14 6 -3
BITMAP
C0
C0
C0
C0
C0
C0
C0
C0
C0
C0
C0
C0
C0
C0
ENDCHAR
STARTCHAR C023056
ENCODING 9774
SWIDTH 1400 0
DWIDTH 14 0
BBX 7 8 7 -3
BITMAP
FE
C0
C0
C0
C0
C0
C0
C0
ENDCHAR
STARTCHAR C023057
ENCODING 9775
SWIDTH 1400 0
DWIDTH 14 0
BBX 8 8 0 -3
BITMAP
FF
03
03
03
03
03
03
03
ENDCHAR
STARTCHAR C023060
ENCODING 9776
SWIDTH 1400 0
DWIDTH 14 0
BBX 8 7 0 4
BITMAP
03
03
03
03
03
03
FF
ENDCHAR
STARTCHAR C023061
ENCODING 9777
SWIDTH 1400 0
DWIDTH 14 0
BBX 8 7 6 4
BITMAP
C0
C0
C0
C0
C0
C0
FF
ENDCHAR
STARTCHAR C023062
ENCODING 9778
SWIDTH 1400 0
DWIDTH 14 0
BBX 8 14 6 -3
BITMAP
C0
C0
C0
C0
C0
C0
FF
C0
C0
C0
C0
C0
C0
C0
ENDCHAR
STARTCHAR C023063
ENCODING 9779
SWIDTH 1400 0
DWIDTH 14 0
BBX 14 8 0 -3
BITMAP
FFFC
0300
0300
0300
0300
0300
0300
0300
ENDCHAR
STARTCHAR C023064
ENCODING 9780
SWIDTH 1400 0
DWIDTH 14 0
BBX 8 14 0 -3
BITMAP
03
03
03
03
03
03
FF
03
03
03
03
03
03
03
ENDCHAR
STARTCHAR C023065
ENCODING 9781
SWIDTH 1400 0
DWIDTH 14 0
BBX 14 7 0 4
BITMAP
0300
0300
0300
0300
0300
0300
FFFC
ENDCHAR
STARTCHAR C023066
ENCODING 9782
SWIDTH 1400 0
DWIDTH 14 0
BBX 14 14 0 -3
BITMAP
0300
0300
0300
0300
0300
0300
FFFC
0300
0300
0300
0300
0300
0300
0300
ENDCHAR
STARTCHAR C023067
ENCODING 9783
SWIDTH 1400 0
DWIDTH 14 0
BBX 8 14 6 -3
BITMAP
C0
C0
C0
C0
C0
C0
FF
C0
C0
C0
C0
C0
C0
C0
ENDCHAR
STARTCHAR C023070
ENCODING 9784
SWIDTH 1400 0
DWIDTH 14 0
BBX 14 8 0 -3
BITMAP
FFFC
0300
0300
0300
0300
0300
0300
0300
ENDCHAR
STARTCHAR C023071
ENCODING 9785
SWIDTH 1400 0
DWIDTH 14 0
BBX 8 14 0 -3
BITMAP
03
03
03
03
03
03
FF
03
03
03
03
03
03
03
ENDCHAR
STARTCHAR C023072
ENCODING 9786
SWIDTH 1400 0
DWIDTH 14 0
BBX 14 7 0 4
BITMAP
0300
0300
0300
0300
0300
0300
FFFC
ENDCHAR
STARTCHAR C023073
ENCODING 9787
SWIDTH 1400 0
DWIDTH 14 0
BBX 14 14 0 -3
BITMAP
0300
0300
0300
0300
0300
0300
FFFC
0300
0300
0300
0300
0300
0300
0300
ENDCHAR
STARTCHAR C023074
ENCODING 9788
SWIDTH 1400 0
DWIDTH 14 0
BBX 8 14 6 -3
BITMAP
C0
C0
C0
C0
C0
C0
FF
C0
C0
C0
C0
C0
C0
C0
ENDCHAR
STARTCHAR C023075
ENCODING 9789
SWIDTH 1400 0
DWIDTH 14 0
BBX 14 8 0 -3
BITMAP
FFFC
0300
0300
0300
0300
0300
0300
0300
ENDCHAR
STARTCHAR C023076
ENCODING 9790
SWIDTH 1400 0
DWIDTH 14 0
BBX 8 14 0 -3
BITMAP
03
03
03
03
03
03
FF
03
03
03
03
03
03
03
ENDCHAR
STARTCHAR C023077
ENCODING 9791
SWIDTH 1400 0
DWIDTH 14 0
BBX 14 7 0 4
BITMAP
0300
0300
0300
0300
0300
0300
FFFC
ENDCHAR
STARTCHAR C023100
ENCODING 9792
SWIDTH 1400 0
DWIDTH 14 0
BBX 14 14 0 -3
BITMAP
0300
0300
0300
0300
0300
0300
FFFC
0300
0300
0300
0300
0300
0300
0300
ENDCHAR
STARTCHAR C023101
ENCODING 9793
SWIDTH 1400 0
DWIDTH 14 0
BBX 8 8 0 -3
BITMAP
FF
03
03
03
03
03
03
03
ENDCHAR
STARTCHAR C023102
ENCODING 9794
SWIDTH 1400 0
DWIDTH 14 0
BBX 8 8 0 -3
BITMAP
FF
03
03
03
03
03
03
03
ENDCHAR
STARTCHAR C023103
ENCODING 9795
SWIDTH 1400 0
DWIDTH 14 0
BBX 8 7 0 4
BITMAP
03
03
03
03
03
03
FF
ENDCHAR
STARTCHAR C023104
ENCODING 9796
SWIDTH 1400 0
DWIDTH 14 0
BBX 8 7 0 4
BITMAP
03
03
03
03
03
03
FF
ENDCHAR
STARTCHAR C023105
ENCODING 9797
SWIDTH 1400 0
DWIDTH 14 0
BBX 8 7 6 4
BITMAP
C0
C0
C0
C0
C0
C0
FF
ENDCHAR
STARTCHAR C023106
ENCODING 9798
SWIDTH 1400 0
DWIDTH 14 0
BBX 8 7 6 4
BITMAP
C0
C0
C0
C0
C0
C0
FF
ENDCHAR
STARTCHAR C023107
ENCODING 9799
SWIDTH 1400 0
DWIDTH 14 0
BBX 8 8 6 -3
BITMAP
FF
C0
C0
C0
C0
C0
C0
C0
ENDCHAR
STARTCHAR C023110
ENCODING 9800
SWIDTH 1400 0
DWIDTH 14 0
BBX 8 8 6 -3
BITMAP
FF
C0
C0
C0
C0
C0
C0
C0
ENDCHAR
STARTCHAR C023111
ENCODING 9801
SWIDTH 1400 0
DWIDTH 14 0
BBX 8 14 6 -3
BITMAP
C0
C0
C0
C0
C0
C0
FF
C0
C0
C0
C0
C0
C0
C0
ENDCHAR
STARTCHAR C023112
ENCODING 9802
SWIDTH 1400 0
DWIDTH 14 0
BBX 8 14 6 -3
BITMAP
C0
C0
C0
C0
C0
C0
FF
C0
C0
C0
C0
C0
C0
C0
ENDCHAR
STARTCHAR C023113
ENCODING 9803
SWIDTH 1400 0
DWIDTH 14 0
BBX 8 14 6 -3
BITMAP
C0
C0
C0
C0
C0
C0
FF
C0
C0
C0
C0
C0
C0
C0
ENDCHAR
STARTCHAR C023114
ENCODING 9804
SWIDTH 1400 0
DWIDTH 14 0
BBX 8 14 6 -3
BITMAP
C0
C0
C0
C0
C0
C0
FF
C0
C0
C0
C0
C0
C0
C0
ENDCHAR
STARTCHAR C023115
ENCODING 9805
SWIDTH 1400 0
DWIDTH 14 0
BBX 8 14 0 -3
BITMAP
03
03
03
03
03
03
FF
03
03
03
03
03
03
03
ENDCHAR
STARTCHAR C023116
ENCODING 9806
SWIDTH 1400 0
DWIDTH 14 0
BBX 8 14 0 -3
BITMAP
03
03
03
03
03
03
FF
03
03
03
03
03
03
03
ENDCHAR
STARTCHAR C023117
ENCODING 9807
SWIDTH 1400 0
DWIDTH 14 0
BBX 8 14 0 -3
BITMAP
03
03
03
03
03
03
FF
03
03
03
03
03
03
03
ENDCHAR
STARTCHAR C023120
ENCODING 9808
SWIDTH 1400 0
DWIDTH 14 0
BBX 8 14 0 -3
BITMAP
03
03
03
03
03
03
FF
03
03
03
03
03
03
03
ENDCHAR
STARTCHAR C023121
ENCODING 9809
SWIDTH 1400 0
DWIDTH 14 0
BBX 14 8 0 -3
BITMAP
FFFC
0300
0300
0300
0300
0300
0300
0300
ENDCHAR
STARTCHAR C023122
ENCODING 9810
SWIDTH 1400 0
DWIDTH 14 0
BBX 14 8 0 -3
BITMAP
FFFC
0300
0300
0300
0300
0300
0300
0300
ENDCHAR
STARTCHAR C023123
ENCODING 9811
SWIDTH 1400 0
DWIDTH 14 0
BBX 14 8 0 -3
BITMAP
FFFC
0300
0300
0300
0300
0300
0300
0300
ENDCHAR
STARTCHAR C023124
ENCODING 9812
SWIDTH 1400 0
DWIDTH 14 0
BBX 14 8 0 -3
BITMAP
FFFC
0300
0300
0300
0300
0300
0300
0300
ENDCHAR
STARTCHAR C023125
ENCODING 9813
SWIDTH 1400 0
DWIDTH 14 0
BBX 14 7 0 4
BITMAP
0300
0300
0300
0300
0300
0300
FFFC
ENDCHAR
STARTCHAR C023126
ENCODING 9814
SWIDTH 1400 0
DWIDTH 14 0
BBX 14 7 0 4
BITMAP
0300
0300
0300
0300
0300
0300
FFFC
ENDCHAR
STARTCHAR C023127
ENCODING 9815
SWIDTH 1400 0
DWIDTH 14 0
BBX 14 7 0 4
BITMAP
0300
0300
0300
0300
0300
0300
FFFC
ENDCHAR
STARTCHAR C023130
ENCODING 9816
SWIDTH 1400 0
DWIDTH 14 0
BBX 14 7 0 4
BITMAP
0300
0300
0300
0300
0300
0300
FFFC
ENDCHAR
STARTCHAR C023131
ENCODING 9817
SWIDTH 1400 0
DWIDTH 14 0
BBX 14 14 0 -3
BITMAP
0300
0300
0300
0300
0300
0300
FFFC
0300
0300
0300
0300
0300
0300
0300
ENDCHAR
STARTCHAR C023132
ENCODING 9818
SWIDTH 1400 0
DWIDTH 14 0
BBX 14 14 0 -3
BITMAP
0300
0300
0300
0300
0300
0300
FFFC
0300
0300
0300
0300
0300
0300
0300
ENDCHAR
STARTCHAR C023133
ENCODING 9819
SWIDTH 1400 0
DWIDTH 14 0
BBX 14 14 0 -3
BITMAP
0300
0300
0300
0300
0300
0300
FFFC
0300
0300
0300
0300
0300
0300
0300
ENDCHAR
STARTCHAR C023134
ENCODING 9820
SWIDTH 1400 0
DWIDTH 14 0
BBX 14 14 0 -3
BITMAP
0300
0300
0300
0300
0300
0300
FFFC
0300
0300
0300
0300
0300
0300
0300
ENDCHAR
STARTCHAR C023135
ENCODING 9821
SWIDTH 1400 0
DWIDTH 14 0
BBX 14 14 0 -3
BITMAP
0300
0300
0300
0300
0300
0300
FFFC
0300
0300
0300
0300
0300
0300
0300
ENDCHAR
STARTCHAR C023136
ENCODING 9822
SWIDTH 1400 0
DWIDTH 14 0
BBX 14 14 0 -3
BITMAP
0300
0300
0300
0300
0300
0300
FFFC
0300
0300
0300
0300
0300
0300
0300
ENDCHAR
STARTCHAR C023137
ENCODING 9823
SWIDTH 1400 0
DWIDTH 14 0
BBX 14 14 0 -3
BITMAP
0300
0300
0300
0300
0300
0300
FFFC
0300
0300
0300
0300
0300
0300
0300
ENDCHAR
STARTCHAR C023140
ENCODING 9824
SWIDTH 1400 0
DWIDTH 14 0
BBX 14 14 0 -3
BITMAP
0300
0300
0300
0300
0300
0300
FFFC
0300
0300
0300
0300
0300
0300
0300
ENDCHAR
STARTCHAR C023141
ENCODING 9825
SWIDTH 1400 0
DWIDTH 14 0
BBX 14 14 0 -3
BITMAP
0300
0300
0300
0300
0300
0300
FFFC
0300
0300
0300
0300
0300
0300
0300
ENDCHAR
STARTCHAR C023142
ENCODING 9826
SWIDTH 1400 0
DWIDTH 14 0
BBX 14 14 0 -3
BITMAP
0300
0300
0300
0300
0300
0300
FFFC
0300
0300
0300
0300
0300
0300
0300
ENDCHAR
STARTCHAR C023143
ENCODING 9827
SWIDTH 1400 0
DWIDTH 14 0
BBX 14 14 0 -3
BITMAP
0300
0300
0300
0300
0300
0300
FFFC
0300
0300
0300
0300
0300
0300
0300
ENDCHAR
STARTCHAR C023144
ENCODING 9828
SWIDTH 1400 0
DWIDTH 14 0
BBX 14 14 0 -3
BITMAP
0300
0300
0300
0300
0300
0300
FFFC
0300
0300
0300
0300
0300
0300
0300
ENDCHAR
STARTCHAR C023441
ENCODING 10017
SWIDTH 1400 0
DWIDTH 14 0
BBX 13 11 1 -1
BITMAP
0070
1BF0
33F0
37B0
37B0
67E0
6DE0
6DD8
6F98
FCF0
C000
ENDCHAR
STARTCHAR C023442
ENCODING 10018
SWIDTH 1400 0
DWIDTH 14 0
BBX 11 10 2 0
BITMAP
01E0
01E0
FDE0
FF60
FF60
FFC0
FF80
FF00
FF60
FDE0
ENDCHAR
STARTCHAR C023443
ENCODING 10019
SWIDTH 1400 0
DWIDTH 14 0
BBX 11 10 2 0
BITMAP
0DE0
0F60
7F60
CF60
CE60
0EC0
CF80
CF00
DF60
7DE0
ENDCHAR
STARTCHAR C023444
ENCODING 10020
SWIDTH 1400 0
DWIDTH 14 0
BBX 6 10 4 0
BITMAP
3C
3C
7C
6C
78
78
70
60
EC
38
ENDCHAR
STARTCHAR C023445
ENCODING 10021
SWIDTH 1400 0
DWIDTH 14 0
BBX 11 10 2 0
BITMAP
C1C0
C3C0
CFC0
DEC0
F6C0
E780
E780
F760
DE60
C3C0
ENDCHAR
STARTCHAR C023446
ENCODING 10022
SWIDTH 1400 0
DWIDTH 14 0
BBX 11 9 2 0
BITMAP
7BC0
6F60
CE60
C600
C600
C600
CE60
6F60
7BC0
ENDCHAR
STARTCHAR C023447
ENCODING 10023
SWIDTH 1400 0
DWIDTH 14 0
BBX 12 10 1 0
BITMAP
0030
0030
FFF0
FFC0
FFC0
FFC0
FFC0
FFC0
FFC0
FFC0
ENDCHAR
STARTCHAR C023450
ENCODING 10024
SWIDTH 1400 0
DWIDTH 14 0
BBX 13 10 1 0
BITMAP
0038
0030
77D8
DFC0
DFC0
C7C0
C7C0
DFC0
DFC0
77C0
ENDCHAR
STARTCHAR C023451
ENCODING 10025
SWIDTH 1400 0
DWIDTH 14 0
BBX 13 10 1 0
BITMAP
0018
0030
FB98
EEC0
CCC0
CCC0
CCC0
CCC0
CCC0
CCC0
ENDCHAR
STARTCHAR C023452
ENCODING 10026
SWIDTH 1400 0
DWIDTH 14 0
BBX 13 10 1 0
BITMAP
C018
C030
DFD8
F7C0
F7C0
E7C0
E7C0
F7C0
F7C0
DFC0
ENDCHAR
STARTCHAR C023453
ENCODING 10027
SWIDTH 1400 0
DWIDTH 14 0
BBX 12 11 1 0
BITMAP
1C00
3000
3000
FFF0
33F0
33F0
33F0
33F0
33F0
33F0
33F0
ENDCHAR
STARTCHAR C023454
ENCODING 10028
SWIDTH 1400 0
DWIDTH 14 0
BBX 12 8 1 0
BITMAP
FFF0
CFF0
CFF0
CFF0
CFF0
CFF0
CFF0
CFF0
ENDCHAR
STARTCHAR C023455
ENCODING 10029
SWIDTH 1400 0
DWIDTH 14 0
BBX 13 9 1 -1
BITMAP
07F8
37F8
37F8
3DF8
6DF8
6DF8
6DF8
FDF8
C000
ENDCHAR
STARTCHAR C023456
ENCODING 10030
SWIDTH 1400 0
DWIDTH 14 0
BBX 11 8 2 0
BITMAP
FFE0
FFE0
FFE0
FFE0
FFE0
FFE0
FFE0
FFE0
ENDCHAR
STARTCHAR C023457
ENCODING 10031
SWIDTH 1400 0
DWIDTH 14 0
BBX 11 8 2 0
BITMAP
77E0
DFE0
DFE0
C7E0
DFE0
DFE0
DFE0
77E0
ENDCHAR
STARTCHAR C023460
ENCODING 10032
SWIDTH 1400 0
DWIDTH 14 0
BBX 11 11 2 -1
BITMAP
C000
C000
DFC0
FDE0
EDE0
EDE0
EDE0
FDE0
FDE0
DDE0
C000
ENDCHAR
STARTCHAR C023461
ENCODING 10033
SWIDTH 1400 0
DWIDTH 14 0
BBX 13 11 1 0
BITMAP
0030
0030
0030
F7F8
FFC0
FFC0
FFC0
FFC0
FFC0
FFC0
F980
ENDCHAR
STARTCHAR C023462
ENCODING 10034
SWIDTH 1400 0
DWIDTH 14 0
BBX 13 11 1 0
BITMAP
0038
0018
0030
77F8
DFE0
DFE0
C7E0
C7E0
DFE0
DFE0
77E0
ENDCHAR
STARTCHAR C023463
ENCODING 10035
SWIDTH 1400 0
DWIDTH 14 0
BBX 13 11 1 0
BITMAP
0030
0030
0030
FBB8
EEC0
CCC0
CCC0
CCC0
CCC0
CCC0
CCC0
ENDCHAR
STARTCHAR C023464
ENCODING 10036
SWIDTH 1400 0
DWIDTH 14 0
BBX 13 11 1 0
BITMAP
0038
C018
C030
DFF8
F7E0
F7E0
E7E0
E7E0
F7E0
F7E0
DFE0
ENDCHAR
STARTCHAR C023465
ENCODING 10037
SWIDTH 1400 0
DWIDTH 14 0
BBX 11 11 2 -1
BITMAP
C000
C000
C3C0
FB60
CC60
CDE0
CF60
CE60
CE60
CFE0
0C00
ENDCHAR
STARTCHAR C023466
ENCODING 10038
SWIDTH 1400 0
DWIDTH 14 0
BBX 13 9 1 -1
BITMAP
3630
37F0
3F30
6DF0
6F00
6FF0
7B18
F1F0
C000
ENDCHAR
STARTCHAR C023467
ENCODING 10039
SWIDTH 1400 0
DWIDTH 14 0
BBX 10 8 3 0
BITMAP
F7C0
FCC0
FCC0
F780
F700
FDC0
FCC0
F7C0
ENDCHAR
STARTCHAR C023470
ENCODING 10040
SWIDTH 1400 0
DWIDTH 14 0
BBX 11 11 2 -1
BITMAP
C000
C000
D860
F7C0
E660
E3C0
E600
F7E0
F660
DFC0
C000
ENDCHAR
STARTCHAR C023471
ENCODING 10041
SWIDTH 1400 0
DWIDTH 14 0
BBX 11 10 2 0
BITMAP
C300
C300
C300
DFE0
F300
E300
E300
F300
DB60
D9C0
ENDCHAR
STARTCHAR C023472
ENCODING 10042
SWIDTH 1400 0
DWIDTH 14 0
BBX 12 11 2 -1
BITMAP
0030
0030
E730
3DB0
31B0
07B0
0DB0
39B0
39B0
EFB0
0600
ENDCHAR
STARTCHAR C023473
ENCODING 10043
SWIDTH 1400 0
DWIDTH 14 0
BBX 11 10 2 0
BITMAP
C060
C060
FFE0
FEE0
F6E0
F1E0
F3E0
F6E0
F6E0
FFE0
ENDCHAR
STARTCHAR C023474
ENCODING 10044
SWIDTH 1400 0
DWIDTH 14 0
BBX 13 11 1 0
BITMAP
0FE0
0F30
0F30
7F30
EF60
CFE0
CF30
CF18
CF18
CF18
7BF0
ENDCHAR
STARTCHAR C023475
ENCODING 10045
SWIDTH 1400 0
DWIDTH 14 0
BBX 12 11 2 -1
BITMAP
FC60
3CC0
3D80
3F00
0600
0C00
1BC0
3360
63C0
C370
01E0
ENDCHAR
STARTCHAR C023476
ENCODING 10046
SWIDTH 1400 0
DWIDTH 14 0
BBX 12 11 1 -1
BITMAP
FE30
DE60
DEC0
DFB0
0330
0660
0FB0
1EC0
3380
66E0
03C0
ENDCHAR
STARTCHAR C023477
ENCODING 10047
SWIDTH 1400 0
DWIDTH 14 0
BBX 11 10 2 -2
BITMAP
FBC0
FE60
CE00
CF80
CCE0
CE60
FE60
FBE0
C000
C000
ENDCHAR
STARTCHAR C023500
ENCODING 10048
SWIDTH 1400 0
DWIDTH 14 0
BBX 10 8 3 0
BITMAP
F780
3CC0
3C00
3700
31C0
3CC0
3CC0
37C0
ENDCHAR
STARTCHAR C023501
ENCODING 10049
SWIDTH 1400 0
DWIDTH 14 0
BBX 13 9 1 -1
BITMAP
36F0
37B0
6780
6CC0
6C70
6C18
6D98
FCF0
C000
ENDCHAR
STARTCHAR C023502
ENCODING 10050
SWIDTH 1400 0
DWIDTH 14 0
BBX 11 8 2 0
BITMAP
FBC0
7B60
7E00
7B80
78E0
7860
7B60
7BE0
ENDCHAR
STARTCHAR C023503
ENCODING 10051
SWIDTH 1400 0
DWIDTH 14 0
BBX 11 12 2 -2
BITMAP
0600
0660
0660
FE60
CFC0
CFC0
CFC0
CFC0
FDC0
F980
C000
C000
ENDCHAR
STARTCHAR C023504
ENCODING 10052
SWIDTH 1400 0
DWIDTH 14 0
BBX 11 10 2 0
BITMAP
0600
0660
FE60
CE60
CFC0
CFC0
CFC0
CFC0
CDC0
CD80
ENDCHAR
STARTCHAR C023505
ENCODING 10053
SWIDTH 1400 0
DWIDTH 14 0
BBX 13 11 1 -1
BITMAP
0318
0330
37B0
37B0
37B0
6DE0
6DE0
6CE0
78E0
FCE0
C000
ENDCHAR
STARTCHAR C023506
ENCODING 10054
SWIDTH 1400 0
DWIDTH 14 0
BBX 11 10 2 0
BITMAP
0600
0660
FE60
3F60
3FC0
3FC0
3FC0
3FC0
3DC0
3D80
ENDCHAR
STARTCHAR C023507
ENCODING 10055
SWIDTH 1400 0
DWIDTH 14 0
BBX 10 10 3 0
BITMAP
0C00
0CC0
3CC0
36C0
6780
C780
C780
6780
3380
1B00
ENDCHAR
STARTCHAR C023510
ENCODING 10056
SWIDTH 1400 0
DWIDTH 14 0
BBX 11 11 2 0
BITMAP
0600
DE60
DE60
DE60
FF60
FF60
FFC0
7FC0
7FC0
7DC0
6DC0
ENDCHAR
STARTCHAR C023511
ENCODING 10057
SWIDTH 1400 0
DWIDTH 14 0
BBX 11 13 2 -2
BITMAP
0180
01C0
03C0
03C0
FBC0
CFC0
CF60
CFE0
CE60
FE60
FE00
C000
C000
ENDCHAR
STARTCHAR C023512
ENCODING 10058
SWIDTH 1400 0
DWIDTH 14 0
BBX 11 10 2 0
BITMAP
0180
03C0
FBC0
DBC0
DBC0
DBC0
DBE0
DE60
DE60
DE00
ENDCHAR
STARTCHAR C023513
ENCODING 10059
SWIDTH 1400 0
DWIDTH 14 0
BBX 13 11 1 -1
BITMAP
00E0
00E0
33E0
37E0
37B0
67B0
67F0
6DB0
6F30
FF18
C000
ENDCHAR
STARTCHAR C023514
ENCODING 10060
SWIDTH 1400 0
DWIDTH 14 0
BBX 11 11 2 0
BITMAP
0180
01C0
03C0
FBC0
7BC0
7BC0
7B60
7BE0
7E60
7E60
7E00
ENDCHAR
STARTCHAR C023515
ENCODING 10061
SWIDTH 1400 0
DWIDTH 14 0
BBX 11 11 2 0
BITMAP
0180
C180
C3C0
DBC0
F3C0
E3C0
E3C0
E3E0
F660
F660
DE00
ENDCHAR
STARTCHAR C023516
ENCODING 10062
SWIDTH 1400 0
DWIDTH 14 0
BBX 11 12 2 -2
BITMAP
0FE0
0FE0
07E0
F7E0
DFE0
DFE0
DFE0
DF60
DF60
F660
C000
C000
ENDCHAR
STARTCHAR C023517
ENCODING 10063
SWIDTH 1400 0
DWIDTH 14 0
BBX 11 10 2 0
BITMAP
0FE0
0FE0
FFE0
DFE0
DFE0
DFE0
DFE0
DFE0
DF60
DE60
ENDCHAR
STARTCHAR C023520
ENCODING 10064
SWIDTH 1400 0
DWIDTH 14 0
BBX 12 11 1 -1
BITMAP
0770
0770
03F0
6FF0
6FF0
6FF0
6FF0
CFF0
7BB0
FF80
C000
ENDCHAR
STARTCHAR C023521
ENCODING 10065
SWIDTH 1400 0
DWIDTH 14 0
BBX 11 10 2 0
BITMAP
0FE0
0FE0
FFE0
FFE0
FFE0
FFE0
FFE0
FF60
FF60
FE60
ENDCHAR
STARTCHAR C023522
ENCODING 10066
SWIDTH 1400 0
DWIDTH 14 0
BBX 11 10 2 0
BITMAP
DB60
DB60
DFE0
FFE0
EFE0
EFE0
EFC0
F7C0
F7C0
DEC0
ENDCHAR
STARTCHAR C023523
ENCODING 10067
SWIDTH 1400 0
DWIDTH 14 0
BBX 11 10 2 0
BITMAP
DDE0
DDE0
DFE0
DFE0
DFE0
DFE0
7FC0
3FC0
3FC0
3FC0
ENDCHAR
STARTCHAR C023524
ENCODING 10068
SWIDTH 1400 0
DWIDTH 14 0
BBX 11 10 2 0
BITMAP
0C00
0C00
0FE0
0CC0
FCC0
0D80
0D80
0F00
0E00
0FE0
ENDCHAR
STARTCHAR C023525
ENCODING 10069
SWIDTH 1400 0
DWIDTH 14 0
BBX 13 11 1 0
BITMAP
0D80
CD80
CD80
DDF8
FDB0
EFB0
EDE0
EDE0
FDC0
FDC0
DDF0
ENDCHAR
STARTCHAR C023526
ENCODING 10070
SWIDTH 1400 0
DWIDTH 14 0
BBX 13 11 1 0
BITMAP
0600
CF80
DF80
DFF0
FFB0
FFB0
FFE0
FFE0
FFE0
FFC0
FFF8
ENDCHAR
STARTCHAR C023527
ENCODING 10071
SWIDTH 1400 0
DWIDTH 14 0
BBX 13 12 1 -1
BITMAP
7780
7F80
DF80
C7F8
C7B0
C7B0
FFB0
DFE0
DFE0
DFE0
7FF8
3000
ENDCHAR
STARTCHAR C023530
ENCODING 10072
SWIDTH 1400 0
DWIDTH 14 0
BBX 13 11 1 0
BITMAP
FD80
3780
3780
37F8
37B0
37B0
37E0
37E0
37E0
37C0
37F0
ENDCHAR
STARTCHAR C023531
ENCODING 10073
SWIDTH 1400 0
DWIDTH 14 0
BBX 9 10 3 0
BITMAP
3E00
6300
C180
C180
C180
C300
6700
3C00
3C00
FF80
ENDCHAR
STARTCHAR C023532
ENCODING 10074
SWIDTH 1400 0
DWIDTH 14 0
BBX 11 11 3 0
BITMAP
0780
0CC0
1CE0
3860
7860
D860
D8C0
CCC0
C780
6780
3FE0
ENDCHAR
STARTCHAR C023533
ENCODING 10075
SWIDTH 1400 0
DWIDTH 14 0
BBX 12 11 2 0
BITMAP
0380
DEC0
FC60
FC60
FC60
FC60
FE60
7EC0
3BC0
3BC0
3FF0
ENDCHAR
STARTCHAR C023534
ENCODING 10076
SWIDTH 1400 0
DWIDTH 14 0
BBX 11 11 2 0
BITMAP
07E0
0600
0600
0600
FFE0
0E00
0E00
0E00
0E00
DE00
7E00
ENDCHAR
STARTCHAR C023535
ENCODING 10077
SWIDTH 1400 0
DWIDTH 14 0
BBX 10 11 3 0
BITMAP
0FC0
0C00
0C00
FC00
1FC0
1C00
1C00
1C00
1C00
1C00
1C00
ENDCHAR
STARTCHAR C023536
ENCODING 10078
SWIDTH 1400 0
DWIDTH 14 0
BBX 13 12 1 -1
BITMAP
01F8
0180
0180
3180
37F8
3780
6D80
6D80
6D80
6D80
FD80
C000
ENDCHAR
STARTCHAR C023537
ENCODING 10079
SWIDTH 1400 0
DWIDTH 14 0
BBX 11 10 2 0
BITMAP
0060
0060
FBE0
FEE0
FEE0
FEE0
FEE0
FEE0
FEE0
FBE0
ENDCHAR
STARTCHAR C023540
ENCODING 10080
SWIDTH 1400 0
DWIDTH 14 0
BBX 11 10 2 0
BITMAP
0060
0060
7860
EFE0
CE60
C660
C660
CE60
6F60
7BE0
ENDCHAR
STARTCHAR C023541
ENCODING 10081
SWIDTH 1400 0
DWIDTH 14 0
BBX 11 11 2 -1
BITMAP
0060
0060
FC60
F7E0
C7E0
CFE0
FFE0
F7E0
F7E0
DFE0
0060
ENDCHAR
STARTCHAR C023542
ENCODING 10082
SWIDTH 1400 0
DWIDTH 14 0
BBX 11 12 2 -2
BITMAP
0180
0180
DF80
3F80
7F80
3FE0
0180
07E0
0D80
38E0
6060
00E0
ENDCHAR
STARTCHAR C023543
ENCODING 10083
SWIDTH 1400 0
DWIDTH 14 0
BBX 13 11 1 -1
BITMAP
0180
C380
EF80
DF80
FFB0
DFF8
01F8
03E0
0EC0
1860
30E0
ENDCHAR
STARTCHAR C023544
ENCODING 10084
SWIDTH 1400 0
DWIDTH 14 0
BBX 11 8 2 0
BITMAP
7BE0
DB80
C300
6300
3B00
CF00
CF00
7B00
ENDCHAR
STARTCHAR C023545
ENCODING 10085
SWIDTH 1400 0
DWIDTH 14 0
BBX 11 11 2 0
BITMAP
F800
DC00
CC00
CDC0
CF60
D860
F1E0
C760
C660
C660
03E0
ENDCHAR
STARTCHAR C023546
ENCODING 10086
SWIDTH 1400 0
DWIDTH 14 0
BBX 11 10 2 0
BITMAP
DF00
DB00
FBE0
FB60
FB60
DEE0
F9E0
F9E0
F9E0
F9E0
ENDCHAR
STARTCHAR C023547
ENCODING 10087
SWIDTH 1400 0
DWIDTH 14 0
BBX 13 11 1 -1
BITMAP
CF80
DF80
DFB8
FFF8
FF98
FFB8
FE78
FE78
FE78
FE78
0600
ENDCHAR
STARTCHAR C023550
ENCODING 10088
SWIDTH 1400 0
DWIDTH 14 0
BBX 13 11 1 -1
BITMAP
7F80
DF80
DFF0
C798
C798
FFB8
DEF8
DED8
DED8
DEF8
7800
ENDCHAR
STARTCHAR C023551
ENCODING 10089
SWIDTH 1400 0
DWIDTH 14 0
BBX 13 11 1 0
BITMAP
0180
FF80
FF80
7FF0
7FB8
7D98
7D98
7D98
7D98
7DB0
7DE0
ENDCHAR
STARTCHAR C023552
ENCODING 10090
SWIDTH 1400 0
DWIDTH 14 0
BBX 11 11 2 0
BITMAP
C000
C000
C000
DFE0
DB60
DB60
DB60
DB60
DB60
DB60
DB60
ENDCHAR
STARTCHAR C023553
ENCODING 10091
SWIDTH 1400 0
DWIDTH 14 0
BBX 9 11 3 -1
BITMAP
C000
C000
C180
DB00
CF00
C600
C600
CF00
DB00
D980
C000
ENDCHAR
STARTCHAR C023554
ENCODING 10092
SWIDTH 1400 0
DWIDTH 14 0
BBX 11 12 2 -1
BITMAP
F800
CC00
CC00
CFE0
DEE0
FE60
CE60
CE60
CE60
CFE0
F860
0060
ENDCHAR
STARTCHAR C023555
ENCODING 10093
SWIDTH 1400 0
DWIDTH 14 0
BBX 11 13 2 -2
BITMAP
F800
DC00
0C00
0000
0360
0360
3FC0
0FC0
0DC0
CDC0
FD80
0180
0300
ENDCHAR
STARTCHAR C023556
ENCODING 10094
SWIDTH 1400 0
DWIDTH 14 0
BBX 11 11 2 0
BITMAP
7800
CC00
0C00
C300
C360
7360
1F60
0DC0
0DC0
CDC0
78C0
ENDCHAR
STARTCHAR C023557
ENCODING 10095
SWIDTH 1400 0
DWIDTH 14 0
BBX 13 12 1 -2
BITMAP
F000
FC00
CC00
F800
FE00
7E00
37F8
37F0
6770
67F0
6198
00F0
ENDCHAR
STARTCHAR C024041
ENCODING 10273
SWIDTH 1400 0
DWIDTH 14 0
BBX 11 9 2 0
BITMAP
1FE0
1C00
3C00
6C00
6FE0
7C00
CC00
0C00
0FE0
ENDCHAR
STARTCHAR C024042
ENCODING 10274
SWIDTH 1400 0
DWIDTH 14 0
BBX 10 9 2 0
BITMAP
3F00
3180
30C0
30C0
FCC0
30C0
30C0
3180
3F00
ENDCHAR
STARTCHAR C024043
ENCODING 10275
SWIDTH 1400 0
DWIDTH 14 0
BBX 7 9 4 0
BITMAP
7C
CC
0C
7C
CC
CC
FE
00
FE
ENDCHAR
STARTCHAR C024044
ENCODING 10276
SWIDTH 1400 0
DWIDTH 14 0
BBX 11 9 2 0
BITMAP
3180
FFE0
3180
3180
3F80
3180
3180
3180
3180
ENDCHAR
STARTCHAR C024045
ENCODING 10277
SWIDTH 1400 0
DWIDTH 14 0
BBX 0 0 0 0
BITMAP
ENDCHAR
STARTCHAR C024046
ENCODING 10278
SWIDTH 1400 0
DWIDTH 14 0
BBX 6 9 5 0
BITMAP
0C
0C
0C
0C
0C
0C
CC
CC
78
ENDCHAR
STARTCHAR C024050
ENCODING 10280
SWIDTH 1400 0
DWIDTH 14 0
BBX 7 9 4 0
BITMAP
C0
C0
C0
D8
D8
C0
C0
C0
FE
ENDCHAR
STARTCHAR C024051
ENCODING 10281
SWIDTH 1400 0
DWIDTH 14 0
BBX 9 9 3 0
BITMAP
3000
3C00
3800
3800
3000
7000
F000
3000
3F80
ENDCHAR
STARTCHAR C024052
ENCODING 10282
SWIDTH 1400 0
DWIDTH 14 0
BBX 10 10 2 -1
BITMAP
3F80
3180
6380
66C0
6CC0
7980
7180
3180
7F00
C000
ENDCHAR
STARTCHAR C024053
ENCODING 10283
SWIDTH 1400 0
DWIDTH 14 0
BBX 12 9 1 0
BITMAP
7FF0
6600
C600
C600
C7F0
C600
C600
6600
3FF0
ENDCHAR
STARTCHAR C024054
ENCODING 10284
SWIDTH 1400 0
DWIDTH 14 0
BBX 7 9 4 0
BITMAP
7C
EE
C6
C6
C6
CE
7C
00
FE
ENDCHAR
STARTCHAR C024055
ENCODING 10285
SWIDTH 1400 0
DWIDTH 14 0
BBX 7 9 4 0
BITMAP
C0
C0
FC
C6
C6
C6
FC
C0
C0
ENDCHAR
STARTCHAR C024056
ENCODING 10286
SWIDTH 1400 0
DWIDTH 14 0
BBX 8 9 3 0
BITMAP
FF
18
18
18
18
7E
18
18
18
ENDCHAR
STARTCHAR C024057
ENCODING 10287
SWIDTH 1400 0
DWIDTH 14 0
BBX 7 10 4 0
BITMAP
D8
FE
C6
C6
C6
C6
C6
C6
C6
CE
ENDCHAR
STARTCHAR C024060
ENCODING 10288
SWIDTH 1400 0
DWIDTH 14 0
BBX 1 6 14 1
BITMAP
80
80
80
80
80
80
ENDCHAR
STARTCHAR C024061
ENCODING 10289
SWIDTH 1400 0
DWIDTH 14 0
BBX 13 12 1 -2
BITMAP
1FC0
38E0
6030
FFF8
C0D8
C0D8
C0D8
C0D8
E1B8
6030
38E0
1FC0
ENDCHAR
STARTCHAR C024062
ENCODING 10290
SWIDTH 1400 0
DWIDTH 14 0
BBX 13 12 1 -2
BITMAP
1FC0
38E0
6030
F838
D818
D818
D818
D818
FFF8
6030
38E0
1FC0
ENDCHAR
STARTCHAR C024063
ENCODING 10291
SWIDTH 1400 0
DWIDTH 14 0
BBX 13 12 1 -2
BITMAP
1FC0
38E0
6030
FFF8
D818
D818
D818
D818
FFF8
6030
38E0
1FC0
ENDCHAR
STARTCHAR C024064
ENCODING 10292
SWIDTH 1400 0
DWIDTH 14 0
BBX 13 12 1 -2
BITMAP
1FC0
38E0
6030
FFF8
C0D8
DFD8
D818
D818
FFF8
6030
38E0
1FC0
ENDCHAR
STARTCHAR C024065
ENCODING 10293
SWIDTH 1400 0
DWIDTH 14 0
BBX 13 12 1 -2
BITMAP
1FC0
38E0
6030
FFF8
D8D8
D8D8
D8D8
D8D8
FFF8
6030
38E0
1FC0
ENDCHAR
STARTCHAR C024066
ENCODING 10294
SWIDTH 1400 0
DWIDTH 14 0
BBX 13 12 1 -2
BITMAP
1FC0
38E0
6030
F8F8
D8D8
DFD8
D8D8
D8D8
FFF8
6030
38E0
1FC0
ENDCHAR
STARTCHAR C024067
ENCODING 10295
SWIDTH 1400 0
DWIDTH 14 0
BBX 13 12 1 -2
BITMAP
1FC0
38E0
6030
E638
C618
CF18
CF18
D998
E0F8
6030
38E0
1FC0
ENDCHAR
STARTCHAR C024070
ENCODING 10296
SWIDTH 1400 0
DWIDTH 14 0
BBX 13 12 1 -2
BITMAP
1FC0
38E0
6FB0
FDF8
D8D8
D8D8
D8D8
DD98
EFB8
6030
38E0
1FC0
ENDCHAR
STARTCHAR C024071
ENCODING 10297
SWIDTH 1400 0
DWIDTH 14 0
BBX 13 12 1 -2
BITMAP
1FC0
38E0
6030
FFF8
C618
C718
CF18
DD98
F0F8
6030
38E0
1FC0
ENDCHAR
STARTCHAR C024072
ENCODING 10298
SWIDTH 1400 0
DWIDTH 14 0
BBX 13 12 1 -2
BITMAP
1FC0
38E0
6FB0
E038
FFF8
C618
C718
CD98
F8F8
6030
38E0
1FC0
ENDCHAR
STARTCHAR C024073
ENCODING 10299
SWIDTH 1400 0
DWIDTH 14 0
BBX 13 12 1 -2
BITMAP
1FC0
38E0
6030
FFF8
C0D8
C0D8
DFD8
C198
E1B8
6030
38E0
1FC0
ENDCHAR
STARTCHAR C024074
ENCODING 10300
SWIDTH 1400 0
DWIDTH 14 0
BBX 13 12 1 -2
BITMAP
1FC0
38E0
6030
FFF8
D818
DFD8
D818
D818
FFF8
6030
38E0
1FC0
ENDCHAR
STARTCHAR C024075
ENCODING 10301
SWIDTH 1400 0
DWIDTH 14 0
BBX 13 12 1 -2
BITMAP
1FC0
38E0
6030
FFF8
C018
CD98
CD98
CD98
FFF8
6030
38E0
1FC0
ENDCHAR
STARTCHAR C024076
ENCODING 10302
SWIDTH 1400 0
DWIDTH 14 0
BBX 13 12 1 -2
BITMAP
1FC0
38E0
6FB0
E038
FFD8
CF98
D8D8
D8D8
F8F8
6FB0
38E0
1FC0
ENDCHAR
STARTCHAR C024077
ENCODING 10303
SWIDTH 1400 0
DWIDTH 14 0
BBX 13 12 1 -2
BITMAP
1FC0
38E0
61B0
FFB8
C798
C798
CDF8
D998
F1B8
61B0
39E0
1FC0
ENDCHAR
STARTCHAR C024100
ENCODING 10304
SWIDTH 1400 0
DWIDTH 14 0
BBX 13 12 1 -2
BITMAP
1FC0
39E0
61B0
F1B8
F198
F1F8
F198
F798
FDB8
61B0
38E0
1FC0
ENDCHAR
STARTCHAR C024101
ENCODING 10305
SWIDTH 1400 0
DWIDTH 14 0
BBX 13 12 1 -2
BITMAP
1FC0
38E0
61B0
FFB8
F198
F198
F1F8
F198
FFB8
61B0
39E0
1FC0
ENDCHAR
STARTCHAR C024102
ENCODING 10306
SWIDTH 1400 0
DWIDTH 14 0
BBX 13 12 1 -2
BITMAP
1FC0
38E0
61B0
FFB8
C798
FF98
F1F8
F198
FFB8
61B0
39E0
1FC0
ENDCHAR
STARTCHAR C024103
ENCODING 10307
SWIDTH 1400 0
DWIDTH 14 0
BBX 13 12 1 -2
BITMAP
1FC0
39E0
61B0
FFB8
F798
F7F8
F798
FF98
E1B8
61B0
38E0
1FC0
ENDCHAR
STARTCHAR C024104
ENCODING 10308
SWIDTH 1400 0
DWIDTH 14 0
BBX 13 12 1 -2
BITMAP
1FC0
38E0
61B0
F7B8
F798
FF98
F7F8
F798
FFB8
61B0
39E0
1FC0
ENDCHAR
STARTCHAR C024105
ENCODING 10309
SWIDTH 1400 0
DWIDTH 14 0
BBX 13 12 1 -2
BITMAP
1FC0
38E0
61B0
EDB8
CD98
CD98
DFF8
F398
E1B8
61B0
39E0
1FC0
ENDCHAR
STARTCHAR C024106
ENCODING 10310
SWIDTH 1400 0
DWIDTH 14 0
BBX 13 12 1 -2
BITMAP
1FC0
38E0
61B0
FDB8
F798
F798
F7F8
F798
FDB8
61B0
39E0
1FC0
ENDCHAR
STARTCHAR C024107
ENCODING 10311
SWIDTH 1400 0
DWIDTH 14 0
BBX 13 12 1 -2
BITMAP
1FC0
38E0
61B0
FFB8
CD98
CD98
DFF8
DF98
F3B8
61B0
39E0
1FC0
ENDCHAR
STARTCHAR C024110
ENCODING 10312
SWIDTH 1400 0
DWIDTH 14 0
BBX 13 12 1 -2
BITMAP
1FC0
38E0
7FB0
E1B8
FF98
CD98
CDF8
DF98
F7B8
63B0
39E0
1FC0
ENDCHAR
STARTCHAR C024111
ENCODING 10313
SWIDTH 1400 0
DWIDTH 14 0
BBX 13 12 1 -2
BITMAP
1FC0
38E0
61B0
FFB8
C798
CF98
DFF8
CD98
EDB8
79B0
39E0
1FC0
ENDCHAR
STARTCHAR C024112
ENCODING 10314
SWIDTH 1400 0
DWIDTH 14 0
BBX 13 12 1 -2
BITMAP
1FC0
38E0
61B0
FFB8
F198
FF98
F1F8
F198
FFB8
61B0
39E0
1FC0
ENDCHAR
STARTCHAR C024113
ENCODING 10315
SWIDTH 1400 0
DWIDTH 14 0
BBX 13 12 1 -2
BITMAP
1FC0
38E0
61B0
FFB8
C198
DF98
DFF8
DF98
FFB8
61B0
39E0
1FC0
ENDCHAR
STARTCHAR C024114
ENCODING 10316
SWIDTH 1400 0
DWIDTH 14 0
BBX 13 12 1 -2
BITMAP
1FC0
38E0
7FB0
E1B8
FF98
DF98
F7F8
F798
FFB8
61B0
39E0
1FC0
ENDCHAR
STARTCHAR C024115
ENCODING 10317
SWIDTH 1400 0
DWIDTH 14 0
BBX 13 12 1 -2
BITMAP
1FC0
38E0
6030
E738
CD98
C198
CF98
CD98
EFB8
6030
38E0
1FC0
ENDCHAR
STARTCHAR C024116
ENCODING 10318
SWIDTH 1400 0
DWIDTH 14 0
BBX 13 12 1 -2
BITMAP
1FC0
38E0
7830
F838
DF18
DD98
D998
D998
F9B8
7F30
38E0
1FC0
ENDCHAR
STARTCHAR C024117
ENCODING 10319
SWIDTH 1400 0
DWIDTH 14 0
BBX 13 12 1 -2
BITMAP
1FC0
38E0
6030
EF38
D998
D998
D998
D998
EF38
6030
38E0
1FC0
ENDCHAR
STARTCHAR C024120
ENCODING 10320
SWIDTH 1400 0
DWIDTH 14 0
BBX 13 12 1 -2
BITMAP
1FC0
38E0
61B0
E1B8
CF98
D998
D998
D998
F9B8
6FB0
38E0
1FC0
ENDCHAR
STARTCHAR C024121
ENCODING 10321
SWIDTH 1400 0
DWIDTH 14 0
BBX 13 12 1 -2
BITMAP
1FC0
38E0
6030
EF38
D998
DF98
D818
D998
EF38
6030
38E0
1FC0
ENDCHAR
STARTCHAR C024122
ENCODING 10322
SWIDTH 1400 0
DWIDTH 14 0
BBX 13 12 1 -2
BITMAP
1FC0
38E0
6730
E638
CF18
C618
C618
C618
E638
6630
38E0
1FC0
ENDCHAR
STARTCHAR C024123
ENCODING 10323
SWIDTH 1400 0
DWIDTH 14 0
BBX 13 12 1 -2
BITMAP
1FC0
38E0
6FB0
F9B8
D998
D998
D998
CF98
F9B8
6F30
38E0
1FC0
ENDCHAR
STARTCHAR C024124
ENCODING 10324
SWIDTH 1400 0
DWIDTH 14 0
BBX 13 12 1 -2
BITMAP
1FC0
3CE0
6C30
EC38
CF98
CD98
CD98
CD98
EDB8
6DB0
38E0
1FC0
ENDCHAR
STARTCHAR C024125
ENCODING 10325
SWIDTH 1400 0
DWIDTH 14 0
BBX 13 12 1 -2
BITMAP
1FC0
38E0
6630
E038
C618
C618
C618
C618
E638
6630
38E0
1FC0
ENDCHAR
STARTCHAR C024126
ENCODING 10326
SWIDTH 1400 0
DWIDTH 14 0
BBX 13 12 1 -2
BITMAP
1FC0
3EE0
6030
E638
C618
C618
C618
C618
E638
6630
3EE0
1FC0
ENDCHAR
STARTCHAR C024127
ENCODING 10327
SWIDTH 1400 0
DWIDTH 14 0
BBX 13 12 1 -2
BITMAP
1FC0
3CE0
6C30
EC38
CD98
CF18
CF18
CF18
EDB8
6C30
38E0
1FC0
ENDCHAR
STARTCHAR C024130
ENCODING 10328
SWIDTH 1400 0
DWIDTH 14 0
BBX 13 12 1 -2
BITMAP
1FC0
38E0
6630
E638
C618
C618
C618
C618
E638
6630
38E0
1FC0
ENDCHAR
STARTCHAR C024131
ENCODING 10329
SWIDTH 1400 0
DWIDTH 14 0
BBX 13 12 1 -2
BITMAP
1FC0
38E0
6030
FFF8
F678
F678
F678
F678
F678
6030
38E0
1FC0
ENDCHAR
STARTCHAR C024132
ENCODING 10330
SWIDTH 1400 0
DWIDTH 14 0
BBX 13 12 1 -2
BITMAP
1FC0
38E0
6030
E7B8
CD98
CD98
CD98
CD98
EDB8
6030
38E0
1FC0
ENDCHAR
STARTCHAR C024133
ENCODING 10331
SWIDTH 1400 0
DWIDTH 14 0
BBX 13 12 1 -2
BITMAP
1FC0
38E0
6030
EF38
D998
D998
D998
D998
EF38
6030
38E0
1FC0
ENDCHAR
STARTCHAR C024134
ENCODING 10332
SWIDTH 1400 0
DWIDTH 14 0
BBX 13 12 1 -2
BITMAP
1FC0
38E0
7F30
F9B8
D998
D998
D998
DF18
F838
7830
38E0
1FC0
ENDCHAR
STARTCHAR C024135
ENCODING 10333
SWIDTH 1400 0
DWIDTH 14 0
BBX 13 12 1 -2
BITMAP
1FC0
38E0
6FF0
FDF8
D8D8
D8D8
D9D8
CFD8
E0F8
60F0
38E0
1FC0
ENDCHAR
STARTCHAR C024136
ENCODING 10334
SWIDTH 1400 0
DWIDTH 14 0
BBX 13 12 1 -2
BITMAP
1FC0
38E0
6030
EF38
CE18
CC18
CC18
CC18
EC38
6030
38E0
1FC0
ENDCHAR
STARTCHAR C024137
ENCODING 10335
SWIDTH 1400 0
DWIDTH 14 0
BBX 13 12 1 -2
BITMAP
1FC0
38E0
6F30
EDB8
CC18
C718
C198
CD98
E738
6030
38E0
1FC0
ENDCHAR
STARTCHAR C024140
ENCODING 10336
SWIDTH 1400 0
DWIDTH 14 0
BBX 13 12 1 -2
BITMAP
1FC0
3EE0
6630
EF38
C618
C618
C618
C618
E738
6030
38E0
1FC0
ENDCHAR
STARTCHAR C024141
ENCODING 10337
SWIDTH 1400 0
DWIDTH 14 0
BBX 13 12 1 -2
BITMAP
1FC0
38E0
6030
EDB8
CD98
CD98
CD98
CD98
EFB8
6030
38E0
1FC0
ENDCHAR
STARTCHAR C024142
ENCODING 10338
SWIDTH 1400 0
DWIDTH 14 0
BBX 13 12 1 -2
BITMAP
1FC0
38E0
6030
E1B8
CD98
CF18
CF18
C718
E638
6030
38E0
1FC0
ENDCHAR
STARTCHAR C024143
ENCODING 10339
SWIDTH 1400 0
DWIDTH 14 0
BBX 13 12 1 -2
BITMAP
1FC0
38E0
6030
F638
F7D8
DFD8
DFD8
DF98
EDB8
61B0
38E0
1FC0
ENDCHAR
STARTCHAR C024144
ENCODING 10340
SWIDTH 1400 0
DWIDTH 14 0
BBX 13 12 1 -2
BITMAP
1FC0
38E0
6030
EDB8
CF18
C618
C718
CF18
E1B8
6030
38E0
1FC0
ENDCHAR
STARTCHAR C024145
ENCODING 10341
SWIDTH 1400 0
DWIDTH 14 0
BBX 13 12 1 -2
BITMAP
1FC0
38E0
61B0
EDB8
CF18
CF18
C718
C618
E638
6E30
38E0
1FC0
ENDCHAR
STARTCHAR C024146
ENCODING 10342
SWIDTH 1400 0
DWIDTH 14 0
BBX 13 12 1 -2
BITMAP
1FC0
38E0
6030
FFB8
C318
C618
C618
CC18
EFB8
6030
38E0
1FC0
ENDCHAR
STARTCHAR C024147
ENCODING 10343
SWIDTH 1400 0
DWIDTH 14 0
BBX 13 12 1 -2
BITMAP
1FC0
38E0
6330
E338
CF18
C318
C318
C318
E338
6330
3BE0
1FC0
ENDCHAR
STARTCHAR C024150
ENCODING 10344
SWIDTH 1400 0
DWIDTH 14 0
BBX 13 12 1 -2
BITMAP
1FC0
38E0
6F30
F9B8
D998
C198
C718
CC18
F838
7FB0
38E0
1FC0
ENDCHAR
STARTCHAR C024151
ENCODING 10345
SWIDTH 1400 0
DWIDTH 14 0
BBX 13 12 1 -2
BITMAP
1FC0
38E0
6F30
F9B8
D998
C718
C198
D998
F9B8
6F30
38E0
1FC0
ENDCHAR
STARTCHAR C024152
ENCODING 10346
SWIDTH 1400 0
DWIDTH 14 0
BBX 13 12 1 -2
BITMAP
1FC0
38E0
6330
E738
CF18
DB18
DB18
DF98
E338
6330
38E0
1FC0
ENDCHAR
STARTCHAR C024153
ENCODING 10347
SWIDTH 1400 0
DWIDTH 14 0
BBX 13 12 1 -2
BITMAP
1FC0
38E0
6FB0
F838
DF18
D998
C198
D998
F9B8
6F30
38E0
1FC0
ENDCHAR
STARTCHAR C024154
ENCODING 10348
SWIDTH 1400 0
DWIDTH 14 0
BBX 13 12 1 -2
BITMAP
1FC0
38E0
6F30
EDB8
D998
DF18
DD98
D998
F9B8
6F30
38E0
1FC0
ENDCHAR
STARTCHAR C024155
ENCODING 10349
SWIDTH 1400 0
DWIDTH 14 0
BBX 13 12 1 -2
BITMAP
1FC0
38E0
7FF0
E1B8
C318
C318
C618
C618
E638
6030
38E0
1FC0
ENDCHAR
STARTCHAR C024156
ENCODING 10350
SWIDTH 1400 0
DWIDTH 14 0
BBX 13 12 1 -2
BITMAP
1FC0
38E0
6730
EDB8
CD98
C718
DD98
D998
F9B8
6F30
38E0
1FC0
ENDCHAR
STARTCHAR C024157
ENCODING 10351
SWIDTH 1400 0
DWIDTH 14 0
BBX 13 12 1 -2
BITMAP
1FC0
38E0
6730
EDB8
CD98
CD98
C798
D998
FB38
6F30
38E0
1FC0
ENDCHAR
STARTCHAR C024160
ENCODING 10352
SWIDTH 1400 0
DWIDTH 14 0
BBX 13 12 1 -2
BITMAP
1FC0
38E0
61F0
FB78
FB78
DB78
DB78
DB78
F9F8
7830
38E0
1FC0
ENDCHAR
STARTCHAR C024161
ENCODING 10353
SWIDTH 1400 0
DWIDTH 14 0
BBX 13 12 1 -2
BITMAP
1FC0
38E0
6030
F8F8
FBD8
D8D8
D8D8
D8D8
F8F8
78F0
38E0
1FC0
ENDCHAR
STARTCHAR C024162
ENCODING 10354
SWIDTH 1400 0
DWIDTH 14 0
BBX 13 12 1 -2
BITMAP
1FC0
38E0
61F0
FB78
FB78
D8D8
D998
DB18
FBF8
7830
38E0
1FC0
ENDCHAR
STARTCHAR C024163
ENCODING 10355
SWIDTH 1400 0
DWIDTH 14 0
BBX 13 12 1 -2
BITMAP
1FC0
38E0
61F0
FB78
FBD8
D9D8
D878
DB78
FBF8
7830
38E0
1FC0
ENDCHAR
STARTCHAR C024164
ENCODING 10356
SWIDTH 1400 0
DWIDTH 14 0
BBX 13 12 1 -2
BITMAP
1FC0
38E0
6030
F8F8
F9D8
DBD8
DBD8
DFF8
F8F8
78F0
38E0
1FC0
ENDCHAR
STARTCHAR C024165
ENCODING 10357
SWIDTH 1400 0
DWIDTH 14 0
BBX 13 12 1 -2
BITMAP
1FC0
38E0
63F0
FB38
FBD8
DB78
D878
DB78
FBF8
7830
38E0
1FC0
ENDCHAR
STARTCHAR C024166
ENCODING 10358
SWIDTH 1400 0
DWIDTH 14 0
BBX 11 10 2 0
BITMAP
3000
3300
F600
3600
3DE0
3F60
3860
18C0
3380
33E0
ENDCHAR
STARTCHAR C024167
ENCODING 10359
SWIDTH 1400 0
DWIDTH 14 0
BBX 11 9 2 0
BITMAP
3300
F600
3600
3DC0
3F60
38C0
18C0
3360
33C0
ENDCHAR
STARTCHAR C024170
ENCODING 10360
SWIDTH 1400 0
DWIDTH 14 0
BBX 11 9 2 0
BITMAP
F800
DB00
3600
67C0
CF60
FCC0
18C0
1B60
03C0
ENDCHAR
STARTCHAR C024171
ENCODING 10361
SWIDTH 1400 0
DWIDTH 14 0
BBX 10 10 2 0
BITMAP
3000
3300
F600
36C0
3DC0
3FC0
3BC0
1EC0
33C0
30C0
ENDCHAR
STARTCHAR C024172
ENCODING 10362
SWIDTH 1400 0
DWIDTH 14 0
BBX 10 10 2 0
BITMAP
3000
FB00
1B00
36C0
1FC0
DFC0
7FC0
1EC0
1BC0
00C0
ENDCHAR
STARTCHAR C024173
ENCODING 10363
SWIDTH 1400 0
DWIDTH 14 0
BBX 11 9 2 0
BITMAP
3300
F600
3600
3DC0
3F60
3BC0
1BC0
3360
33C0
ENDCHAR
STARTCHAR C024174
ENCODING 10364
SWIDTH 1400 0
DWIDTH 14 0
BBX 11 9 2 0
BITMAP
F300
DB00
7600
1FC0
DF60
7FC0
1BC0
1B60
33C0
ENDCHAR
STARTCHAR C024175
ENCODING 10365
SWIDTH 1400 0
DWIDTH 14 0
BBX 11 9 2 0
BITMAP
F300
C300
FE00
1FC0
DF60
7FC0
1BC0
1B60
33C0
ENDCHAR
STARTCHAR C024176
ENCODING 10366
SWIDTH 1400 0
DWIDTH 14 0
BBX 10 9 3 0
BITMAP
F600
6C00
6C00
DB80
DEC0
F780
3780
66C0
6780
ENDCHAR
STARTCHAR C024177
ENCODING 10367
SWIDTH 1400 0
DWIDTH 14 0
BBX 0 0 0 0
BITMAP
ENDCHAR
STARTCHAR C024441
ENCODING 10529
SWIDTH 1400 0
DWIDTH 14 0
BBX 11 7 2 0
BITMAP
7FC0
CCC0
0CC0
7FE0
CC00
DC00
7FC0
ENDCHAR
STARTCHAR C024442
ENCODING 10530
SWIDTH 1400 0
DWIDTH 14 0
BBX 7 9 4 0
BITMAP
0C
3E
7C
DC
CC
CC
CC
CC
7C
ENDCHAR
STARTCHAR C024443
ENCODING 10531
SWIDTH 1400 0
DWIDTH 14 0
BBX 6 10 4 0
BITMAP
18
70
70
18
38
EC
CC
CC
CC
78
ENDCHAR
STARTCHAR C024444
ENCODING 10532
SWIDTH 1400 0
DWIDTH 14 0
BBX 8 9 3 0
BITMAP
30
FC
30
3F
33
33
33
33
33
ENDCHAR
STARTCHAR C024445
ENCODING 10533
SWIDTH 1400 0
DWIDTH 14 0
BBX 0 0 0 0
BITMAP
ENDCHAR
STARTCHAR C024446
ENCODING 10534
SWIDTH 1400 0
DWIDTH 14 0
BBX 5 11 5 -2
BITMAP
D8
00
D8
D8
D8
D8
D8
D8
D8
18
30
ENDCHAR
STARTCHAR C024447
ENCODING 10535
SWIDTH 1400 0
DWIDTH 14 0
BBX 6 7 4 0
BITMAP
CC
D8
F0
F0
D8
D8
CC
ENDCHAR
STARTCHAR C024450
ENCODING 10536
SWIDTH 1400 0
DWIDTH 14 0
BBX 5 9 5 0
BITMAP
C0
C0
C0
C0
D8
C0
C0
C0
C0
ENDCHAR
STARTCHAR C024451
ENCODING 10537
SWIDTH 1400 0
DWIDTH 14 0
BBX 5 9 4 0
BITMAP
30
30
38
38
30
70
F0
30
30
ENDCHAR
STARTCHAR C024452
ENCODING 10538
SWIDTH 1400 0
DWIDTH 14 0
BBX 9 8 3 -1
BITMAP
3F80
6780
6D80
7980
7180
6300
FF00
0C00
ENDCHAR
STARTCHAR C024453
ENCODING 10539
SWIDTH 1400 0
DWIDTH 14 0
BBX 11 7 2 0
BITMAP
7BC0
EE60
CC60
C7E0
CC00
C660
7FC0
ENDCHAR
STARTCHAR C024454
ENCODING 10540
SWIDTH 1400 0
DWIDTH 14 0
BBX 7 10 4 0
BITMAP
38
6C
CC
CC
F8
CC
C6
C6
C6
FC
ENDCHAR
STARTCHAR C024455
ENCODING 10541
SWIDTH 1400 0
DWIDTH 14 0
BBX 7 10 4 -1
BITMAP
C0
C0
FC
EE
C6
C6
C6
CE
FC
C0
ENDCHAR
STARTCHAR C024456
ENCODING 10542
SWIDTH 1400 0
DWIDTH 14 0
BBX 4 9 5 -1
BITMAP
60
60
F0
60
F0
60
60
60
30
ENDCHAR
STARTCHAR C024457
ENCODING 10543
SWIDTH 1400 0
DWIDTH 14 0
BBX 6 9 4 -2
BITMAP
F8
EC
CC
CC
CC
CC
CC
0C
38
ENDCHAR
STARTCHAR C024460
ENCODING 10544
SWIDTH 1400 0
DWIDTH 14 0
BBX 8 8 3 0
BITMAP
60
FE
FB
33
33
33
33
33
ENDCHAR
STARTCHAR C024461
ENCODING 10545
SWIDTH 1400 0
DWIDTH 14 0
BBX 12 11 1 -1
BITMAP
30C0
6060
6060
FFF0
C0F0
C0F0
C0F0
C0F0
C1E0
6060
30C0
ENDCHAR
STARTCHAR C024462
ENCODING 10546
SWIDTH 1400 0
DWIDTH 14 0
BBX 12 11 1 -1
BITMAP
30C0
6060
6060
D830
D830
D830
D830
D830
DFE0
6060
30C0
ENDCHAR
STARTCHAR C024463
ENCODING 10547
SWIDTH 1400 0
DWIDTH 14 0
BBX 12 11 1 -1
BITMAP
30C0
6060
6060
DFF0
D830
D830
D830
D830
DFE0
6060
30C0
ENDCHAR
STARTCHAR C024464
ENCODING 10548
SWIDTH 1400 0
DWIDTH 14 0
BBX 12 11 1 -1
BITMAP
3000
6060
6060
DFF0
C0F0
DFF0
D830
D830
DFE0
6060
30C0
ENDCHAR
STARTCHAR C024465
ENCODING 10549
SWIDTH 1400 0
DWIDTH 14 0
BBX 12 11 1 -1
BITMAP
30C0
6060
6060
DFF0
D8F0
D8F0
D8F0
DFF0
C060
6060
30C0
ENDCHAR
STARTCHAR C024466
ENCODING 10550
SWIDTH 1400 0
DWIDTH 14 0
BBX 12 11 1 -1
BITMAP
30C0
6060
6060
D8F0
D8F0
DFF0
D8F0
D8F0
DFE0
6060
30C0
ENDCHAR
STARTCHAR C024467
ENCODING 10551
SWIDTH 1400 0
DWIDTH 14 0
BBX 12 11 1 -1
BITMAP
30C0
6060
6060
C630
C630
C630
CF30
D9B0
F0E0
6060
30C0
ENDCHAR
STARTCHAR C024470
ENCODING 10552
SWIDTH 1400 0
DWIDTH 14 0
BBX 12 11 1 -1
BITMAP
30C0
6060
6FE0
DDF0
D8F0
D8F0
D8F0
DDB0
CFE0
6060
30C0
ENDCHAR
STARTCHAR C024471
ENCODING 10553
SWIDTH 1400 0
DWIDTH 14 0
BBX 12 11 1 -1
BITMAP
30C0
6060
6060
FFF0
C630
CE30
CF30
D9B0
F0E0
6060
30C0
ENDCHAR
STARTCHAR C024472
ENCODING 10554
SWIDTH 1400 0
DWIDTH 14 0
BBX 12 11 1 -1
BITMAP
30C0
6060
6FE0
C030
FFF0
C630
C730
CDB0
F8E0
6060
30C0
ENDCHAR
STARTCHAR C024473
ENCODING 10555
SWIDTH 1400 0
DWIDTH 14 0
BBX 12 11 1 -1
BITMAP
30C0
6060
6060
FFF0
C0F0
C3F0
DEF0
C0F0
C1E0
6060
30C0
ENDCHAR
STARTCHAR C024474
ENCODING 10556
SWIDTH 1400 0
DWIDTH 14 0
BBX 12 11 1 -1
BITMAP
30C0
6060
6060
DFF0
D830
DFF0
D830
D830
DFE0
6060
30C0
ENDCHAR
STARTCHAR C024475
ENCODING 10557
SWIDTH 1400 0
DWIDTH 14 0
BBX 12 11 1 -1
BITMAP
30C0
6060
6060
DFF0
C030
CDB0
CDB0
CDB0
FFE0
6060
30C0
ENDCHAR
STARTCHAR C024476
ENCODING 10558
SWIDTH 1400 0
DWIDTH 14 0
BBX 12 11 1 -1
BITMAP
30C0
6060
6FE0
C030
FFF0
CFB0
D9B0
D9B0
CFE0
6060
30C0
ENDCHAR
STARTCHAR C024477
ENCODING 10559
SWIDTH 1400 0
DWIDTH 14 0
BBX 13 11 1 -1
BITMAP
3000
6000
61B0
FFB0
C798
C798
CDF8
D998
F198
61B0
31E0
ENDCHAR
STARTCHAR C024500
ENCODING 10560
SWIDTH 1400 0
DWIDTH 14 0
BBX 13 11 1 -1
BITMAP
3000
61B0
61B0
F198
F198
F1F8
F198
F798
DDB0
61E0
3000
ENDCHAR
STARTCHAR C024501
ENCODING 10561
SWIDTH 1400 0
DWIDTH 14 0
BBX 13 11 1 -1
BITMAP
3000
6000
61B0
FFB0
F198
F198
F1F8
F398
FF98
61B0
31E0
ENDCHAR
STARTCHAR C024502
ENCODING 10562
SWIDTH 1400 0
DWIDTH 14 0
BBX 13 11 1 -1
BITMAP
3060
6030
61B0
FF98
C798
FF98
F1F8
F198
FFB0
61B0
61E0
ENDCHAR
STARTCHAR C024503
ENCODING 10563
SWIDTH 1400 0
DWIDTH 14 0
BBX 13 11 1 -1
BITMAP
3000
6000
61B0
FFB0
F798
F798
F7F8
FF98
C198
61B0
31E0
ENDCHAR
STARTCHAR C024504
ENCODING 10564
SWIDTH 1400 0
DWIDTH 14 0
BBX 13 11 1 -1
BITMAP
3000
6000
61B0
F7B0
F798
FF98
F7F8
F798
FF98
61B0
31E0
ENDCHAR
STARTCHAR C024505
ENCODING 10565
SWIDTH 1400 0
DWIDTH 14 0
BBX 13 11 1 -1
BITMAP
3000
6000
61B0
CDB0
CD98
CD98
DFF8
DF98
F398
61B0
31E0
ENDCHAR
STARTCHAR C024506
ENCODING 10566
SWIDTH 1400 0
DWIDTH 14 0
BBX 13 11 1 -1
BITMAP
3000
6000
61B0
DDB0
F798
F798
F7F8
F798
DD98
61B0
31E0
ENDCHAR
STARTCHAR C024507
ENCODING 10567
SWIDTH 1400 0
DWIDTH 14 0
BBX 13 11 1 -1
BITMAP
3000
6000
61B0
FFB0
CD98
CD98
DDF8
DF98
F398
61B0
31E0
ENDCHAR
STARTCHAR C024510
ENCODING 10568
SWIDTH 1400 0
DWIDTH 14 0
BBX 13 11 1 -1
BITMAP
3000
6000
7FB0
C1B0
FF98
CD98
CDF8
DF98
F398
61B0
31E0
ENDCHAR
STARTCHAR C024511
ENCODING 10569
SWIDTH 1400 0
DWIDTH 14 0
BBX 12 11 1 -1
BITMAP
3000
6000
61E0
FFE0
C7B0
FFB0
C7F0
CDB0
D9B0
61E0
31C0
ENDCHAR
STARTCHAR C024512
ENCODING 10570
SWIDTH 1400 0
DWIDTH 14 0
BBX 12 11 1 -1
BITMAP
3000
6000
61E0
FFE0
F1B0
FFB0
F1F0
F1B0
FFB0
61E0
31C0
ENDCHAR
STARTCHAR C024513
ENCODING 10571
SWIDTH 1400 0
DWIDTH 14 0
BBX 12 11 1 -1
BITMAP
3000
6000
61E0
FFE0
C1B0
DFB0
DFF0
DFB0
FFB0
61E0
31C0
ENDCHAR
STARTCHAR C024514
ENCODING 10572
SWIDTH 1400 0
DWIDTH 14 0
BBX 12 11 1 -1
BITMAP
3000
6000
7FE0
C1E0
FFB0
DFB0
F7F0
F7B0
DFB0
61E0
31C0
ENDCHAR
STARTCHAR C024515
ENCODING 10573
SWIDTH 1400 0
DWIDTH 14 0
BBX 12 11 1 -1
BITMAP
30C0
6060
6060
C730
CDB0
C1B0
CFB0
CDB0
CFE0
6060
30C0
ENDCHAR
STARTCHAR C024516
ENCODING 10574
SWIDTH 1400 0
DWIDTH 14 0
BBX 12 11 1 -1
BITMAP
30C0
6060
6C60
CC30
CFB0
CCF0
CCF0
CCF0
CCE0
6FE0
30C0
ENDCHAR
STARTCHAR C024517
ENCODING 10575
SWIDTH 1400 0
DWIDTH 14 0
BBX 12 11 1 -1
BITMAP
30C0
6060
6060
CF30
D9B0
D9B0
D9B0
D9B0
CF60
6060
30C0
ENDCHAR
STARTCHAR C024520
ENCODING 10576
SWIDTH 1400 0
DWIDTH 14 0
BBX 12 11 1 -1
BITMAP
30C0
6060
61E0
C1B0
CFB0
D9B0
D9B0
D9B0
D9E0
6FE0
30C0
ENDCHAR
STARTCHAR C024521
ENCODING 10577
SWIDTH 1400 0
DWIDTH 14 0
BBX 12 11 1 -1
BITMAP
30C0
6060
6060
CF30
D9B0
DFB0
D830
D9B0
CF60
6060
30C0
ENDCHAR
STARTCHAR C024522
ENCODING 10578
SWIDTH 1400 0
DWIDTH 14 0
BBX 12 11 1 -1
BITMAP
30C0
6060
6760
C630
CF30
C630
C630
C630
C660
6660
30C0
ENDCHAR
STARTCHAR C024523
ENCODING 10579
SWIDTH 1400 0
DWIDTH 14 0
BBX 12 11 1 -1
BITMAP
30C0
6060
6FE0
D9B0
D9B0
D9B0
D9B0
CFB0
D9E0
6F60
30C0
ENDCHAR
STARTCHAR C024524
ENCODING 10580
SWIDTH 1400 0
DWIDTH 14 0
BBX 12 11 1 -1
BITMAP
30C0
6C60
6C60
CC30
CFB0
CDB0
CDB0
CDB0
CDE0
6DE0
30C0
ENDCHAR
STARTCHAR C024525
ENCODING 10581
SWIDTH 1400 0
DWIDTH 14 0
BBX 12 11 1 -1
BITMAP
30C0
6060
6660
C030
C630
C630
C630
C630
C660
6660
30C0
ENDCHAR
STARTCHAR C024526
ENCODING 10582
SWIDTH 1400 0
DWIDTH 14 0
BBX 12 11 1 -1
BITMAP
30C0
6660
6060
C630
C630
C630
C630
C630
C660
6660
3EC0
ENDCHAR
STARTCHAR C024527
ENCODING 10583
SWIDTH 1400 0
DWIDTH 14 0
BBX 12 11 1 -1
BITMAP
30C0
6C60
6C60
CC30
CDB0
CF30
CF30
CF30
CDE0
6C60
30C0
ENDCHAR
STARTCHAR C024530
ENCODING 10584
SWIDTH 1400 0
DWIDTH 14 0
BBX 12 11 1 -1
BITMAP
30C0
6060
6660
C630
C630
C630
C630
C630
C660
6660
30C0
ENDCHAR
STARTCHAR C024531
ENCODING 10585
SWIDTH 1400 0
DWIDTH 14 0
BBX 12 11 1 -1
BITMAP
30C0
6060
6060
FFF0
F670
F670
F670
F670
F660
6060
30C0
ENDCHAR
STARTCHAR C024532
ENCODING 10586
SWIDTH 1400 0
DWIDTH 14 0
BBX 12 11 1 -1
BITMAP
30C0
6060
6060
C7B0
CDB0
CDB0
CDB0
CDB0
CDE0
6060
30C0
ENDCHAR
STARTCHAR C024533
ENCODING 10587
SWIDTH 1400 0
DWIDTH 14 0
BBX 12 11 1 -1
BITMAP
30C0
6060
6060
CF30
D9B0
D9B0
D9B0
D9B0
CF60
6060
30C0
ENDCHAR
STARTCHAR C024534
ENCODING 10588
SWIDTH 1400 0
DWIDTH 14 0
BBX 12 11 1 -1
BITMAP
30C0
6060
6FE0
CCF0
CCF0
CCF0
CCF0
CFB0
CC60
6C60
30C0
ENDCHAR
STARTCHAR C024535
ENCODING 10589
SWIDTH 1400 0
DWIDTH 14 0
BBX 12 11 1 -1
BITMAP
30C0
6060
6FE0
D9B0
D9B0
D9B0
D9B0
CFB0
C1E0
61E0
30C0
ENDCHAR
STARTCHAR C024536
ENCODING 10590
SWIDTH 1400 0
DWIDTH 14 0
BBX 12 11 1 -1
BITMAP
30C0
6060
6060
CFB0
CE30
CC30
CC30
CC30
CC60
6060
30C0
ENDCHAR
STARTCHAR C024537
ENCODING 10591
SWIDTH 1400 0
DWIDTH 14 0
BBX 12 11 1 -1
BITMAP
30C0
6060
6F60
CDB0
CC30
C730
C1B0
CDB0
C760
6060
30C0
ENDCHAR
STARTCHAR C024540
ENCODING 10592
SWIDTH 1400 0
DWIDTH 14 0
BBX 12 11 1 -1
BITMAP
30C0
6660
6660
CF30
C630
C630
C630
C630
C760
6060
30C0
ENDCHAR
STARTCHAR C024541
ENCODING 10593
SWIDTH 1400 0
DWIDTH 14 0
BBX 12 11 1 -1
BITMAP
30C0
6060
6060
CDB0
CDB0
CDB0
CDB0
CDB0
CFE0
6060
30C0
ENDCHAR
STARTCHAR C024542
ENCODING 10594
SWIDTH 1400 0
DWIDTH 14 0
BBX 12 11 1 -1
BITMAP
30C0
6060
6060
C1B0
CDB0
CF30
CF30
C730
C660
6060
30C0
ENDCHAR
STARTCHAR C024543
ENCODING 10595
SWIDTH 1400 0
DWIDTH 14 0
BBX 12 11 1 -1
BITMAP
30C0
6060
6060
F630
F7F0
DFF0
DFF0
DFB0
CDE0
6DE0
30C0
ENDCHAR
STARTCHAR C024544
ENCODING 10596
SWIDTH 1400 0
DWIDTH 14 0
BBX 12 11 1 -1
BITMAP
30C0
6060
6060
CDB0
CF30
C630
C730
CF30
C1E0
6060
30C0
ENDCHAR
STARTCHAR C024545
ENCODING 10597
SWIDTH 1400 0
DWIDTH 14 0
BBX 12 11 1 -1
BITMAP
30C0
6060
61E0
CDB0
CF30
CF30
C730
C630
C660
6660
30C0
ENDCHAR
STARTCHAR C024546
ENCODING 10598
SWIDTH 1400 0
DWIDTH 14 0
BBX 12 11 1 -1
BITMAP
30C0
6060
6060
DFB0
C330
C630
C630
CC30
CFE0
6060
30C0
ENDCHAR
STARTCHAR C024547
ENCODING 10599
SWIDTH 1400 0
DWIDTH 14 0
BBX 12 11 1 -1
BITMAP
30C0
6360
6360
CF30
C330
C330
C330
C330
C360
6360
30C0
ENDCHAR
STARTCHAR C024550
ENCODING 10600
SWIDTH 1400 0
DWIDTH 14 0
BBX 12 11 1 -1
BITMAP
30C0
6F60
79E0
D9B0
C1B0
C330
C630
CC30
D860
7FE0
30C0
ENDCHAR
STARTCHAR C024551
ENCODING 10601
SWIDTH 1400 0
DWIDTH 14 0
BBX 12 11 1 -1
BITMAP
30C0
6060
6760
CDB0
CDB0
C730
C1B0
D8F0
DCE0
6FE0
30C0
ENDCHAR
STARTCHAR C024552
ENCODING 10602
SWIDTH 1400 0
DWIDTH 14 0
BBX 12 11 1 -1
BITMAP
30C0
6060
6360
C730
CF30
DB30
DB30
DFB0
C360
6360
30C0
ENDCHAR
STARTCHAR C024553
ENCODING 10603
SWIDTH 1400 0
DWIDTH 14 0
BBX 12 11 1 -1
BITMAP
30C0
6060
6FE0
D830
DF30
D9B0
C1B0
D9B0
D9E0
6F60
30C0
ENDCHAR
STARTCHAR C024554
ENCODING 10604
SWIDTH 1400 0
DWIDTH 14 0
BBX 12 11 1 -1
BITMAP
30C0
6060
6F60
CDB0
D9B0
DF30
DDB0
D9B0
D9E0
6F60
30C0
ENDCHAR
STARTCHAR C024555
ENCODING 10605
SWIDTH 1400 0
DWIDTH 14 0
BBX 12 11 1 -1
BITMAP
30C0
6060
7FE0
C1B0
C330
C330
C630
C630
C660
6060
30C0
ENDCHAR
STARTCHAR C024556
ENCODING 10606
SWIDTH 1400 0
DWIDTH 14 0
BBX 12 11 1 -1
BITMAP
30C0
6060
6760
CDB0
CDB0
C730
DDB0
D9B0
D9E0
6F60
30C0
ENDCHAR
STARTCHAR C024557
ENCODING 10607
SWIDTH 1400 0
DWIDTH 14 0
BBX 12 11 1 -1
BITMAP
30C0
6060
67E0
CCF0
CCF0
CCF0
C7F0
CCF0
CDE0
67E0
30C0
ENDCHAR
STARTCHAR C024560
ENCODING 10608
SWIDTH 1400 0
DWIDTH 14 0
BBX 12 11 1 -1
BITMAP
30C0
61E0
7BE0
FB70
DB70
DB70
DB70
DB70
DB60
7BE0
38C0
ENDCHAR
STARTCHAR C024561
ENCODING 10609
SWIDTH 1400 0
DWIDTH 14 0
BBX 12 11 1 -1
BITMAP
30C0
6060
78E0
F9F0
D8F0
D8F0
D8F0
D8F0
D8E0
78E0
38C0
ENDCHAR
STARTCHAR C024562
ENCODING 10610
SWIDTH 1400 0
DWIDTH 14 0
BBX 12 11 1 -1
BITMAP
30C0
6060
7BE0
F8F0
D8F0
D9B0
DB30
DB30
DE60
7E60
3FC0
ENDCHAR
STARTCHAR C024563
ENCODING 10611
SWIDTH 1400 0
DWIDTH 14 0
BBX 12 11 1 -1
BITMAP
30C0
61E0
7BE0
F8F0
D8F0
DBB0
D8F0
D8F0
DBE0
7BE0
39C0
ENDCHAR
STARTCHAR C024564
ENCODING 10612
SWIDTH 1400 0
DWIDTH 14 0
BBX 12 11 1 -1
BITMAP
30C0
61E0
79E0
FBF0
DBF0
DBF0
DEF0
DFF0
D8E0
78E0
38C0
ENDCHAR
STARTCHAR C024565
ENCODING 10613
SWIDTH 1400 0
DWIDTH 14 0
BBX 12 11 1 -1
BITMAP
30C0
63E0
7B60
FB30
DB30
DBF0
D8F0
D8F0
DBE0
7BE0
39C0
ENDCHAR
STARTCHAR C024566
ENCODING 10614
SWIDTH 1400 0
DWIDTH 14 0
BBX 4 6 5 4
BITMAP
30
F0
30
30
30
30
ENDCHAR
STARTCHAR C024567
ENCODING 10615
SWIDTH 1400 0
DWIDTH 14 0
BBX 5 7 5 4
BITMAP
70
D8
18
30
60
C0
F8
ENDCHAR
STARTCHAR C024570
ENCODING 10616
SWIDTH 1400 0
DWIDTH 14 0
BBX 5 7 5 4
BITMAP
F0
F0
30
70
18
D8
F0
ENDCHAR
STARTCHAR C024571
ENCODING 10617
SWIDTH 1400 0
DWIDTH 14 0
BBX 5 6 5 5
BITMAP
30
70
F0
30
F8
30
ENDCHAR
STARTCHAR C024572
ENCODING 10618
SWIDTH 1400 0
DWIDTH 14 0
BBX 5 4 5 6
BITMAP
F8
D8
D8
D8
ENDCHAR
STARTCHAR C024573
ENCODING 10619
SWIDTH 1400 0
DWIDTH 14 0
BBX 4 6 5 -2
BITMAP
30
F0
30
30
30
30
ENDCHAR
STARTCHAR C024574
ENCODING 10620
SWIDTH 1400 0
DWIDTH 14 0
BBX 5 6 5 -2
BITMAP
F8
D8
18
70
C0
F8
ENDCHAR
STARTCHAR C024575
ENCODING 10621
SWIDTH 1400 0
DWIDTH 14 0
BBX 5 7 5 -2
BITMAP
70
F0
30
70
18
D8
70
ENDCHAR
STARTCHAR C024576
ENCODING 10622
SWIDTH 1400 0
DWIDTH 14 0
BBX 5 7 5 -2
BITMAP
30
70
F0
F0
F8
30
30
ENDCHAR
STARTCHAR C024577
ENCODING 10623
SWIDTH 1400 0
DWIDTH 14 0
BBX 0 0 0 0
BITMAP
ENDCHAR
STARTCHAR C025041
ENCODING 10785
SWIDTH 1400 0
DWIDTH 14 0
BBX 8 7 3 -1
BITMAP
30
7C
30
3F
FB
F3
7E
ENDCHAR
STARTCHAR C025042
ENCODING 10786
SWIDTH 1400 0
DWIDTH 14 0
BBX 11 10 2 -1
BITMAP
1B00
7E00
1B00
1B00
1FC0
7E60
DE60
DC60
D8C0
7D80
ENDCHAR
STARTCHAR C025043
ENCODING 10787
SWIDTH 1400 0
DWIDTH 14 0
BBX 7 6 4 -1
BITMAP
C0
CC
C6
C6
D8
70
ENDCHAR
STARTCHAR C025044
ENCODING 10788
SWIDTH 1400 0
DWIDTH 14 0
BBX 11 9 2 0
BITMAP
C000
C180
C180
C0C0
C0C0
C060
6C60
7800
3000
ENDCHAR
STARTCHAR C025045
ENCODING 10789
SWIDTH 1400 0
DWIDTH 14 0
BBX 5 8 5 -1
BITMAP
60
30
70
D8
18
18
30
30
ENDCHAR
STARTCHAR C025046
ENCODING 10790
SWIDTH 1400 0
DWIDTH 14 0
BBX 7 12 3 -2
BITMAP
30
1C
00
3C
E6
06
06
06
0C
0C
18
30
ENDCHAR
STARTCHAR C025047
ENCODING 10791
SWIDTH 1400 0
DWIDTH 14 0
BBX 6 8 4 -2
BITMAP
38
00
78
30
38
78
D8
0C
ENDCHAR
STARTCHAR C025050
ENCODING 10792
SWIDTH 1400 0
DWIDTH 14 0
BBX 9 11 3 -1
BITMAP
3000
1C00
0600
0E00
FC00
1800
1800
3C00
6C00
CC00
C780
ENDCHAR
STARTCHAR C025051
ENCODING 10793
SWIDTH 1400 0
DWIDTH 14 0
BBX 7 8 4 -2
BITMAP
60
7E
60
7C
EC
6C
6C
C0
ENDCHAR
STARTCHAR C025052
ENCODING 10794
SWIDTH 1400 0
DWIDTH 14 0
BBX 11 11 2 -1
BITMAP
1800
1800
1EC0
7C60
1800
1F80
1CC0
70C0
F0C0
F180
7700
ENDCHAR
STARTCHAR C025053
ENCODING 10795
SWIDTH 1400 0
DWIDTH 14 0
BBX 11 10 2 -1
BITMAP
1800
1800
1EC0
F3C0
3360
3300
6300
6600
C600
1C00
ENDCHAR
STARTCHAR C025054
ENCODING 10796
SWIDTH 1400 0
DWIDTH 14 0
BBX 11 11 2 -1
BITMAP
0060
18C0
1800
1FC0
F3C0
3360
3300
6300
6600
C600
1C00
ENDCHAR
STARTCHAR C025055
ENCODING 10797
SWIDTH 1400 0
DWIDTH 14 0
BBX 8 11 3 -2
BITMAP
18
1C
3F
0E
FC
06
7F
C3
C0
60
3C
ENDCHAR
STARTCHAR C025056
ENCODING 10798
SWIDTH 1400 0
DWIDTH 14 0
BBX 10 12 3 -2
BITMAP
00C0
1980
1C00
3F00
0E00
FC00
0600
7F00
C300
C000
6000
3C00
ENDCHAR
STARTCHAR C025057
ENCODING 10799
SWIDTH 1400 0
DWIDTH 14 0
BBX 6 12 4 -2
BITMAP
0C
18
30
30
60
C0
60
60
30
18
18
0C
ENDCHAR
STARTCHAR C025060
ENCODING 10800
SWIDTH 1400 0
DWIDTH 14 0
BBX 8 11 4 -2
BITMAP
18
33
36
60
C0
60
60
30
18
18
0C
ENDCHAR
STARTCHAR C025061
ENCODING 10801
SWIDTH 1400 0
DWIDTH 14 0
BBX 11 12 2 -2
BITMAP
0180
6180
C1E0
CFC0
C180
C180
C180
C180
E180
6300
6600
0600
ENDCHAR
STARTCHAR C025062
ENCODING 10802
SWIDTH 1400 0
DWIDTH 14 0
BBX 12 13 2 -2
BITMAP
0060
01F0
61E0
C1E0
CFC0
C180
C180
C180
C180
E180
6300
6600
0600
ENDCHAR
STARTCHAR C025063
ENCODING 10803
SWIDTH 1400 0
DWIDTH 14 0
BBX 8 8 3 0
BITMAP
7E
00
00
00
00
00
C0
7F
ENDCHAR
STARTCHAR C025064
ENCODING 10804
SWIDTH 1400 0
DWIDTH 14 0
BBX 11 8 3 0
BITMAP
7EC0
01E0
00C0
0000
0000
0000
C000
7F00
ENDCHAR
STARTCHAR C025065
ENCODING 10805
SWIDTH 1400 0
DWIDTH 14 0
BBX 8 12 3 -2
BITMAP
18
18
0F
FC
0C
06
3F
E7
C0
C0
76
1C
ENDCHAR
STARTCHAR C025066
ENCODING 10806
SWIDTH 1400 0
DWIDTH 14 0
BBX 10 11 3 -1
BITMAP
1800
1800
0FC0
7C00
0600
0600
7F00
C000
C000
6000
3E00
ENDCHAR
STARTCHAR C025067
ENCODING 10807
SWIDTH 1400 0
DWIDTH 14 0
BBX 8 10 4 -1
BITMAP
C0
C0
C0
C0
C0
C0
C0
C3
C6
7C
ENDCHAR
STARTCHAR C025070
ENCODING 10808
SWIDTH 1400 0
DWIDTH 14 0
BBX 8 10 4 -1
BITMAP
C6
CC
C0
C0
C0
C0
C0
C3
C6
7C
ENDCHAR
STARTCHAR C025071
ENCODING 10809
SWIDTH 1400 0
DWIDTH 14 0
BBX 11 12 2 -2
BITMAP
0600
0600
FFE0
0600
1E00
3600
3600
3600
1E00
0C00
0C00
1800
ENDCHAR
STARTCHAR C025072
ENCODING 10810
SWIDTH 1400 0
DWIDTH 14 0
BBX 11 13 2 -2
BITMAP
00C0
0660
0600
FFE0
0600
1E00
3600
3600
3600
1E00
0C00
0C00
1800
ENDCHAR
STARTCHAR C025073
ENCODING 10811
SWIDTH 1400 0
DWIDTH 14 0
BBX 13 10 1 -1
BITMAP
18C0
18C0
18C0
FFF8
1980
1980
1800
1B00
1800
0FC0
ENDCHAR
STARTCHAR C025074
ENCODING 10812
SWIDTH 1400 0
DWIDTH 14 0
BBX 13 11 1 -1
BITMAP
0030
18F8
18F0
18C0
FFF8
1980
1980
1800
1B00
1800
0FC0
ENDCHAR
STARTCHAR C025075
ENCODING 10813
SWIDTH 1400 0
DWIDTH 14 0
BBX 10 11 3 -1
BITMAP
0300
6600
3600
0DC0
7F00
CE00
1800
1800
1800
0C00
0700
ENDCHAR
STARTCHAR C025076
ENCODING 10814
SWIDTH 1400 0
DWIDTH 14 0
BBX 10 11 3 -1
BITMAP
0300
6600
3780
0DC0
7F00
CE00
1800
1800
1800
0C00
0700
ENDCHAR
STARTCHAR C025077
ENCODING 10815
SWIDTH 1400 0
DWIDTH 14 0
BBX 10 11 2 -1
BITMAP
1800
1800
1800
FE00
1FC0
3000
3000
3000
6000
6E00
63C0
ENDCHAR
STARTCHAR C025100
ENCODING 10816
SWIDTH 1400 0
DWIDTH 14 0
BBX 11 11 2 -1
BITMAP
1800
1860
18C0
FE00
1FC0
3000
3000
3000
6000
6E00
63C0
ENDCHAR
STARTCHAR C025101
ENCODING 10817
SWIDTH 1400 0
DWIDTH 14 0
BBX 9 11 3 -1
BITMAP
3000
3000
FE00
3000
3000
3F00
3980
6180
0180
0300
3E00
ENDCHAR
STARTCHAR C025102
ENCODING 10818
SWIDTH 1400 0
DWIDTH 14 0
BBX 10 11 3 -1
BITMAP
3000
30C0
FF80
3000
3000
3F00
3980
6180
0180
0300
3E00
ENDCHAR
STARTCHAR C025103
ENCODING 10819
SWIDTH 1400 0
DWIDTH 14 0
BBX 7 6 4 -1
BITMAP
3C
E6
06
06
0C
38
ENDCHAR
STARTCHAR C025104
ENCODING 10820
SWIDTH 1400 0
DWIDTH 14 0
BBX 10 8 2 0
BITMAP
0F00
F9C0
00C0
00C0
00C0
00C0
0180
0F00
ENDCHAR
STARTCHAR C025105
ENCODING 10821
SWIDTH 1400 0
DWIDTH 14 0
BBX 12 10 2 0
BITMAP
0060
00F0
3FE0
E0C0
00C0
00C0
00C0
00C0
0380
0E00
ENDCHAR
STARTCHAR C025106
ENCODING 10822
SWIDTH 1400 0
DWIDTH 14 0
BBX 10 10 2 -1
BITMAP
07C0
FE00
0C00
0C00
0C00
1800
1800
0C00
0600
0780
ENDCHAR
STARTCHAR C025107
ENCODING 10823
SWIDTH 1400 0
DWIDTH 14 0
BBX 11 10 2 -1
BITMAP
07C0
FE00
0C60
0CC0
0C60
1800
1800
0C00
0E00
0380
ENDCHAR
STARTCHAR C025110
ENCODING 10824
SWIDTH 1400 0
DWIDTH 14 0
BBX 7 10 3 -1
BITMAP
30
30
36
1C
30
60
C0
C0
60
3E
ENDCHAR
STARTCHAR C025111
ENCODING 10825
SWIDTH 1400 0
DWIDTH 14 0
BBX 10 10 3 -1
BITMAP
31C0
3000
3600
1C00
3000
6000
C000
C000
6000
3E00
ENDCHAR
STARTCHAR C025112
ENCODING 10826
SWIDTH 1400 0
DWIDTH 14 0
BBX 10 12 2 -2
BITMAP
1800
1800
FD80
30C0
3300
6300
6300
C300
0F00
1BC0
1E00
0C00
ENDCHAR
STARTCHAR C025113
ENCODING 10827
SWIDTH 1400 0
DWIDTH 14 0
BBX 9 10 3 -1
BITMAP
C000
DF80
0000
0000
0000
0000
0000
D800
CF80
C000
ENDCHAR
STARTCHAR C025114
ENCODING 10828
SWIDTH 1400 0
DWIDTH 14 0
BBX 11 9 2 -1
BITMAP
0C00
7F80
7CC0
6CC0
F8C0
D8C0
F7C0
E7E0
0300
ENDCHAR
STARTCHAR C025115
ENCODING 10829
SWIDTH 1400 0
DWIDTH 14 0
BBX 11 11 2 -1
BITMAP
3000
3000
3800
FFC0
38C0
30C0
70C0
F7C0
FFC0
37E0
3300
ENDCHAR
STARTCHAR C025116
ENCODING 10830
SWIDTH 1400 0
DWIDTH 14 0
BBX 11 8 2 0
BITMAP
3F80
6CC0
CC60
CC60
D860
D860
F0C0
7180
ENDCHAR
STARTCHAR C025117
ENCODING 10831
SWIDTH 1400 0
DWIDTH 14 0
BBX 11 11 2 -1
BITMAP
0300
6300
6300
DFE0
C180
C180
C180
C180
EFC0
EDE0
6F00
ENDCHAR
STARTCHAR C025120
ENCODING 10832
SWIDTH 1400 0
DWIDTH 14 0
BBX 11 11 2 -1
BITMAP
0060
6180
61E0
CFE0
C180
C180
C180
C180
EFC0
EDE0
6F00
ENDCHAR
STARTCHAR C025121
ENCODING 10833
SWIDTH 1400 0
DWIDTH 14 0
BBX 12 12 2 -1
BITMAP
00F0
03F0
63F0
6300
DFE0
C180
C180
C180
C180
EFC0
EDE0
6F00
ENDCHAR
STARTCHAR C025122
ENCODING 10834
SWIDTH 1400 0
DWIDTH 14 0
BBX 11 10 2 -1
BITMAP
3800
F180
61C0
61E0
C300
C300
C300
C300
6600
3C00
ENDCHAR
STARTCHAR C025123
ENCODING 10835
SWIDTH 1400 0
DWIDTH 14 0
BBX 12 11 2 -1
BITMAP
0060
38F0
F1E0
63C0
6360
C300
C300
C300
C300
6600
3C00
ENDCHAR
STARTCHAR C025124
ENCODING 10836
SWIDTH 1400 0
DWIDTH 14 0
BBX 12 11 2 -1
BITMAP
00F0
38F0
F1F0
61C0
61E0
C300
C300
C300
C300
6600
3C00
ENDCHAR
STARTCHAR C025125
ENCODING 10837
SWIDTH 1400 0
DWIDTH 14 0
BBX 11 10 2 -1
BITMAP
0C00
0600
0000
0000
1800
0D80
06C0
3660
FE00
0C00
ENDCHAR
STARTCHAR C025126
ENCODING 10838
SWIDTH 1400 0
DWIDTH 14 0
BBX 11 10 2 -1
BITMAP
0C00
06C0
01E0
00C0
1800
0D80
06C0
3660
FE00
0C00
ENDCHAR
STARTCHAR C025127
ENCODING 10839
SWIDTH 1400 0
DWIDTH 14 0
BBX 11 10 2 -1
BITMAP
0C00
07E0
01E0
01E0
1800
0D80
06C0
3660
FE00
0C00
ENDCHAR
STARTCHAR C025130
ENCODING 10840
SWIDTH 1400 0
DWIDTH 14 0
BBX 11 6 2 1
BITMAP
1800
3C00
6600
C380
00C0
0060
ENDCHAR
STARTCHAR C025131
ENCODING 10841
SWIDTH 1400 0
DWIDTH 14 0
BBX 11 6 2 1
BITMAP
1980
3C00
6600
C380
00C0
0060
ENDCHAR
STARTCHAR C025132
ENCODING 10842
SWIDTH 1400 0
DWIDTH 14 0
BBX 11 7 2 1
BITMAP
01C0
19C0
3DC0
6600
C380
00C0
0060
ENDCHAR
STARTCHAR C025133
ENCODING 10843
SWIDTH 1400 0
DWIDTH 14 0
BBX 10 10 2 -1
BITMAP
7F80
6300
C300
DF80
C300
C300
C300
FF80
FBC0
7E00
ENDCHAR
STARTCHAR C025134
ENCODING 10844
SWIDTH 1400 0
DWIDTH 14 0
BBX 12 10 2 -1
BITMAP
7FE0
C3F0
C360
DFC0
C300
C300
C300
FF80
FBC0
7E00
ENDCHAR
STARTCHAR C025135
ENCODING 10845
SWIDTH 1400 0
DWIDTH 14 0
BBX 12 10 2 -1
BITMAP
7F80
C3F0
C3F0
DFE0
C300
C300
C300
FF80
FBC0
7E00
ENDCHAR
STARTCHAR C025136
ENCODING 10846
SWIDTH 1400 0
DWIDTH 14 0
BBX 8 11 3 -1
BITMAP
18
18
FF
38
18
FE
18
18
F8
DE
FB
ENDCHAR
STARTCHAR C025137
ENCODING 10847
SWIDTH 1400 0
DWIDTH 14 0
BBX 11 9 2 0
BITMAP
3E00
0C00
0D80
1980
3F80
73C0
F360
E300
0600
ENDCHAR
STARTCHAR C025140
ENCODING 10848
SWIDTH 1400 0
DWIDTH 14 0
BBX 11 10 2 -1
BITMAP
1800
1E00
30C0
3060
F000
D800
F0C0
70C0
30C0
1F80
ENDCHAR
STARTCHAR C025141
ENCODING 10849
SWIDTH 1400 0
DWIDTH 14 0
BBX 11 10 2 -1
BITMAP
0600
6600
6F80
7EC0
7E60
FC60
DC60
FC60
7CC0
0380
ENDCHAR
STARTCHAR C025142
ENCODING 10850
SWIDTH 1400 0
DWIDTH 14 0
BBX 7 11 4 -1
BITMAP
60
60
60
F8
C0
CC
F6
C6
C6
66
7C
ENDCHAR
STARTCHAR C025143
ENCODING 10851
SWIDTH 1400 0
DWIDTH 14 0
BBX 8 6 3 -1
BITMAP
67
3F
F3
3E
30
18
ENDCHAR
STARTCHAR C025144
ENCODING 10852
SWIDTH 1400 0
DWIDTH 14 0
BBX 10 10 3 -1
BITMAP
1800
CC00
CF80
78C0
E0C0
3380
3600
3000
1800
1800
ENDCHAR
STARTCHAR C025145
ENCODING 10853
SWIDTH 1400 0
DWIDTH 14 0
BBX 8 6 3 0
BITMAP
0C
CE
FF
EF
6F
CE
ENDCHAR
STARTCHAR C025146
ENCODING 10854
SWIDTH 1400 0
DWIDTH 14 0
BBX 10 10 2 0
BITMAP
C000
C600
CF80
3EC0
66C0
C6C0
C6C0
DD80
CF00
C000
ENDCHAR
STARTCHAR C025147
ENCODING 10855
SWIDTH 1400 0
DWIDTH 14 0
BBX 6 8 4 -1
BITMAP
30
30
3C
30
30
F0
FC
E0
ENDCHAR
STARTCHAR C025150
ENCODING 10856
SWIDTH 1400 0
DWIDTH 14 0
BBX 8 11 3 -1
BITMAP
18
18
18
1E
18
18
18
18
FE
DB
F0
ENDCHAR
STARTCHAR C025151
ENCODING 10857
SWIDTH 1400 0
DWIDTH 14 0
BBX 8 10 4 -1
BITMAP
30
C0
C0
C0
DE
F3
C3
03
07
3C
ENDCHAR
STARTCHAR C025152
ENCODING 10858
SWIDTH 1400 0
DWIDTH 14 0
BBX 7 11 4 -1
BITMAP
6C
CC
CC
C6
C6
E6
EC
0C
0C
0C
18
ENDCHAR
STARTCHAR C025153
ENCODING 10859
SWIDTH 1400 0
DWIDTH 14 0
BBX 9 10 3 -1
BITMAP
7C00
0C00
1800
3000
7F00
C180
0180
7F00
6F00
3E00
ENDCHAR
STARTCHAR C025154
ENCODING 10860
SWIDTH 1400 0
DWIDTH 14 0
BBX 11 11 2 -1
BITMAP
3000
3000
3000
7780
3D80
3980
7180
7180
F180
31E0
30C0
ENDCHAR
STARTCHAR C025155
ENCODING 10861
SWIDTH 1400 0
DWIDTH 14 0
BBX 9 10 3 -1
BITMAP
3E00
0C00
1800
3000
3F00
6180
C180
0180
0300
1E00
ENDCHAR
STARTCHAR C025156
ENCODING 10862
SWIDTH 1400 0
DWIDTH 14 0
BBX 9 8 3 -2
BITMAP
3000
3000
7F00
3F00
7180
F180
F300
3600
ENDCHAR
STARTCHAR C025157
ENCODING 10863
SWIDTH 1400 0
DWIDTH 14 0
BBX 10 11 2 -1
BITMAP
3000
3000
3800
F780
3CC0
30C0
70C0
F0C0
F0C0
3380
3000
ENDCHAR
STARTCHAR C025160
ENCODING 10864
SWIDTH 1400 0
DWIDTH 14 0
BBX 10 10 2 -1
BITMAP
3C00
0C00
0C00
1F00
7980
78C0
F0C0
FEC0
EF80
0F00
ENDCHAR
STARTCHAR C025161
ENCODING 10865
SWIDTH 1400 0
DWIDTH 14 0
BBX 10 10 3 -1
BITMAP
3E00
0C00
1800
3F80
7D80
3D80
1F00
7780
FCC0
18C0
ENDCHAR
STARTCHAR C025162
ENCODING 10866
SWIDTH 1400 0
DWIDTH 14 0
BBX 9 11 3 -1
BITMAP
3000
3000
FC00
6000
7800
CF80
0E00
3C00
6C00
6000
3F00
ENDCHAR
STARTCHAR C025163
ENCODING 10867
SWIDTH 1400 0
DWIDTH 14 0
BBX 11 11 2 -1
BITMAP
0C00
0C00
1800
1800
3000
3000
3E00
6660
66C0
C6C0
C380
ENDCHAR
STARTCHAR C025441
ENCODING 11041
SWIDTH 1400 0
DWIDTH 14 0
BBX 7 5 4 0
BITMAP
FE
36
3C
30
60
ENDCHAR
STARTCHAR C025442
ENCODING 11042
SWIDTH 1400 0
DWIDTH 14 0
BBX 10 9 2 -1
BITMAP
FFC0
0CC0
0D80
0F00
0C00
1800
1800
3000
6000
ENDCHAR
STARTCHAR C025443
ENCODING 11043
SWIDTH 1400 0
DWIDTH 14 0
BBX 6 6 3 -1
BITMAP
0C
38
F8
18
18
18
ENDCHAR
STARTCHAR C025444
ENCODING 11044
SWIDTH 1400 0
DWIDTH 14 0
BBX 8 10 3 -1
BITMAP
03
06
0C
38
F8
18
18
18
18
18
ENDCHAR
STARTCHAR C025445
ENCODING 11045
SWIDTH 1400 0
DWIDTH 14 0
BBX 7 7 4 -1
BITMAP
30
FE
C6
CC
0C
18
18
ENDCHAR
STARTCHAR C025446
ENCODING 11046
SWIDTH 1400 0
DWIDTH 14 0
BBX 9 11 3 -1
BITMAP
1800
1800
FF80
C180
C180
C180
0300
0300
0600
0C00
1800
ENDCHAR
STARTCHAR C025447
ENCODING 11047
SWIDTH 1400 0
DWIDTH 14 0
BBX 8 5 3 -1
BITMAP
7F
18
18
18
FF
ENDCHAR
STARTCHAR C025450
ENCODING 11048
SWIDTH 1400 0
DWIDTH 14 0
BBX 10 7 2 1
BITMAP
FFC0
0C00
0C00
0C00
0C00
0C00
FFC0
ENDCHAR
STARTCHAR C025451
ENCODING 11049
SWIDTH 1400 0
DWIDTH 14 0
BBX 7 7 4 -1
BITMAP
18
18
FE
38
78
18
78
ENDCHAR
STARTCHAR C025452
ENCODING 11050
SWIDTH 1400 0
DWIDTH 14 0
BBX 10 10 2 -1
BITMAP
0600
0600
FFC0
0E00
1E00
1E00
3600
E600
0600
1E00
ENDCHAR
STARTCHAR C025453
ENCODING 11051
SWIDTH 1400 0
DWIDTH 14 0
BBX 9 10 3 0
BITMAP
1800
1800
1800
FF80
1980
1980
3180
3180
6300
CF00
ENDCHAR
STARTCHAR C025454
ENCODING 11052
SWIDTH 1400 0
DWIDTH 14 0
BBX 11 10 3 0
BITMAP
18C0
19E0
18C0
FF80
1980
1980
3180
3180
6300
CF00
ENDCHAR
STARTCHAR C025455
ENCODING 11053
SWIDTH 1400 0
DWIDTH 14 0
BBX 8 10 3 -1
BITMAP
18
18
FE
18
18
FF
18
0C
0C
0C
ENDCHAR
STARTCHAR C025456
ENCODING 11054
SWIDTH 1400 0
DWIDTH 14 0
BBX 10 11 3 -1
BITMAP
00C0
1980
1800
FE00
1800
1800
FF00
1800
0C00
0C00
0C00
ENDCHAR
STARTCHAR C025457
ENCODING 11055
SWIDTH 1400 0
DWIDTH 14 0
BBX 9 11 2 -2
BITMAP
0C00
1800
1F80
3180
6300
C300
0600
0C00
1800
3000
E000
ENDCHAR
STARTCHAR C025460
ENCODING 11056
SWIDTH 1400 0
DWIDTH 14 0
BBX 11 11 3 -1
BITMAP
0CC0
1860
1FC0
3300
6300
C600
0600
0C00
1800
3000
E000
ENDCHAR
STARTCHAR C025461
ENCODING 11057
SWIDTH 1400 0
DWIDTH 14 0
BBX 11 11 2 -1
BITMAP
1800
1800
3000
3FE0
3600
6600
C600
0600
0C00
1800
3000
ENDCHAR
STARTCHAR C025462
ENCODING 11058
SWIDTH 1400 0
DWIDTH 14 0
BBX 12 11 2 -1
BITMAP
1860
18F0
3060
3FE0
3600
6600
C600
0600
0C00
1800
3000
ENDCHAR
STARTCHAR C025463
ENCODING 11059
SWIDTH 1400 0
DWIDTH 14 0
BBX 8 8 3 0
BITMAP
FF
03
03
03
03
03
FF
03
ENDCHAR
STARTCHAR C025464
ENCODING 11060
SWIDTH 1400 0
DWIDTH 14 0
BBX 11 9 3 0
BITMAP
00E0
FF00
0300
0300
0300
0300
0300
FF00
0300
ENDCHAR
STARTCHAR C025465
ENCODING 11061
SWIDTH 1400 0
DWIDTH 14 0
BBX 11 11 2 -1
BITMAP
3300
3300
3300
FFE0
3300
3300
3300
0600
0600
0C00
1800
ENDCHAR
STARTCHAR C025466
ENCODING 11062
SWIDTH 1400 0
DWIDTH 14 0
BBX 11 11 2 -1
BITMAP
3360
3300
3300
FFE0
3300
3300
3300
0600
0600
0C00
1800
ENDCHAR
STARTCHAR C025467
ENCODING 11063
SWIDTH 1400 0
DWIDTH 14 0
BBX 10 9 3 0
BITMAP
7000
1800
0000
C0C0
6180
0300
0600
1C00
7000
ENDCHAR
STARTCHAR C025470
ENCODING 11064
SWIDTH 1400 0
DWIDTH 14 0
BBX 10 9 3 0
BITMAP
6180
3300
1800
C0C0
6180
0300
0600
1C00
7000
ENDCHAR
STARTCHAR C025471
ENCODING 11065
SWIDTH 1400 0
DWIDTH 14 0
BBX 10 9 2 -1
BITMAP
7F80
0300
0300
0600
0600
0F00
1980
70C0
C000
ENDCHAR
STARTCHAR C025472
ENCODING 11066
SWIDTH 1400 0
DWIDTH 14 0
BBX 12 10 2 -1
BITMAP
0030
7FE0
0300
0300
0600
0600
0F00
1980
70C0
C000
ENDCHAR
STARTCHAR C025473
ENCODING 11067
SWIDTH 1400 0
DWIDTH 14 0
BBX 9 9 2 0
BITMAP
3000
3000
3780
FD80
3300
3600
3000
3000
1F80
ENDCHAR
STARTCHAR C025474
ENCODING 11068
SWIDTH 1400 0
DWIDTH 14 0
BBX 11 10 2 0
BITMAP
3060
30C0
3180
3F80
F180
3300
3600
3000
3000
1F80
ENDCHAR
STARTCHAR C025475
ENCODING 11069
SWIDTH 1400 0
DWIDTH 14 0
BBX 9 10 3 -1
BITMAP
0180
C300
6300
6300
0600
0600
0C00
0C00
1800
7000
ENDCHAR
STARTCHAR C025476
ENCODING 11070
SWIDTH 1400 0
DWIDTH 14 0
BBX 11 11 3 -1
BITMAP
0060
01C0
C300
6300
6300
0600
0600
0C00
0C00
1800
7000
ENDCHAR
STARTCHAR C025477
ENCODING 11071
SWIDTH 1400 0
DWIDTH 14 0
BBX 8 10 3 -1
BITMAP
18
1F
33
63
DE
0E
0C
18
30
E0
ENDCHAR
STARTCHAR C025500
ENCODING 11072
SWIDTH 1400 0
DWIDTH 14 0
BBX 10 10 3 -1
BITMAP
1800
1FC0
3300
6300
DE00
0E00
0C00
1800
3000
E000
ENDCHAR
STARTCHAR C025501
ENCODING 11073
SWIDTH 1400 0
DWIDTH 14 0
BBX 11 11 2 -2
BITMAP
0380
7E00
0600
0600
FFE0
0600
0C00
0C00
1800
1800
3000
ENDCHAR
STARTCHAR C025502
ENCODING 11074
SWIDTH 1400 0
DWIDTH 14 0
BBX 12 11 2 -2
BITMAP
0380
7E30
0660
0600
FFE0
0600
0600
0C00
0C00
1800
3000
ENDCHAR
STARTCHAR C025503
ENCODING 11075
SWIDTH 1400 0
DWIDTH 14 0
BBX 7 6 4 -1
BITMAP
F6
C6
0C
0C
18
30
ENDCHAR
STARTCHAR C025504
ENCODING 11076
SWIDTH 1400 0
DWIDTH 14 0
BBX 9 10 3 -1
BITMAP
0180
1980
D980
0300
0300
0600
0600
0C00
1800
3000
ENDCHAR
STARTCHAR C025505
ENCODING 11077
SWIDTH 1400 0
DWIDTH 14 0
BBX 11 12 3 -1
BITMAP
00C0
0060
00C0
1980
D980
0300
0300
0300
0600
0C00
1800
3000
ENDCHAR
STARTCHAR C025506
ENCODING 11078
SWIDTH 1400 0
DWIDTH 14 0
BBX 11 10 2 -1
BITMAP
3F80
0000
0000
FFE0
0600
0600
0600
0C00
1800
3000
ENDCHAR
STARTCHAR C025507
ENCODING 11079
SWIDTH 1400 0
DWIDTH 14 0
BBX 12 10 2 -1
BITMAP
3F80
0070
0000
FFC0
0C00
0C00
0C00
1800
3000
6000
ENDCHAR
STARTCHAR C025510
ENCODING 11080
SWIDTH 1400 0
DWIDTH 14 0
BBX 5 10 5 -1
BITMAP
C0
C0
C0
E0
F8
D8
C0
C0
C0
C0
ENDCHAR
STARTCHAR C025511
ENCODING 11081
SWIDTH 1400 0
DWIDTH 14 0
BBX 7 10 5 -1
BITMAP
C6
CC
C0
E0
F8
D8
C0
C0
C0
C0
ENDCHAR
STARTCHAR C025512
ENCODING 11082
SWIDTH 1400 0
DWIDTH 14 0
BBX 11 11 2 -1
BITMAP
0600
0600
0600
FFE0
0600
0600
0600
0C00
0C00
1800
3000
ENDCHAR
STARTCHAR C025513
ENCODING 11083
SWIDTH 1400 0
DWIDTH 14 0
BBX 10 7 2 1
BITMAP
3F80
0000
0000
0000
0000
0000
FFC0
ENDCHAR
STARTCHAR C025514
ENCODING 11084
SWIDTH 1400 0
DWIDTH 14 0
BBX 8 9 3 0
BITMAP
FF
03
06
36
1E
0E
1B
30
60
ENDCHAR
STARTCHAR C025515
ENCODING 11085
SWIDTH 1400 0
DWIDTH 14 0
BBX 9 11 3 -1
BITMAP
0C00
0C00
FF00
0300
0600
0C00
3F00
ED80
0C00
0C00
0C00
ENDCHAR
STARTCHAR C025516
ENCODING 11086
SWIDTH 1400 0
DWIDTH 14 0
BBX 7 9 4 0
BITMAP
06
06
0C
0C
18
18
30
60
C0
ENDCHAR
STARTCHAR C025517
ENCODING 11087
SWIDTH 1400 0
DWIDTH 14 0
BBX 11 7 2 1
BITMAP
0300
0180
3180
30C0
60C0
60C0
C060
ENDCHAR
STARTCHAR C025520
ENCODING 11088
SWIDTH 1400 0
DWIDTH 14 0
BBX 11 7 2 1
BITMAP
0300
01E0
3180
30C0
60C0
60C0
C060
ENDCHAR
STARTCHAR C025521
ENCODING 11089
SWIDTH 1400 0
DWIDTH 14 0
BBX 11 8 2 1
BITMAP
00E0
03E0
0180
3180
30C0
60C0
60C0
C060
ENDCHAR
STARTCHAR C025522
ENCODING 11090
SWIDTH 1400 0
DWIDTH 14 0
BBX 8 9 4 0
BITMAP
C0
C0
C6
FC
E0
C0
C0
C0
7F
ENDCHAR
STARTCHAR C025523
ENCODING 11091
SWIDTH 1400 0
DWIDTH 14 0
BBX 10 10 4 0
BITMAP
0300
C1C0
C000
CE00
F800
C000
C000
C000
C000
7F00
ENDCHAR
STARTCHAR C025524
ENCODING 11092
SWIDTH 1400 0
DWIDTH 14 0
BBX 9 10 4 0
BITMAP
0380
C380
C000
CE00
F800
C000
C000
C000
C000
7F00
ENDCHAR
STARTCHAR C025525
ENCODING 11093
SWIDTH 1400 0
DWIDTH 14 0
BBX 9 9 3 -1
BITMAP
FF80
0180
0300
0300
0300
0600
0C00
1800
3000
ENDCHAR
STARTCHAR C025526
ENCODING 11094
SWIDTH 1400 0
DWIDTH 14 0
BBX 11 12 3 -1
BITMAP
00C0
01E0
00C0
FF80
0180
0300
0300
0600
0600
0C00
1800
3000
ENDCHAR
STARTCHAR C025527
ENCODING 11095
SWIDTH 1400 0
DWIDTH 14 0
BBX 11 12 3 -1
BITMAP
00E0
01E0
00C0
FF80
0180
0300
0300
0600
0600
0C00
1800
3000
ENDCHAR
STARTCHAR C025530
ENCODING 11096
SWIDTH 1400 0
DWIDTH 14 0
BBX 11 5 2 2
BITMAP
1800
7C00
C700
0180
00E0
ENDCHAR
STARTCHAR C025531
ENCODING 11097
SWIDTH 1400 0
DWIDTH 14 0
BBX 11 7 2 2
BITMAP
0180
0000
1980
7C00
C700
0180
00E0
ENDCHAR
STARTCHAR C025532
ENCODING 11098
SWIDTH 1400 0
DWIDTH 14 0
BBX 10 8 3 1
BITMAP
0700
0700
3000
7800
CC00
0700
0180
00C0
ENDCHAR
STARTCHAR C025533
ENCODING 11099
SWIDTH 1400 0
DWIDTH 14 0
BBX 11 10 2 -1
BITMAP
0C00
0C00
FFC0
0C00
3D80
6CC0
6CC0
CC60
0C00
3C00
ENDCHAR
STARTCHAR C025534
ENCODING 11100
SWIDTH 1400 0
DWIDTH 14 0
BBX 11 11 2 -1
BITMAP
00C0
0C00
0CC0
FFC0
0C00
3D80
6CC0
6CC0
CC60
0C00
3C00
ENDCHAR
STARTCHAR C025535
ENCODING 11101
SWIDTH 1400 0
DWIDTH 14 0
BBX 11 11 2 -1
BITMAP
01C0
0DC0
0C00
FFC0
0C00
3D80
6CC0
6CC0
CC60
0C00
3C00
ENDCHAR
STARTCHAR C025536
ENCODING 11102
SWIDTH 1400 0
DWIDTH 14 0
BBX 10 7 2 1
BITMAP
FFC0
00C0
0180
3300
1E00
0C00
0600
ENDCHAR
STARTCHAR C025537
ENCODING 11103
SWIDTH 1400 0
DWIDTH 14 0
BBX 7 9 4 0
BITMAP
70
1C
00
E0
3C
00
00
78
0E
ENDCHAR
STARTCHAR C025540
ENCODING 11104
SWIDTH 1400 0
DWIDTH 14 0
BBX 9 8 3 0
BITMAP
1800
1800
3000
3000
3300
6300
FF80
6180
ENDCHAR
STARTCHAR C025541
ENCODING 11105
SWIDTH 1400 0
DWIDTH 14 0
BBX 8 9 3 0
BITMAP
03
06
06
36
1C
1E
30
60
C0
ENDCHAR
STARTCHAR C025542
ENCODING 11106
SWIDTH 1400 0
DWIDTH 14 0
BBX 11 9 2 -1
BITMAP
7FC0
0C00
0C00
FFE0
0C00
0C00
0C00
0C00
0FC0
ENDCHAR
STARTCHAR C025543
ENCODING 11107
SWIDTH 1400 0
DWIDTH 14 0
BBX 8 6 3 0
BITMAP
30
37
FE
1E
18
18
ENDCHAR
STARTCHAR C025544
ENCODING 11108
SWIDTH 1400 0
DWIDTH 14 0
BBX 9 10 3 -1
BITMAP
3000
3000
3F80
F980
3300
3600
1800
1800
1800
1800
ENDCHAR
STARTCHAR C025545
ENCODING 11109
SWIDTH 1400 0
DWIDTH 14 0
BBX 8 5 4 -1
BITMAP
7C
0C
0C
0C
FF
ENDCHAR
STARTCHAR C025546
ENCODING 11110
SWIDTH 1400 0
DWIDTH 14 0
BBX 11 7 2 1
BITMAP
3F00
0300
0300
0300
0300
0300
FFE0
ENDCHAR
STARTCHAR C025547
ENCODING 11111
SWIDTH 1400 0
DWIDTH 14 0
BBX 6 7 4 -2
BITMAP
FC
0C
0C
FC
0C
FC
0C
ENDCHAR
STARTCHAR C025550
ENCODING 11112
SWIDTH 1400 0
DWIDTH 14 0
BBX 8 9 3 -1
BITMAP
FF
03
03
FF
03
03
03
FF
03
ENDCHAR
STARTCHAR C025551
ENCODING 11113
SWIDTH 1400 0
DWIDTH 14 0
BBX 8 10 3 -1
BITMAP
7F
00
00
FF
03
03
06
06
0C
38
ENDCHAR
STARTCHAR C025552
ENCODING 11114
SWIDTH 1400 0
DWIDTH 14 0
BBX 7 11 4 -1
BITMAP
06
C6
C6
C6
C6
C6
C6
0C
0C
18
18
ENDCHAR
STARTCHAR C025553
ENCODING 11115
SWIDTH 1400 0
DWIDTH 14 0
BBX 11 9 2 0
BITMAP
3600
3600
3600
3600
3660
3660
66C0
6780
C600
ENDCHAR
STARTCHAR C025554
ENCODING 11116
SWIDTH 1400 0
DWIDTH 14 0
BBX 9 9 3 0
BITMAP
C000
C000
C000
C180
C180
C300
CE00
F800
E000
ENDCHAR
STARTCHAR C025555
ENCODING 11117
SWIDTH 1400 0
DWIDTH 14 0
BBX 7 8 4 0
BITMAP
FE
06
06
06
06
06
FE
06
ENDCHAR
STARTCHAR C025556
ENCODING 11118
SWIDTH 1400 0
DWIDTH 14 0
BBX 7 6 4 -1
BITMAP
FE
C6
C6
CC
0C
18
ENDCHAR
STARTCHAR C025557
ENCODING 11119
SWIDTH 1400 0
DWIDTH 14 0
BBX 8 10 3 -1
BITMAP
FF
C3
C3
C3
C6
06
0C
0C
18
30
ENDCHAR
STARTCHAR C025560
ENCODING 11120
SWIDTH 1400 0
DWIDTH 14 0
BBX 11 10 2 -1
BITMAP
0300
0300
FFC0
3300
3300
3300
FFE0
0300
0300
0300
ENDCHAR
STARTCHAR C025561
ENCODING 11121
SWIDTH 1400 0
DWIDTH 14 0
BBX 11 8 2 0
BITMAP
7FC0
0180
0D80
0C00
0C00
0C00
0C00
FFE0
ENDCHAR
STARTCHAR C025562
ENCODING 11122
SWIDTH 1400 0
DWIDTH 14 0
BBX 8 10 3 -1
BITMAP
FF
03
03
03
FF
06
06
0C
18
30
ENDCHAR
STARTCHAR C025563
ENCODING 11123
SWIDTH 1400 0
DWIDTH 14 0
BBX 9 9 3 0
BITMAP
C000
6000
0000
0180
0300
0600
0C00
3800
E000
ENDCHAR
STARTCHAR C025564
ENCODING 11124
SWIDTH 1400 0
DWIDTH 14 0
BBX 10 10 3 0
BITMAP
1980
18C0
FF80
C180
C180
C180
0300
0300
0600
0C00
ENDCHAR
STARTCHAR C025565
ENCODING 11125
SWIDTH 1400 0
DWIDTH 14 0
BBX 7 6 4 -1
BITMAP
30
FE
36
36
66
DC
ENDCHAR
STARTCHAR C025566
ENCODING 11126
SWIDTH 1400 0
DWIDTH 14 0
BBX 8 8 3 -2
BITMAP
30
60
7F
6C
CC
18
18
30
ENDCHAR
STARTCHAR C026041
ENCODING 11297
SWIDTH 1400 0
DWIDTH 14 0
BBX 8 10 3 0
BITMAP
18
3C
3C
36
66
7E
66
C3
C3
C0
ENDCHAR
STARTCHAR C026042
ENCODING 11298
SWIDTH 1400 0
DWIDTH 14 0
BBX 7 10 4 0
BITMAP
FE
C0
C0
C0
FC
C6
C6
C6
C6
FC
ENDCHAR
STARTCHAR C026043
ENCODING 11299
SWIDTH 1400 0
DWIDTH 14 0
BBX 8 10 4 0
BITMAP
FC
C6
C6
C6
CC
FE
C3
C3
C3
FE
ENDCHAR
STARTCHAR C026044
ENCODING 11300
SWIDTH 1400 0
DWIDTH 14 0
BBX 7 10 5 0
BITMAP
FE
C0
C0
C0
C0
C0
C0
C0
C0
C0
ENDCHAR
STARTCHAR C026045
ENCODING 11301
SWIDTH 1400 0
DWIDTH 14 0
BBX 9 10 3 0
BITMAP
7F00
6300
6300
6300
6300
6300
6300
FF80
C180
C180
ENDCHAR
STARTCHAR C026046
ENCODING 11302
SWIDTH 1400 0
DWIDTH 14 0
BBX 8 10 4 0
BITMAP
FE
C0
C0
C0
C0
FC
C0
C0
C0
FF
ENDCHAR
STARTCHAR C026047
ENCODING 11303
SWIDTH 1400 0
DWIDTH 14 0
BBX 8 8 4 0
BITMAP
FE
C0
C0
FE
C0
C0
C0
FF
ENDCHAR
STARTCHAR C026050
ENCODING 11304
SWIDTH 1400 0
DWIDTH 14 0
BBX 9 10 3 0
BITMAP
D980
7B00
7B00
7B00
7E00
7F00
D980
D980
D980
D980
ENDCHAR
STARTCHAR C026051
ENCODING 11305
SWIDTH 1400 0
DWIDTH 14 0
BBX 8 10 3 0
BITMAP
3E
63
C3
03
1E
07
03
C3
C3
7E
ENDCHAR
STARTCHAR C026052
ENCODING 11306
SWIDTH 1400 0
DWIDTH 14 0
BBX 7 10 4 0
BITMAP
06
0E
1E
1E
36
66
66
C6
C6
06
ENDCHAR
STARTCHAR C026053
ENCODING 11307
SWIDTH 1400 0
DWIDTH 14 0
BBX 7 10 4 0
BITMAP
6C
3C
06
1E
1E
36
66
66
C6
06
ENDCHAR
STARTCHAR C026054
ENCODING 11308
SWIDTH 1400 0
DWIDTH 14 0
BBX 7 10 4 0
BITMAP
C6
CC
D8
D8
D8
F8
CC
CC
CC
C6
ENDCHAR
STARTCHAR C026055
ENCODING 11309
SWIDTH 1400 0
DWIDTH 14 0
BBX 9 10 2 0
BITMAP
3F80
3180
3180
3180
3180
3180
3180
3180
3180
E180
ENDCHAR
STARTCHAR C026056
ENCODING 11310
SWIDTH 1400 0
DWIDTH 14 0
BBX 9 10 3 0
BITMAP
C180
E380
E780
E780
F780
FD80
FD80
DD80
DD80
C180
ENDCHAR
STARTCHAR C026057
ENCODING 11311
SWIDTH 1400 0
DWIDTH 14 0
BBX 6 10 5 0
BITMAP
0C
0C
0C
0C
0C
FC
0C
0C
0C
0C
ENDCHAR
STARTCHAR C026060
ENCODING 11312
SWIDTH 1400 0
DWIDTH 14 0
BBX 9 10 3 0
BITMAP
3E00
6300
E380
C180
C180
C180
C180
C180
6300
3E00
ENDCHAR
STARTCHAR C026061
ENCODING 11313
SWIDTH 1400 0
DWIDTH 14 0
BBX 7 10 4 0
BITMAP
FE
C6
C6
C6
C6
C6
C6
C6
C6
C6
ENDCHAR
STARTCHAR C026062
ENCODING 11314
SWIDTH 1400 0
DWIDTH 14 0
BBX 7 10 4 0
BITMAP
FC
C6
C6
C6
C6
FC
C0
C0
C0
C0
ENDCHAR
STARTCHAR C026063
ENCODING 11315
SWIDTH 1400 0
DWIDTH 14 0
BBX 9 10 3 0
BITMAP
1E00
7300
6180
C000
C000
C000
C180
C180
6300
3E00
ENDCHAR
STARTCHAR C026064
ENCODING 11316
SWIDTH 1400 0
DWIDTH 14 0
BBX 9 10 3 0
BITMAP
FF80
1800
1800
1800
1800
1800
1800
1800
1800
1800
ENDCHAR
STARTCHAR C026065
ENCODING 11317
SWIDTH 1400 0
DWIDTH 14 0
BBX 7 10 4 0
BITMAP
06
C6
CC
CC
78
78
38
30
30
E0
ENDCHAR
STARTCHAR C026066
ENCODING 11318
SWIDTH 1400 0
DWIDTH 14 0
BBX 10 10 2 0
BITMAP
0C00
3F00
6D80
CCC0
CCC0
CCC0
CCC0
6D80
3F00
0C00
ENDCHAR
STARTCHAR C026067
ENCODING 11319
SWIDTH 1400 0
DWIDTH 14 0
BBX 7 10 4 0
BITMAP
C6
CE
6C
78
38
30
78
6C
CC
C6
ENDCHAR
STARTCHAR C026070
ENCODING 11320
SWIDTH 1400 0
DWIDTH 14 0
BBX 9 11 3 -1
BITMAP
C300
C300
C300
C300
C300
C300
C300
C300
FF80
0180
0180
ENDCHAR
STARTCHAR C026071
ENCODING 11321
SWIDTH 1400 0
DWIDTH 14 0
BBX 7 10 4 0
BITMAP
C6
C6
C6
C6
C6
CE
7E
06
06
06
ENDCHAR
STARTCHAR C026072
ENCODING 11322
SWIDTH 1400 0
DWIDTH 14 0
BBX 9 10 3 0
BITMAP
1980
1980
1980
1980
1980
1980
1980
1980
1980
FF80
ENDCHAR
STARTCHAR C026073
ENCODING 11323
SWIDTH 1400 0
DWIDTH 14 0
BBX 11 11 2 -1
BITMAP
CCC0
CCC0
CCC0
CCC0
CCC0
CCC0
CCC0
CCC0
FFE0
0060
0060
ENDCHAR
STARTCHAR C026074
ENCODING 11324
SWIDTH 1400 0
DWIDTH 14 0
BBX 9 10 3 0
BITMAP
F000
3000
3000
3000
3F00
3180
3180
3180
3180
3F00
ENDCHAR
STARTCHAR C026075
ENCODING 11325
SWIDTH 1400 0
DWIDTH 14 0
BBX 9 10 3 0
BITMAP
C180
C180
C180
C180
FD80
C780
C780
C780
C780
FD80
ENDCHAR
STARTCHAR C026076
ENCODING 11326
SWIDTH 1400 0
DWIDTH 14 0
BBX 7 10 4 0
BITMAP
C0
C0
C0
C0
FC
C6
C6
C6
C6
FC
ENDCHAR
STARTCHAR C026077
ENCODING 11327
SWIDTH 1400 0
DWIDTH 14 0
BBX 9 10 3 0
BITMAP
3C00
6700
C300
0180
0180
1F80
0180
C300
C300
7E00
ENDCHAR
STARTCHAR C026100
ENCODING 11328
SWIDTH 1400 0
DWIDTH 14 0
BBX 11 10 2 0
BITMAP
C780
CCC0
D860
D860
D860
F860
D860
D860
CCC0
C780
ENDCHAR
STARTCHAR C026101
ENCODING 11329
SWIDTH 1400 0
DWIDTH 14 0
BBX 8 11 3 -1
BITMAP
7F
E3
C3
C3
C3
7F
C3
C3
C3
C3
03
ENDCHAR
STARTCHAR C026121
ENCODING 11345
SWIDTH 1400 0
DWIDTH 14 0
BBX 7 9 4 -1
BITMAP
78
CC
CC
0C
FC
CC
CC
FE
60
ENDCHAR
STARTCHAR C026122
ENCODING 11346
SWIDTH 1400 0
DWIDTH 14 0
BBX 7 10 4 0
BITMAP
7E
60
C0
FC
E6
C6
C6
C6
CE
7C
ENDCHAR
STARTCHAR C026123
ENCODING 11347
SWIDTH 1400 0
DWIDTH 14 0
BBX 5 8 5 0
BITMAP
F8
18
18
30
F8
18
18
F8
ENDCHAR
STARTCHAR C026124
ENCODING 11348
SWIDTH 1400 0
DWIDTH 14 0
BBX 5 8 5 0
BITMAP
F8
C0
C0
C0
C0
C0
C0
C0
ENDCHAR
STARTCHAR C026125
ENCODING 11349
SWIDTH 1400 0
DWIDTH 14 0
BBX 8 8 3 0
BITMAP
7E
66
66
66
66
66
FF
C3
ENDCHAR
STARTCHAR C026126
ENCODING 11350
SWIDTH 1400 0
DWIDTH 14 0
BBX 7 8 4 0
BITMAP
3C
6C
C6
C6
FE
C6
6C
3C
ENDCHAR
STARTCHAR C026127
ENCODING 11351
SWIDTH 1400 0
DWIDTH 14 0
BBX 7 10 4 0
BITMAP
60
00
7C
6C
C6
C6
FE
C0
C6
7C
ENDCHAR
STARTCHAR C026130
ENCODING 11352
SWIDTH 1400 0
DWIDTH 14 0
BBX 7 8 4 0
BITMAP
C6
F6
FC
FC
FE
F6
F6
F6
ENDCHAR
STARTCHAR C026131
ENCODING 11353
SWIDTH 1400 0
DWIDTH 14 0
BBX 7 8 4 0
BITMAP
78
CC
CC
0C
3C
6E
66
3C
ENDCHAR
STARTCHAR C026132
ENCODING 11354
SWIDTH 1400 0
DWIDTH 14 0
BBX 5 7 5 0
BITMAP
18
18
78
78
D8
18
18
ENDCHAR
STARTCHAR C026133
ENCODING 11355
SWIDTH 1400 0
DWIDTH 14 0
BBX 5 10 5 0
BITMAP
D8
70
00
18
38
78
78
D8
18
18
ENDCHAR
STARTCHAR C026134
ENCODING 11356
SWIDTH 1400 0
DWIDTH 14 0
BBX 5 7 5 0
BITMAP
D8
D8
F0
F0
D8
D8
D8
ENDCHAR
STARTCHAR C026135
ENCODING 11357
SWIDTH 1400 0
DWIDTH 14 0
BBX 7 7 4 0
BITMAP
7E
66
66
66
66
66
E6
ENDCHAR
STARTCHAR C026136
ENCODING 11358
SWIDTH 1400 0
DWIDTH 14 0
BBX 7 7 4 0
BITMAP
DE
DE
DE
7E
76
36
36
ENDCHAR
STARTCHAR C026137
ENCODING 11359
SWIDTH 1400 0
DWIDTH 14 0
BBX 5 7 5 0
BITMAP
18
18
18
F8
18
18
18
ENDCHAR
STARTCHAR C026140
ENCODING 11360
SWIDTH 1400 0
DWIDTH 14 0
BBX 7 8 4 0
BITMAP
7C
6C
C6
C6
C6
C6
6C
7C
ENDCHAR
STARTCHAR C026141
ENCODING 11361
SWIDTH 1400 0
DWIDTH 14 0
BBX 7 8 4 0
BITMAP
FE
C6
C6
C6
C6
C6
C6
C6
ENDCHAR
STARTCHAR C026142
ENCODING 11362
SWIDTH 1400 0
DWIDTH 14 0
BBX 7 9 4 -1
BITMAP
FC
EE
C6
C6
C6
C6
EE
FC
C0
ENDCHAR
STARTCHAR C026143
ENCODING 11363
SWIDTH 1400 0
DWIDTH 14 0
BBX 6 8 4 0
BITMAP
38
6C
C0
C0
C0
C0
6C
38
ENDCHAR
STARTCHAR C026144
ENCODING 11364
SWIDTH 1400 0
DWIDTH 14 0
BBX 6 8 4 0
BITMAP
FC
30
30
30
30
30
30
30
ENDCHAR
STARTCHAR C026145
ENCODING 11365
SWIDTH 1400 0
DWIDTH 14 0
BBX 5 8 5 -1
BITMAP
18
D8
F0
70
70
60
60
C0
ENDCHAR
STARTCHAR C026146
ENCODING 11366
SWIDTH 1400 0
DWIDTH 14 0
BBX 11 11 2 -1
BITMAP
0C00
0C00
7FC0
DEE0
CC60
CC60
CC60
CE60
7FC0
0C00
0C00
ENDCHAR
STARTCHAR C026147
ENCODING 11367
SWIDTH 1400 0
DWIDTH 14 0
BBX 6 7 4 0
BITMAP
0C
78
78
30
78
6C
CC
ENDCHAR
STARTCHAR C026150
ENCODING 11368
SWIDTH 1400 0
DWIDTH 14 0
BBX 7 9 4 -1
BITMAP
CC
CC
CC
CC
CC
CC
FE
06
06
ENDCHAR
STARTCHAR C026151
ENCODING 11369
SWIDTH 1400 0
DWIDTH 14 0
BBX 5 8 5 0
BITMAP
D8
D8
D8
D8
D8
F8
18
18
ENDCHAR
STARTCHAR C026152
ENCODING 11370
SWIDTH 1400 0
DWIDTH 14 0
BBX 7 8 4 0
BITMAP
36
36
36
36
36
36
36
FE
ENDCHAR
STARTCHAR C026153
ENCODING 11371
SWIDTH 1400 0
DWIDTH 14 0
BBX 9 9 3 -1
BITMAP
C300
DB00
DB00
DB00
DB00
DB00
FF80
0180
0180
ENDCHAR
STARTCHAR C026154
ENCODING 11372
SWIDTH 1400 0
DWIDTH 14 0
BBX 6 7 5 0
BITMAP
C0
C0
F8
CC
CC
CC
F8
ENDCHAR
STARTCHAR C026155
ENCODING 11373
SWIDTH 1400 0
DWIDTH 14 0
BBX 7 8 4 0
BITMAP
C6
C6
C6
F6
DE
DE
DE
F6
ENDCHAR
STARTCHAR C026156
ENCODING 11374
SWIDTH 1400 0
DWIDTH 14 0
BBX 5 7 5 0
BITMAP
C0
C0
F0
D8
D8
D8
F0
ENDCHAR
STARTCHAR C026157
ENCODING 11375
SWIDTH 1400 0
DWIDTH 14 0
BBX 7 8 4 0
BITMAP
38
6C
C6
06
3E
06
6C
38
ENDCHAR
STARTCHAR C026160
ENCODING 11376
SWIDTH 1400 0
DWIDTH 14 0
BBX 9 8 3 0
BITMAP
0F00
DB00
F180
F180
F180
F180
FB00
DF00
ENDCHAR
STARTCHAR C026161
ENCODING 11377
SWIDTH 1400 0
DWIDTH 14 0
BBX 6 8 4 0
BITMAP
7C
CC
CC
CC
7C
CC
CC
CC
ENDCHAR
STARTCHAR C030041
ENCODING 12321
SWIDTH 1400 0
DWIDTH 14 0
BBX 13 12 1 -2
BITMAP
FE60
0660
0660
0660
0678
0660
0C60
1860
3060
E060
0060
0060
ENDCHAR
STARTCHAR C030042
ENCODING 12322
SWIDTH 1400 0
DWIDTH 14 0
BBX 13 12 1 -2
BITMAP
FE60
0660
0678
0660
0C60
1860
F060
0000
7FE0
0060
0060
0060
ENDCHAR
STARTCHAR C030043
ENCODING 12323
SWIDTH 1400 0
DWIDTH 14 0
BBX 13 12 1 -2
BITMAP
FE60
0660
0660
0678
0660
1C60
F060
0060
6060
6000
6000
7FE0
ENDCHAR
STARTCHAR C030044
ENCODING 12324
SWIDTH 1400 0
DWIDTH 14 0
BBX 13 12 1 -2
BITMAP
FE60
0660
0678
0660
0C60
3860
E060
7FE0
6000
6000
6000
7FE0
ENDCHAR
STARTCHAR C030045
ENCODING 12325
SWIDTH 1400 0
DWIDTH 14 0
BBX 13 12 1 -2
BITMAP
FE60
0660
0678
0660
0C60
F860
0000
7FE0
0060
7FE0
6000
7FE0
ENDCHAR
STARTCHAR C030046
ENCODING 12326
SWIDTH 1400 0
DWIDTH 14 0
BBX 13 12 1 -2
BITMAP
FE60
0660
0678
0660
1C60
F060
0000
FBE0
FC60
C060
C060
FE60
ENDCHAR
STARTCHAR C030047
ENCODING 12327
SWIDTH 1400 0
DWIDTH 14 0
BBX 13 12 1 -2
BITMAP
FE60
0660
0678
0660
1C60
F060
0000
FBE0
0B60
FB60
C360
FFE0
ENDCHAR
STARTCHAR C030050
ENCODING 12328
SWIDTH 1400 0
DWIDTH 14 0
BBX 13 12 1 -2
BITMAP
FE60
0660
0678
0660
0C60
3860
E000
7FE0
6060
6060
6060
7FE0
ENDCHAR
STARTCHAR C030051
ENCODING 12329
SWIDTH 1400 0
DWIDTH 14 0
BBX 13 12 1 -2
BITMAP
FE60
0660
0678
0660
1C60
F060
6060
6060
7FE0
6060
6060
7FE0
ENDCHAR
STARTCHAR C030052
ENCODING 12330
SWIDTH 1400 0
DWIDTH 14 0
BBX 13 12 1 -2
BITMAP
FE60
0660
0678
0C60
F860
0060
CC00
CCC0
FCC0
CDE0
CF70
FF30
ENDCHAR
STARTCHAR C030053
ENCODING 12331
SWIDTH 1400 0
DWIDTH 14 0
BBX 13 12 1 -2
BITMAP
FE60
0660
0678
0660
0C60
1860
F060
0000
0700
0F00
39C0
6070
ENDCHAR
STARTCHAR C030054
ENCODING 12332
SWIDTH 1400 0
DWIDTH 14 0
BBX 13 12 1 -2
BITMAP
FE60
0660
0678
0660
0C60
3860
E060
30C0
30C0
39E0
6DE0
C730
ENDCHAR
STARTCHAR C030055
ENCODING 12333
SWIDTH 1400 0
DWIDTH 14 0
BBX 13 12 1 -2
BITMAP
FE60
0660
0678
0660
0C60
3860
E060
3F80
E0E0
C060
E0E0
3F80
ENDCHAR
STARTCHAR C030056
ENCODING 12334
SWIDTH 1400 0
DWIDTH 14 0
BBX 13 12 1 -2
BITMAP
FE60
0660
0678
0660
0C60
7860
C060
7FE0
0600
0F00
39C0
6060
ENDCHAR
STARTCHAR C030057
ENCODING 12335
SWIDTH 1400 0
DWIDTH 14 0
BBX 13 12 1 -2
BITMAP
FE60
0660
0678
0660
0C60
7860
DFE0
0000
7FF0
0600
0F80
78F0
ENDCHAR
STARTCHAR C030060
ENCODING 12336
SWIDTH 1400 0
DWIDTH 14 0
BBX 13 12 1 -2
BITMAP
FE60
0660
0678
0660
0C60
7860
C060
7FE0
6000
7FE0
6000
7FE0
ENDCHAR
STARTCHAR C030061
ENCODING 12337
SWIDTH 1400 0
DWIDTH 14 0
BBX 13 12 1 -2
BITMAP
FE60
0660
0678
0660
0C60
F860
0000
7FF0
18C0
18C0
18C0
7FF0
ENDCHAR
STARTCHAR C030062
ENCODING 12338
SWIDTH 1400 0
DWIDTH 14 0
BBX 13 12 1 -2
BITMAP
FE60
0660
0678
0660
0C60
7860
DFE0
0000
7FF0
3FE0
6060
3FC0
ENDCHAR
STARTCHAR C030063
ENCODING 12339
SWIDTH 1400 0
DWIDTH 14 0
BBX 12 13 1 -2
BITMAP
01B0
FDB0
0DB0
0DB0
0DB0
0DF0
0DB0
19B0
19B0
71B0
C1B0
01B0
01B0
ENDCHAR
STARTCHAR C030064
ENCODING 12340
SWIDTH 1400 0
DWIDTH 14 0
BBX 11 13 2 -2
BITMAP
0360
FB60
1B60
1BE0
1B60
3360
7360
C360
0000
7FE0
0060
0060
0060
ENDCHAR
STARTCHAR C030065
ENCODING 12341
SWIDTH 1400 0
DWIDTH 14 0
BBX 11 13 2 -2
BITMAP
0360
FB60
1B60
1B60
1BE0
1B60
3360
E360
0360
6360
6000
6000
7FE0
ENDCHAR
STARTCHAR C030066
ENCODING 12342
SWIDTH 1400 0
DWIDTH 14 0
BBX 11 13 2 -2
BITMAP
0360
FB60
1B60
1BE0
1B60
1B60
7360
C000
7FE0
0060
7FE0
6000
7FE0
ENDCHAR
STARTCHAR C030067
ENCODING 12343
SWIDTH 1400 0
DWIDTH 14 0
BBX 11 13 2 -2
BITMAP
0360
FB60
1B60
1BE0
1B60
1B60
3360
E360
7FE0
6060
6060
6060
7FE0
ENDCHAR
STARTCHAR C030070
ENCODING 12344
SWIDTH 1400 0
DWIDTH 14 0
BBX 11 13 2 -2
BITMAP
0360
FB60
1B60
1BE0
1B60
3360
E360
6060
6060
7FE0
6060
6060
7FE0
ENDCHAR
STARTCHAR C030071
ENCODING 12345
SWIDTH 1400 0
DWIDTH 14 0
BBX 12 13 1 -2
BITMAP
01B0
FDB0
0DB0
0DF0
0DB0
0DB0
19B0
F1B0
0000
0300
0780
1CE0
7030
ENDCHAR
STARTCHAR C030072
ENCODING 12346
SWIDTH 1400 0
DWIDTH 14 0
BBX 13 13 1 -2
BITMAP
01B0
FDB0
0DB0
0DF0
0DB0
0DB0
39B0
E1B0
0000
18E0
3CE0
67B0
C318
ENDCHAR
STARTCHAR C030073
ENCODING 12347
SWIDTH 1400 0
DWIDTH 14 0
BBX 11 13 2 -2
BITMAP
0360
FB60
1F60
1B60
1BE0
1B60
3360
E360
1FC0
70E0
6060
70E0
3F80
ENDCHAR
STARTCHAR C030074
ENCODING 12348
SWIDTH 1400 0
DWIDTH 14 0
BBX 13 13 1 -2
BITMAP
0060
FE60
0660
0660
0678
0660
0C60
0C60
1878
3060
E060
0060
0060
ENDCHAR
STARTCHAR C030075
ENCODING 12349
SWIDTH 1400 0
DWIDTH 14 0
BBX 13 13 1 -2
BITMAP
0060
FE60
0678
0660
0660
0C78
1860
F060
0000
7FE0
0060
0060
0060
ENDCHAR
STARTCHAR C030076
ENCODING 12350
SWIDTH 1400 0
DWIDTH 14 0
BBX 13 13 1 -2
BITMAP
0060
FE60
0660
0678
0660
0660
1C78
F060
0060
6060
6000
6000
7FE0
ENDCHAR
STARTCHAR C030077
ENCODING 12351
SWIDTH 1400 0
DWIDTH 14 0
BBX 13 13 1 -2
BITMAP
0060
FE60
0678
0660
0C60
1878
F060
0060
7FE0
0060
7FE0
6000
7FE0
ENDCHAR
STARTCHAR C030100
ENCODING 12352
SWIDTH 1400 0
DWIDTH 14 0
BBX 13 13 1 -2
BITMAP
0060
FE60
0660
0678
0660
0E60
1878
F060
0060
0700
0F80
18C0
7070
ENDCHAR
STARTCHAR C030101
ENCODING 12353
SWIDTH 1400 0
DWIDTH 14 0
BBX 13 13 1 -2
BITMAP
0060
FE60
0660
0678
0660
0C78
3860
E060
3F80
E0E0
C060
E0E0
3F80
ENDCHAR
STARTCHAR C030102
ENCODING 12354
SWIDTH 1400 0
DWIDTH 14 0
BBX 12 13 1 -2
BITMAP
01B0
FDB0
0DB0
0DF0
0DF0
0DB0
0DB0
19F0
19F0
71B0
C1B0
01B0
0030
ENDCHAR
STARTCHAR C030103
ENCODING 12355
SWIDTH 1400 0
DWIDTH 14 0
BBX 11 13 2 -2
BITMAP
0360
FB60
1B60
1BE0
1B60
1B60
33E0
E360
0360
6060
6000
6000
7FE0
ENDCHAR
STARTCHAR C030104
ENCODING 12356
SWIDTH 1400 0
DWIDTH 14 0
BBX 12 13 1 -2
BITMAP
01B0
7DB0
0DF0
0DB0
0DB0
0DF0
39B0
E1B0
3FF0
0030
3FF0
3000
3FF0
ENDCHAR
STARTCHAR C030105
ENCODING 12357
SWIDTH 1400 0
DWIDTH 14 0
BBX 11 13 2 -2
BITMAP
0060
FE60
0660
0660
0660
0660
0FE0
0C60
1860
3060
E060
0060
0060
ENDCHAR
STARTCHAR C030106
ENCODING 12358
SWIDTH 1400 0
DWIDTH 14 0
BBX 11 13 2 -2
BITMAP
0060
FE60
0660
0660
07E0
0C60
3860
E060
0000
7FE0
0060
0060
0060
ENDCHAR
STARTCHAR C030107
ENCODING 12359
SWIDTH 1400 0
DWIDTH 14 0
BBX 11 13 2 -2
BITMAP
0060
FE60
0660
0660
0660
0FE0
1860
F060
0060
6060
6000
6000
7FE0
ENDCHAR
STARTCHAR C030110
ENCODING 12360
SWIDTH 1400 0
DWIDTH 14 0
BBX 11 13 2 -2
BITMAP
0060
FE60
0660
0660
07E0
0C60
3860
E060
7FE0
6000
6000
6000
7FE0
ENDCHAR
STARTCHAR C030111
ENCODING 12361
SWIDTH 1400 0
DWIDTH 14 0
BBX 11 13 2 -2
BITMAP
0060
FE60
0660
07E0
0C60
1C60
7060
C000
7FE0
0060
7FE0
6000
7FE0
ENDCHAR
STARTCHAR C030112
ENCODING 12362
SWIDTH 1400 0
DWIDTH 14 0
BBX 11 13 2 -2
BITMAP
0060
FE60
0660
07E0
0660
1C60
F060
0000
FFE0
0F60
FB60
C360
FFE0
ENDCHAR
STARTCHAR C030113
ENCODING 12363
SWIDTH 1400 0
DWIDTH 14 0
BBX 11 13 2 -2
BITMAP
0060
FE60
0660
0660
07E0
0C60
7860
C000
7FE0
6060
6060
6060
7FE0
ENDCHAR
STARTCHAR C030114
ENCODING 12364
SWIDTH 1400 0
DWIDTH 14 0
BBX 11 13 2 -2
BITMAP
0060
FE60
0660
0660
07E0
0C60
F860
6060
6060
7FE0
6060
6060
7FE0
ENDCHAR
STARTCHAR C030115
ENCODING 12365
SWIDTH 1400 0
DWIDTH 14 0
BBX 13 13 1 -2
BITMAP
0030
7F30
0330
0330
03F0
0630
1C30
F030
0030
0300
0780
1CE0
7038
ENDCHAR
STARTCHAR C030116
ENCODING 12366
SWIDTH 1400 0
DWIDTH 14 0
BBX 13 13 1 -2
BITMAP
0030
7F30
0330
0330
07F0
0630
1C30
F030
18C0
18E0
38E0
6DB0
C718
ENDCHAR
STARTCHAR C030117
ENCODING 12367
SWIDTH 1400 0
DWIDTH 14 0
BBX 11 13 2 -2
BITMAP
0060
FE60
0660
0660
07E0
0C60
1860
F060
1F80
70E0
6060
70E0
1F80
ENDCHAR
STARTCHAR C030120
ENCODING 12368
SWIDTH 1400 0
DWIDTH 14 0
BBX 11 13 2 -2
BITMAP
0060
FE60
0660
0660
07E0
0C60
3860
E060
FFE0
0600
0F00
3980
E0E0
ENDCHAR
STARTCHAR C030121
ENCODING 12369
SWIDTH 1400 0
DWIDTH 14 0
BBX 11 13 2 -2
BITMAP
0060
FE60
0660
0660
07E0
0C60
3860
E000
7FE0
6000
7FE0
6000
7FE0
ENDCHAR
STARTCHAR C030122
ENCODING 12370
SWIDTH 1400 0
DWIDTH 14 0
BBX 12 13 2 -2
BITMAP
0060
FE60
0660
0660
0FE0
1C60
7060
C060
7FF0
18C0
18C0
18C0
7FE0
ENDCHAR
STARTCHAR C030123
ENCODING 12371
SWIDTH 1400 0
DWIDTH 14 0
BBX 13 13 1 -2
BITMAP
0030
7F30
0330
0330
03F0
0630
3C30
EFF0
0000
7FF8
3FE0
3030
1FE0
ENDCHAR
STARTCHAR C030124
ENCODING 12372
SWIDTH 1400 0
DWIDTH 14 0
BBX 12 13 1 -2
BITMAP
01B0
FDB0
0DB0
0DB0
0DB0
0FB0
0DB0
19B0
19B0
31B0
E1B0
01B0
0030
ENDCHAR
STARTCHAR C030125
ENCODING 12373
SWIDTH 1400 0
DWIDTH 14 0
BBX 12 13 1 -2
BITMAP
01B0
F9B0
19B0
19B0
1FB0
19B0
31B0
E1B0
01B0
3030
3000
3000
3FF0
ENDCHAR
STARTCHAR C030126
ENCODING 12374
SWIDTH 1400 0
DWIDTH 14 0
BBX 13 13 1 -2
BITMAP
01B0
FDB0
0DB0
0FB0
0DB0
0DB0
39B0
E030
3FF0
0030
1FF0
3000
1FF8
ENDCHAR
STARTCHAR C030127
ENCODING 12375
SWIDTH 1400 0
DWIDTH 14 0
BBX 12 13 1 -2
BITMAP
01B0
F9B0
19B0
19B0
1FB0
19B0
31B0
E1B0
3FF0
3030
3030
3030
3FF0
ENDCHAR
STARTCHAR C030130
ENCODING 12376
SWIDTH 1400 0
DWIDTH 14 0
BBX 12 13 1 -2
BITMAP
01B0
F9B0
19B0
19B0
1FB0
19B0
71B0
C1B0
3030
3FF0
3030
3030
3FF0
ENDCHAR
STARTCHAR C030131
ENCODING 12377
SWIDTH 1400 0
DWIDTH 14 0
BBX 13 13 1 -2
BITMAP
01B0
FDB0
0DB0
0DB0
0FB0
0DB0
19B0
71B0
C000
0300
0780
1CE0
7038
ENDCHAR
STARTCHAR C030132
ENCODING 12378
SWIDTH 1400 0
DWIDTH 14 0
BBX 13 13 1 -2
BITMAP
01B0
FDB0
0DB0
0DB0
0FB0
19B0
39B0
E1B0
0030
18E0
38E0
6DB0
C718
ENDCHAR
STARTCHAR C030133
ENCODING 12379
SWIDTH 1400 0
DWIDTH 14 0
BBX 12 13 1 -2
BITMAP
01B0
F9B0
19B0
19B0
1FB0
19B0
31B0
E1B0
0FC0
3870
3030
3870
0FC0
ENDCHAR
STARTCHAR C030134
ENCODING 12380
SWIDTH 1400 0
DWIDTH 14 0
BBX 11 13 2 -2
BITMAP
0060
FE60
0660
0660
07E0
0660
0C60
0C60
1BE0
3060
E060
0060
0060
ENDCHAR
STARTCHAR C030135
ENCODING 12381
SWIDTH 1400 0
DWIDTH 14 0
BBX 11 13 2 -2
BITMAP
0060
FE60
0660
07E0
0660
0FE0
3860
E060
0000
7FE0
0060
0060
0060
ENDCHAR
STARTCHAR C030136
ENCODING 12382
SWIDTH 1400 0
DWIDTH 14 0
BBX 11 13 2 -2
BITMAP
0060
FE60
0660
07E0
0660
0FE0
7860
C060
FFE0
0C60
0C60
0C60
0C60
ENDCHAR
STARTCHAR C030137
ENCODING 12383
SWIDTH 1400 0
DWIDTH 14 0
BBX 11 13 2 -2
BITMAP
0060
FE60
0660
07E0
0660
0C60
1BE0
F060
0060
6060
6000
6000
7FE0
ENDCHAR
STARTCHAR C030140
ENCODING 12384
SWIDTH 1400 0
DWIDTH 14 0
BBX 11 13 2 -2
BITMAP
0060
FE60
0660
07E0
0660
0C60
3BE0
E060
7FE0
6000
6000
6000
7FE0
ENDCHAR
STARTCHAR C030141
ENCODING 12385
SWIDTH 1400 0
DWIDTH 14 0
BBX 11 13 2 -2
BITMAP
0060
FE60
07E0
0660
0C60
39E0
E060
0060
7FE0
0060
7FE0
6000
3FE0
ENDCHAR
STARTCHAR C030142
ENCODING 12386
SWIDTH 1400 0
DWIDTH 14 0
BBX 11 13 2 -2
BITMAP
0060
FE60
07E0
0660
0660
0FE0
3860
E000
7FE0
6060
6060
6060
7FE0
ENDCHAR
STARTCHAR C030143
ENCODING 12387
SWIDTH 1400 0
DWIDTH 14 0
BBX 11 13 2 -2
BITMAP
0060
FE60
07E0
0660
0660
0FE0
3860
E060
6060
7FE0
6060
6060
7FE0
ENDCHAR
STARTCHAR C030144
ENCODING 12388
SWIDTH 1400 0
DWIDTH 14 0
BBX 12 13 1 -2
BITMAP
0030
7F30
0330
03F0
0330
0630
1DF0
F030
0330
0300
0780
1CE0
7030
ENDCHAR
STARTCHAR C030145
ENCODING 12389
SWIDTH 1400 0
DWIDTH 14 0
BBX 12 12 1 -1
BITMAP
0030
7E30
03F0
0330
0630
0EF0
1830
F000
18C0
18E0
38E0
6FB0
ENDCHAR
STARTCHAR C030146
ENCODING 12390
SWIDTH 1400 0
DWIDTH 14 0
BBX 11 13 2 -2
BITMAP
0060
FE60
0660
07E0
0660
0C60
39E0
E060
1F80
70E0
6060
70E0
1F80
ENDCHAR
STARTCHAR C030147
ENCODING 12391
SWIDTH 1400 0
DWIDTH 14 0
BBX 11 13 2 -2
BITMAP
0060
FE60
07E0
0660
0660
0DE0
3860
E000
7FE0
6000
7FE0
6000
7FE0
ENDCHAR
STARTCHAR C030150
ENCODING 12392
SWIDTH 1400 0
DWIDTH 14 0
BBX 12 13 1 -2
BITMAP
01B0
FDB0
0DB0
0FB0
0DB0
0DB0
0DB0
1FB0
19B0
31B0
E1B0
01B0
0030
ENDCHAR
STARTCHAR C030151
ENCODING 12393
SWIDTH 1400 0
DWIDTH 14 0
BBX 12 13 1 -2
BITMAP
01B0
F9B0
19B0
1FB0
19B0
19B0
37B0
E1B0
01B0
3000
3000
3000
3FF0
ENDCHAR
STARTCHAR C030152
ENCODING 12394
SWIDTH 1400 0
DWIDTH 14 0
BBX 12 13 1 -2
BITMAP
01B0
F9B0
1FB0
19B0
19B0
3FB0
E1B0
0000
3FF0
0030
3FF0
3000
3FF0
ENDCHAR
STARTCHAR C030153
ENCODING 12395
SWIDTH 1400 0
DWIDTH 14 0
BBX 12 13 1 -2
BITMAP
01B0
F9B0
1FB0
19B0
19B0
1FB0
71B0
E060
6060
7FE0
6060
6060
7FE0
ENDCHAR
STARTCHAR C030154
ENCODING 12396
SWIDTH 1400 0
DWIDTH 14 0
BBX 13 13 1 -2
BITMAP
01B0
FDB0
0DB0
0FB0
0DB0
1FB0
19B0
F1B0
0030
0300
0780
1CE0
7038
ENDCHAR
STARTCHAR C030155
ENCODING 12397
SWIDTH 1400 0
DWIDTH 14 0
BBX 12 11 1 -1
BITMAP
7FE0
0060
0060
0060
00C0
0CC0
0CC0
0CC0
0CC0
0C00
FFF0
ENDCHAR
STARTCHAR C030156
ENCODING 12398
SWIDTH 1400 0
DWIDTH 14 0
BBX 13 12 1 -2
BITMAP
3FF0
0030
0630
0630
0630
FFF8
0000
7FF0
0030
0030
0030
0030
ENDCHAR
STARTCHAR C030157
ENCODING 12399
SWIDTH 1400 0
DWIDTH 14 0
BBX 13 12 1 -2
BITMAP
3FF0
0030
0030
0630
0630
0630
FFF8
0000
3000
3000
3000
3FF0
ENDCHAR
STARTCHAR C030160
ENCODING 12400
SWIDTH 1400 0
DWIDTH 14 0
BBX 13 12 1 -2
BITMAP
3FF0
0030
0630
0630
0630
FFF8
0000
3FF0
3000
3000
3000
3FF0
ENDCHAR
STARTCHAR C030161
ENCODING 12401
SWIDTH 1400 0
DWIDTH 14 0
BBX 13 12 1 -2
BITMAP
7FF0
0030
0030
0660
0660
FFF8
0000
7FE0
0030
7FE0
6000
7FF0
ENDCHAR
STARTCHAR C030162
ENCODING 12402
SWIDTH 1400 0
DWIDTH 14 0
BBX 13 12 1 -2
BITMAP
7FF0
0030
0630
0630
0630
FFF8
0000
7DF0
0DB0
7DB0
61B0
7FF0
ENDCHAR
STARTCHAR C030163
ENCODING 12403
SWIDTH 1400 0
DWIDTH 14 0
BBX 13 12 1 -2
BITMAP
7FF0
0030
0630
0630
0630
FFF8
0000
7CC0
0CC0
7DE0
6330
7E10
ENDCHAR
STARTCHAR C030164
ENCODING 12404
SWIDTH 1400 0
DWIDTH 14 0
BBX 13 12 1 -2
BITMAP
7FF0
0630
0630
0630
FFF8
0000
7DE0
0FF0
7C00
63F0
6330
7DE0
ENDCHAR
STARTCHAR C030165
ENCODING 12405
SWIDTH 1400 0
DWIDTH 14 0
BBX 13 12 1 -2
BITMAP
7FF0
0030
0630
0630
0630
FFF8
0000
7FF0
6030
6030
6030
7FF0
ENDCHAR
STARTCHAR C030166
ENCODING 12406
SWIDTH 1400 0
DWIDTH 14 0
BBX 13 12 1 -2
BITMAP
7FF0
0030
0630
0630
0630
FFF8
6030
6030
7FF0
6030
6030
7FF0
ENDCHAR
STARTCHAR C030167
ENCODING 12407
SWIDTH 1400 0
DWIDTH 14 0
BBX 13 12 1 -2
BITMAP
7FF0
0030
0630
0630
0630
FFF8
0000
0000
0700
0D80
38C0
6070
ENDCHAR
STARTCHAR C030170
ENCODING 12408
SWIDTH 1400 0
DWIDTH 14 0
BBX 13 12 1 -2
BITMAP
7FF0
0030
0630
0630
0630
FFF8
0000
1FC0
7070
6030
7070
1FC0
ENDCHAR
STARTCHAR C030171
ENCODING 12409
SWIDTH 1400 0
DWIDTH 14 0
BBX 13 12 1 -2
BITMAP
3FF0
0030
0630
0630
0630
FFF8
0000
7FF0
0700
0D80
38E0
6030
ENDCHAR
STARTCHAR C030172
ENCODING 12410
SWIDTH 1400 0
DWIDTH 14 0
BBX 13 13 1 -2
BITMAP
0060
FF60
0360
0360
0360
0378
1B60
1B60
1860
1FE0
FC60
0060
0060
ENDCHAR
STARTCHAR C030173
ENCODING 12411
SWIDTH 1400 0
DWIDTH 14 0
BBX 13 13 1 -2
BITMAP
0060
FF60
0360
1B60
1B78
1B60
FFE0
0060
0000
7FE0
0060
0060
0060
ENDCHAR
STARTCHAR C030174
ENCODING 12412
SWIDTH 1400 0
DWIDTH 14 0
BBX 13 13 1 -2
BITMAP
0060
FF60
0360
0360
1B60
1B78
1B60
FFE0
0060
6060
6000
6000
7FE0
ENDCHAR
STARTCHAR C030175
ENCODING 12413
SWIDTH 1400 0
DWIDTH 14 0
BBX 13 13 1 -2
BITMAP
0060
FF60
0360
3360
3378
3360
FFE0
0060
7FE0
0060
7FE0
6000
7FE0
ENDCHAR
STARTCHAR C030176
ENCODING 12414
SWIDTH 1400 0
DWIDTH 14 0
BBX 13 13 1 -2
BITMAP
0060
FF60
0360
1B78
1B60
FFE0
0060
03E0
FF60
FF60
C360
FF60
03E0
ENDCHAR
STARTCHAR C030177
ENCODING 12415
SWIDTH 1400 0
DWIDTH 14 0
BBX 0 0 0 0
BITMAP
ENDCHAR
STARTCHAR C030441
ENCODING 12577
SWIDTH 1400 0
DWIDTH 14 0
BBX 13 13 1 -2
BITMAP
0060
FF60
0360
1B78
1B60
1B60
FFE0
0060
7FE0
6060
6060
6060
7FE0
ENDCHAR
STARTCHAR C030442
ENCODING 12578
SWIDTH 1400 0
DWIDTH 14 0
BBX 13 13 1 -2
BITMAP
0060
FF60
0360
1B78
1B60
1B60
FFE0
0060
6060
7FE0
6060
6060
7FE0
ENDCHAR
STARTCHAR C030443
ENCODING 12579
SWIDTH 1400 0
DWIDTH 14 0
BBX 13 13 1 -2
BITMAP
0060
FF60
0360
1B78
1B60
1B60
FFE0
0060
0060
0700
0D80
38E0
6030
ENDCHAR
STARTCHAR C030444
ENCODING 12580
SWIDTH 1400 0
DWIDTH 14 0
BBX 13 13 1 -2
BITMAP
0060
FF60
0360
1B78
1B60
1B60
FFE0
0060
1F80
70E0
6060
70E0
1F80
ENDCHAR
STARTCHAR C030445
ENCODING 12581
SWIDTH 1400 0
DWIDTH 14 0
BBX 12 13 1 -2
BITMAP
01B0
FDB0
0DB0
0DB0
0DB0
0DF0
6DB0
6DB0
61B0
61B0
FFB0
01B0
01B0
ENDCHAR
STARTCHAR C030446
ENCODING 12582
SWIDTH 1400 0
DWIDTH 14 0
BBX 12 13 1 -2
BITMAP
01B0
FDB0
0DB0
0DB0
6DF0
6DB0
6DB0
FFB0
01B0
31B0
3000
3000
3FF0
ENDCHAR
STARTCHAR C030447
ENCODING 12583
SWIDTH 1400 0
DWIDTH 14 0
BBX 12 13 1 -2
BITMAP
01B0
FDB0
0DB0
0DB0
6DF0
6DB0
FFB0
0030
3FF0
0030
3FF0
3000
3FF0
ENDCHAR
STARTCHAR C030450
ENCODING 12584
SWIDTH 1400 0
DWIDTH 14 0
BBX 12 13 1 -2
BITMAP
01B0
FDB0
0DB0
0DB0
6DF0
6DB0
FFB0
0030
3030
3FF0
3030
3030
1FF0
ENDCHAR
STARTCHAR C030451
ENCODING 12585
SWIDTH 1400 0
DWIDTH 14 0
BBX 12 13 1 -2
BITMAP
01B0
FDB0
0DB0
6DB0
6DF0
61B0
FFB0
01B0
10C0
38E0
39E0
6DB0
8610
ENDCHAR
STARTCHAR C030452
ENCODING 12586
SWIDTH 1400 0
DWIDTH 14 0
BBX 12 13 1 -2
BITMAP
01B0
FDB0
0DB0
6DB0
6DF0
6DB0
FFB0
01B0
0FC0
3860
3030
3870
0FC0
ENDCHAR
STARTCHAR C030453
ENCODING 12587
SWIDTH 1400 0
DWIDTH 14 0
BBX 11 13 2 -2
BITMAP
0060
7F60
0360
0360
0360
0360
3360
3360
3060
3060
FFE0
0060
0060
ENDCHAR
STARTCHAR C030454
ENCODING 12588
SWIDTH 1400 0
DWIDTH 14 0
BBX 11 13 2 -2
BITMAP
0060
FF60
0360
3360
3360
3360
FFE0
0060
0000
7FE0
0060
0060
0060
ENDCHAR
STARTCHAR C030455
ENCODING 12589
SWIDTH 1400 0
DWIDTH 14 0
BBX 11 13 2 -2
BITMAP
0060
FF60
0360
0360
3360
3360
3FE0
F860
0060
6000
6000
6000
7FE0
ENDCHAR
STARTCHAR C030456
ENCODING 12590
SWIDTH 1400 0
DWIDTH 14 0
BBX 11 12 2 -2
BITMAP
FF60
0360
3360
3360
3060
FFE0
0060
7FE0
0060
7FE0
6000
7FE0
ENDCHAR
STARTCHAR C030457
ENCODING 12591
SWIDTH 1400 0
DWIDTH 14 0
BBX 11 12 2 -2
BITMAP
FF60
0360
3360
3360
3060
FFE0
0060
7FE0
6060
6060
6060
7FE0
ENDCHAR
STARTCHAR C030460
ENCODING 12592
SWIDTH 1400 0
DWIDTH 14 0
BBX 11 12 2 -2
BITMAP
FF60
0360
3360
3360
3060
FFE0
0060
6060
7FE0
6060
6060
7FE0
ENDCHAR
STARTCHAR C030461
ENCODING 12593
SWIDTH 1400 0
DWIDTH 14 0
BBX 12 13 1 -2
BITMAP
0030
7FB0
01B0
19B0
19B0
19B0
FFF0
0030
0330
0300
0780
1CE0
7030
ENDCHAR
STARTCHAR C030462
ENCODING 12594
SWIDTH 1400 0
DWIDTH 14 0
BBX 11 12 2 -2
BITMAP
7F60
0360
3360
3360
3360
FFE0
0060
1F80
70E0
6060
70E0
1F80
ENDCHAR
STARTCHAR C030463
ENCODING 12595
SWIDTH 1400 0
DWIDTH 14 0
BBX 13 11 1 -1
BITMAP
3FF0
0030
0030
0030
0060
19E0
19E0
19E0
19E0
1980
FFF8
ENDCHAR
STARTCHAR C030464
ENCODING 12596
SWIDTH 1400 0
DWIDTH 14 0
BBX 13 12 1 -2
BITMAP
7FE0
0030
19B0
19B0
19B0
FFF8
0000
0000
3000
3000
3000
3FF0
ENDCHAR
STARTCHAR C030465
ENCODING 12597
SWIDTH 1400 0
DWIDTH 14 0
BBX 13 12 1 -2
BITMAP
3FF0
0030
0030
19B0
19B0
FFF8
0000
3FF0
0030
3FF0
3000
3FF0
ENDCHAR
STARTCHAR C030466
ENCODING 12598
SWIDTH 1400 0
DWIDTH 14 0
BBX 13 12 1 -2
BITMAP
7FE0
0030
19B0
19B0
1980
FFF8
3030
3030
3FF0
3030
3030
3FF0
ENDCHAR
STARTCHAR C030467
ENCODING 12599
SWIDTH 1400 0
DWIDTH 14 0
BBX 13 12 1 -2
BITMAP
7FE0
0030
19B0
19B0
1980
FFF8
0000
0300
0700
0F80
38E0
6030
ENDCHAR
STARTCHAR C030470
ENCODING 12600
SWIDTH 1400 0
DWIDTH 14 0
BBX 12 12 2 -2
BITMAP
FFE0
0060
0060
0060
0060
0060
FFF0
0600
0600
0600
0600
0600
ENDCHAR
STARTCHAR C030471
ENCODING 12601
SWIDTH 1400 0
DWIDTH 14 0
BBX 12 12 2 -2
BITMAP
7FE0
0060
0060
0060
0060
FFF0
0600
7FE0
0060
0060
0060
0060
ENDCHAR
STARTCHAR C030472
ENCODING 12602
SWIDTH 1400 0
DWIDTH 14 0
BBX 13 12 1 -2
BITMAP
3FF0
0030
0030
0030
0030
FFF8
0300
0300
3300
3000
3000
3FF0
ENDCHAR
STARTCHAR C030473
ENCODING 12603
SWIDTH 1400 0
DWIDTH 14 0
BBX 12 12 2 -2
BITMAP
7FE0
0060
0060
0060
FFF0
0600
0600
7FE0
6000
6000
6000
7FE0
ENDCHAR
STARTCHAR C030474
ENCODING 12604
SWIDTH 1400 0
DWIDTH 14 0
BBX 13 12 1 -2
BITMAP
7FE0
0030
0060
0060
FFF8
0600
0600
7FE0
0030
7FE0
6000
3FF0
ENDCHAR
STARTCHAR C030475
ENCODING 12605
SWIDTH 1400 0
DWIDTH 14 0
BBX 12 12 2 -2
BITMAP
7FE0
0060
0060
0060
FFF0
0600
0600
FBE0
0C60
F860
C060
FC60
ENDCHAR
STARTCHAR C030476
ENCODING 12606
SWIDTH 1400 0
DWIDTH 14 0
BBX 13 12 1 -2
BITMAP
3FF0
0030
0030
0030
FFF8
0600
0600
7DF0
0DB0
7DB0
61B0
7FF0
ENDCHAR
STARTCHAR C030477
ENCODING 12607
SWIDTH 1400 0
DWIDTH 14 0
BBX 13 12 1 -2
BITMAP
3FF0
0030
0030
0030
FFF8
0600
7FE0
0FF0
0C00
7DF0
6330
7FF0
ENDCHAR
STARTCHAR C030500
ENCODING 12608
SWIDTH 1400 0
DWIDTH 14 0
BBX 12 12 2 -2
BITMAP
7FE0
0060
0060
0060
FFF0
0600
0600
7FE0
6060
6060
6060
7FE0
ENDCHAR
STARTCHAR C030501
ENCODING 12609
SWIDTH 1400 0
DWIDTH 14 0
BBX 12 12 2 -2
BITMAP
7FE0
0060
0060
0060
FFF0
0600
6660
6060
7FE0
6060
6060
7FE0
ENDCHAR
STARTCHAR C030502
ENCODING 12610
SWIDTH 1400 0
DWIDTH 14 0
BBX 12 12 2 -2
BITMAP
7FE0
0060
0060
0060
0060
FFF0
0600
0600
0E00
1B00
71C0
C060
ENDCHAR
STARTCHAR C030503
ENCODING 12611
SWIDTH 1400 0
DWIDTH 14 0
BBX 12 12 2 -2
BITMAP
FFE0
0060
0060
0060
FFF0
0600
0600
3F80
E0E0
C060
E0E0
3F80
ENDCHAR
STARTCHAR C030504
ENCODING 12612
SWIDTH 1400 0
DWIDTH 14 0
BBX 13 11 1 -1
BITMAP
3FF0
0030
0030
0030
FFF8
0600
0600
3FF0
0700
0F80
38F0
ENDCHAR
STARTCHAR C030505
ENCODING 12613
SWIDTH 1400 0
DWIDTH 14 0
BBX 11 13 2 -2
BITMAP
0060
7F60
0360
0360
0360
0360
FFE0
1860
1BE0
1860
1860
1860
0060
ENDCHAR
STARTCHAR C030506
ENCODING 12614
SWIDTH 1400 0
DWIDTH 14 0
BBX 11 13 2 -2
BITMAP
0060
7F60
0360
0360
0360
FFE0
1860
1BE0
0000
7FE0
0060
0060
0060
ENDCHAR
STARTCHAR C030507
ENCODING 12615
SWIDTH 1400 0
DWIDTH 14 0
BBX 12 13 2 -2
BITMAP
0060
FE60
0660
0660
0660
FFE0
1860
1BE0
1860
6060
6000
6000
7FF0
ENDCHAR
STARTCHAR C030510
ENCODING 12616
SWIDTH 1400 0
DWIDTH 14 0
BBX 11 13 2 -2
BITMAP
0060
FE60
0660
0660
FFE0
1860
1BE0
0060
7FE0
0060
7FE0
6000
7FE0
ENDCHAR
STARTCHAR C030511
ENCODING 12617
SWIDTH 1400 0
DWIDTH 14 0
BBX 13 12 1 -1
BITMAP
0030
7F30
0330
0330
03F0
7E30
0DF0
0C30
18C0
38E0
39E0
EFB8
ENDCHAR
STARTCHAR C030512
ENCODING 12618
SWIDTH 1400 0
DWIDTH 14 0
BBX 11 12 2 -2
BITMAP
7F60
0360
0360
0360
FFE0
1BE0
1860
3F80
70E0
6060
70E0
1F80
ENDCHAR
STARTCHAR C030513
ENCODING 12619
SWIDTH 1400 0
DWIDTH 14 0
BBX 12 13 1 -2
BITMAP
01B0
FDB0
0DB0
0DB0
0DB0
0DB0
FFB0
31B0
3FB0
31B0
31B0
31B0
01B0
ENDCHAR
STARTCHAR C030514
ENCODING 12620
SWIDTH 1400 0
DWIDTH 14 0
BBX 13 13 0 -2
BITMAP
00D8
7ED8
06D8
06D8
06D8
FFD8
1BD8
18D8
1998
0180
03C0
0E70
3818
ENDCHAR
STARTCHAR C030515
ENCODING 12621
SWIDTH 1400 0
DWIDTH 14 0
BBX 11 12 2 -2
BITMAP
7F60
0360
0360
0360
0360
0360
FFE0
1860
1860
1860
1860
1860
ENDCHAR
STARTCHAR C030516
ENCODING 12622
SWIDTH 1400 0
DWIDTH 14 0
BBX 11 13 2 -2
BITMAP
0060
FF60
0360
0360
0360
FFE0
1860
1860
0000
7FE0
0060
0060
0060
ENDCHAR
STARTCHAR C030517
ENCODING 12623
SWIDTH 1400 0
DWIDTH 14 0
BBX 11 13 2 -2
BITMAP
0060
FF60
0360
0360
0360
0360
FFE0
1860
1860
7860
6000
6000
7FE0
ENDCHAR
STARTCHAR C030520
ENCODING 12624
SWIDTH 1400 0
DWIDTH 14 0
BBX 11 13 2 -2
BITMAP
0060
FF60
0360
0360
0360
FFE0
1860
1860
7FE0
0060
7FE0
6000
3FE0
ENDCHAR
STARTCHAR C030521
ENCODING 12625
SWIDTH 1400 0
DWIDTH 14 0
BBX 11 13 2 -2
BITMAP
0060
FF60
0360
0360
0360
FFE0
1860
1860
7FE0
6060
6060
6060
7FE0
ENDCHAR
STARTCHAR C030522
ENCODING 12626
SWIDTH 1400 0
DWIDTH 14 0
BBX 11 13 2 -2
BITMAP
0060
FF60
0360
0360
0360
FFE0
1860
1860
6060
7FE0
6060
6060
7FE0
ENDCHAR
STARTCHAR C030523
ENCODING 12627
SWIDTH 1400 0
DWIDTH 14 0
BBX 12 13 1 -2
BITMAP
0030
7FB0
01B0
01B0
01B0
01B0
FFF0
0C30
0F30
0300
0780
1CE0
7030
ENDCHAR
STARTCHAR C030524
ENCODING 12628
SWIDTH 1400 0
DWIDTH 14 0
BBX 13 12 1 -2
BITMAP
7FF0
0030
0030
0030
0030
0030
FFF8
18C0
18C0
18C0
18C0
18C0
ENDCHAR
STARTCHAR C030525
ENCODING 12629
SWIDTH 1400 0
DWIDTH 14 0
BBX 13 12 1 -2
BITMAP
7FF0
0030
0030
0030
0030
FFF8
0CC0
0CC0
6CC0
6000
6000
7FF0
ENDCHAR
STARTCHAR C030526
ENCODING 12630
SWIDTH 1400 0
DWIDTH 14 0
BBX 13 12 1 -2
BITMAP
7FE0
0030
0060
0060
FFF8
18C0
18C0
7FE0
0030
7FE0
6000
3FF0
ENDCHAR
STARTCHAR C030527
ENCODING 12631
SWIDTH 1400 0
DWIDTH 14 0
BBX 12 11 1 -1
BITMAP
7FE0
0060
0060
0060
0060
0060
0060
0060
0060
0060
FFF0
ENDCHAR
STARTCHAR C030530
ENCODING 12632
SWIDTH 1400 0
DWIDTH 14 0
BBX 13 12 1 -2
BITMAP
7FF0
0030
0030
0030
0030
FFF8
0000
7FF0
0030
0030
0030
0030
ENDCHAR
STARTCHAR C030531
ENCODING 12633
SWIDTH 1400 0
DWIDTH 14 0
BBX 13 12 1 -2
BITMAP
3FF0
0030
0030
0030
0030
FFF8
0000
0000
3000
3000
3000
3FF0
ENDCHAR
STARTCHAR C030532
ENCODING 12634
SWIDTH 1400 0
DWIDTH 14 0
BBX 13 12 1 -2
BITMAP
7FF0
0030
0030
0030
0030
FFF8
0000
7FF0
6000
6000
6000
7FF0
ENDCHAR
STARTCHAR C030533
ENCODING 12635
SWIDTH 1400 0
DWIDTH 14 0
BBX 13 12 1 -2
BITMAP
7FF0
0030
0030
0060
FFF8
0000
0000
7FF0
0030
3FF0
6000
3FF0
ENDCHAR
STARTCHAR C030534
ENCODING 12636
SWIDTH 1400 0
DWIDTH 14 0
BBX 13 12 1 -2
BITMAP
3FF0
0030
0030
0030
FFF8
0000
0000
3FF0
0630
3E30
3030
3F30
ENDCHAR
STARTCHAR C030535
ENCODING 12637
SWIDTH 1400 0
DWIDTH 14 0
BBX 13 12 1 -2
BITMAP
3FF0
0030
0030
0030
0030
FFF8
0000
3FF0
3030
3030
3030
3FF0
ENDCHAR
STARTCHAR C030536
ENCODING 12638
SWIDTH 1400 0
DWIDTH 14 0
BBX 13 12 1 -2
BITMAP
3FF0
0030
0030
0030
0030
FFF8
3030
3030
3FF0
3030
3030
3FF0
ENDCHAR
STARTCHAR C030537
ENCODING 12639
SWIDTH 1400 0
DWIDTH 14 0
BBX 12 12 2 -2
BITMAP
7FE0
0060
0060
0060
0060
FFF0
0000
0600
0E00
0F00
39C0
E060
ENDCHAR
STARTCHAR C030540
ENCODING 12640
SWIDTH 1400 0
DWIDTH 14 0
BBX 12 12 2 -2
BITMAP
7FE0
0060
0060
0060
0060
FFF0
0000
1F80
70E0
6060
70E0
1F80
ENDCHAR
STARTCHAR C030541
ENCODING 12641
SWIDTH 1400 0
DWIDTH 14 0
BBX 11 12 2 -2
BITMAP
7F60
0360
0360
0360
0360
0360
0360
0360
03E0
FE60
0060
0060
ENDCHAR
STARTCHAR C030542
ENCODING 12642
SWIDTH 1400 0
DWIDTH 14 0
BBX 11 13 2 -2
BITMAP
0060
FE60
0660
0660
0660
0660
0660
0C60
1860
3060
E060
0060
0060
ENDCHAR
STARTCHAR C030543
ENCODING 12643
SWIDTH 1400 0
DWIDTH 14 0
BBX 11 13 2 -2
BITMAP
0060
FE60
0660
0660
0660
0C60
1860
F060
7FE0
0060
0060
0060
0060
ENDCHAR
STARTCHAR C030544
ENCODING 12644
SWIDTH 1400 0
DWIDTH 14 0
BBX 11 13 2 -2
BITMAP
0060
FE60
0660
0660
0660
0660
1C60
F060
0060
6060
6000
6000
7FE0
ENDCHAR
STARTCHAR C030545
ENCODING 12645
SWIDTH 1400 0
DWIDTH 14 0
BBX 11 13 2 -2
BITMAP
0060
FE60
0660
0660
0660
0C60
3860
E000
7FE0
6000
6000
6000
7FE0
ENDCHAR
STARTCHAR C030546
ENCODING 12646
SWIDTH 1400 0
DWIDTH 14 0
BBX 11 13 2 -2
BITMAP
0060
FE60
0660
0660
0660
0C60
3860
E000
7FE0
0060
7FE0
6000
7FE0
ENDCHAR
STARTCHAR C030547
ENCODING 12647
SWIDTH 1400 0
DWIDTH 14 0
BBX 11 13 2 -2
BITMAP
0060
FE60
0660
0660
0660
1C60
F060
0000
FFE0
0F60
FB60
C360
FFE0
ENDCHAR
STARTCHAR C030550
ENCODING 12648
SWIDTH 1400 0
DWIDTH 14 0
BBX 11 13 2 -2
BITMAP
0060
FE60
0660
0660
0660
0C60
3860
E000
7FE0
6060
6060
6060
7FE0
ENDCHAR
STARTCHAR C030551
ENCODING 12649
SWIDTH 1400 0
DWIDTH 14 0
BBX 11 13 2 -2
BITMAP
0060
FE60
0660
0660
0660
0C60
7860
E060
6060
7FE0
6060
6060
7FE0
ENDCHAR
STARTCHAR C030552
ENCODING 12650
SWIDTH 1400 0
DWIDTH 14 0
BBX 13 13 1 -2
BITMAP
0030
7F30
0330
0330
0330
0630
0C30
F830
0300
0380
0780
1CE0
7038
ENDCHAR
STARTCHAR C030553
ENCODING 12651
SWIDTH 1400 0
DWIDTH 14 0
BBX 11 13 2 -2
BITMAP
0060
FE60
0660
0660
0660
0C60
3860
E060
3F80
E0E0
C060
60E0
3F80
ENDCHAR
STARTCHAR C030554
ENCODING 12652
SWIDTH 1400 0
DWIDTH 14 0
BBX 11 13 2 -2
BITMAP
0060
FE60
0660
0660
0660
0C60
7860
C060
FFE0
0600
0F00
39C0
E060
ENDCHAR
STARTCHAR C030555
ENCODING 12653
SWIDTH 1400 0
DWIDTH 14 0
BBX 11 13 2 -2
BITMAP
0060
FE60
0660
0660
0C60
1C60
7060
C060
7FE0
1980
1980
1980
7FE0
ENDCHAR
STARTCHAR C030556
ENCODING 12654
SWIDTH 1400 0
DWIDTH 14 0
BBX 13 12 1 -1
BITMAP
0060
FF60
3360
3360
3360
3378
3360
3360
6360
E660
CE60
0060
ENDCHAR
STARTCHAR C030557
ENCODING 12655
SWIDTH 1400 0
DWIDTH 14 0
BBX 13 13 1 -2
BITMAP
0060
FF60
3360
3360
3378
6660
6660
DC60
0000
7FE0
0060
0060
0060
ENDCHAR
STARTCHAR C030560
ENCODING 12656
SWIDTH 1400 0
DWIDTH 14 0
BBX 13 13 1 -2
BITMAP
0030
FFB0
19B0
19B8
19B0
3330
E630
0000
3FF0
0630
0630
0630
0630
ENDCHAR
STARTCHAR C030561
ENCODING 12657
SWIDTH 1400 0
DWIDTH 14 0
BBX 13 13 1 -2
BITMAP
0030
FFB0
19B0
19B0
19B8
19B0
3330
E630
0030
6000
6000
6000
7FF0
ENDCHAR
STARTCHAR C030562
ENCODING 12658
SWIDTH 1400 0
DWIDTH 14 0
BBX 13 13 1 -2
BITMAP
0030
FFB0
19B0
19B8
19B0
3330
EE30
0000
7FF0
0030
7FF0
6000
3FF0
ENDCHAR
STARTCHAR C030563
ENCODING 12659
SWIDTH 1400 0
DWIDTH 14 0
BBX 13 12 1 -2
BITMAP
FFB0
19B0
19B0
1B38
3330
E630
0C30
7DF0
0DB0
7DB0
C1B0
7DF0
ENDCHAR
STARTCHAR C030564
ENCODING 12660
SWIDTH 1400 0
DWIDTH 14 0
BBX 13 13 1 -2
BITMAP
0030
FFB0
19B0
19B0
1B38
3330
E630
0030
3FF0
3030
3030
3030
3FF0
ENDCHAR
STARTCHAR C030565
ENCODING 12661
SWIDTH 1400 0
DWIDTH 14 0
BBX 13 13 1 -2
BITMAP
0030
FFB0
19B0
19B0
19B8
3330
EE30
0030
6030
7FF0
6030
6030
7FF0
ENDCHAR
STARTCHAR C030566
ENCODING 12662
SWIDTH 1400 0
DWIDTH 14 0
BBX 13 13 1 -2
BITMAP
0030
FFB0
19B0
19B0
19B8
3330
7330
C630
0300
0700
0F80
18E0
7030
ENDCHAR
STARTCHAR C030567
ENCODING 12663
SWIDTH 1400 0
DWIDTH 14 0
BBX 13 13 1 -2
BITMAP
0060
FF60
3360
3360
3378
6660
6E60
D860
0000
38E0
38E0
6DB0
C718
ENDCHAR
STARTCHAR C030570
ENCODING 12664
SWIDTH 1400 0
DWIDTH 14 0
BBX 13 13 1 -2
BITMAP
0030
FFB0
19B0
19B0
19B8
3330
6730
CC30
1FC0
7070
6030
7070
1FC0
ENDCHAR
STARTCHAR C030571
ENCODING 12665
SWIDTH 1400 0
DWIDTH 14 0
BBX 13 13 1 -2
BITMAP
0030
FFB0
19B0
19B0
19B8
3330
6630
0030
3FF0
3000
3FF0
3000
3FF0
ENDCHAR
STARTCHAR C030572
ENCODING 12666
SWIDTH 1400 0
DWIDTH 14 0
BBX 13 13 0 -2
BITMAP
00D8
FED8
36D8
36D8
36D8
36D8
36F8
36D8
36D8
6CD8
DCD8
00D8
00D8
ENDCHAR
STARTCHAR C030573
ENCODING 12667
SWIDTH 1400 0
DWIDTH 14 0
BBX 13 13 0 -2
BITMAP
00D8
FED8
36D8
36F8
36D8
66D8
6CD8
D8D8
0000
1FF8
0018
0018
0018
ENDCHAR
STARTCHAR C030574
ENCODING 12668
SWIDTH 1400 0
DWIDTH 14 0
BBX 13 13 0 -2
BITMAP
00D8
FED8
36D8
36D8
36F8
36D8
6CD8
D8D8
00D8
1800
1800
1800
1FF8
ENDCHAR
STARTCHAR C030575
ENCODING 12669
SWIDTH 1400 0
DWIDTH 14 0
BBX 13 13 0 -2
BITMAP
00D8
FED8
36D8
36F8
6CD8
6CD8
D8D8
0000
1FF8
0018
1FF8
1800
1FF8
ENDCHAR
STARTCHAR C030576
ENCODING 12670
SWIDTH 1400 0
DWIDTH 14 0
BBX 13 13 0 -2
BITMAP
00D8
FED8
36D8
36F8
36D8
6CD8
ECD8
0018
1FF8
1818
1818
1818
1FF8
ENDCHAR
STARTCHAR C030577
ENCODING 12671
SWIDTH 1400 0
DWIDTH 14 0
BBX 0 0 0 0
BITMAP
ENDCHAR
STARTCHAR C031041
ENCODING 12833
SWIDTH 1400 0
DWIDTH 14 0
BBX 11 12 2 -2
BITMAP
FFE0
37E0
37E0
37E0
67E0
6DE0
19E0
6060
7FE0
6060
6060
7FE0
ENDCHAR
STARTCHAR C031042
ENCODING 12834
SWIDTH 1400 0
DWIDTH 14 0
BBX 11 12 2 -2
BITMAP
FFE0
37E0
37E0
37E0
37E0
6DE0
D9E0
0060
0600
0F00
39C0
6060
ENDCHAR
STARTCHAR C031043
ENCODING 12835
SWIDTH 1400 0
DWIDTH 14 0
BBX 13 12 1 -2
BITMAP
FFF0
33F0
33F0
33F0
63F0
66F0
0CF0
00C0
18C0
38E0
6DB0
C718
ENDCHAR
STARTCHAR C031044
ENCODING 12836
SWIDTH 1400 0
DWIDTH 14 0
BBX 12 13 1 -2
BITMAP
01B0
FFB0
37B0
37F0
37B0
67B0
EDB0
19B0
0FC0
3870
3030
3870
0FC0
ENDCHAR
STARTCHAR C031045
ENCODING 12837
SWIDTH 1400 0
DWIDTH 14 0
BBX 13 12 1 -2
BITMAP
FF60
3360
3360
3378
3360
3360
3360
6378
6660
CE60
0060
0060
ENDCHAR
STARTCHAR C031046
ENCODING 12838
SWIDTH 1400 0
DWIDTH 14 0
BBX 13 13 1 -2
BITMAP
0030
FFB0
19B8
19B0
19B0
3338
6330
CE30
0000
7FF0
0030
0030
0030
ENDCHAR
STARTCHAR C031047
ENCODING 12839
SWIDTH 1400 0
DWIDTH 14 0
BBX 13 13 1 -2
BITMAP
0060
FFE0
19F8
19E0
19F8
3360
EE60
0000
7FE0
0060
7FE0
6000
7FF0
ENDCHAR
STARTCHAR C031050
ENCODING 12840
SWIDTH 1400 0
DWIDTH 14 0
BBX 13 13 1 -2
BITMAP
0018
FF98
1998
1998
1998
19F8
1998
1998
3198
7318
C318
0018
0018
ENDCHAR
STARTCHAR C031051
ENCODING 12841
SWIDTH 1400 0
DWIDTH 14 0
BBX 11 12 2 -2
BITMAP
FF60
19E0
19E0
1BE0
3360
6660
CC60
0000
7FE0
0060
0060
0060
ENDCHAR
STARTCHAR C031052
ENCODING 12842
SWIDTH 1400 0
DWIDTH 14 0
BBX 11 12 2 -2
BITMAP
FF60
19E0
1B60
1BE0
3360
6660
0C60
7FE0
0C60
0C60
0C60
0C60
ENDCHAR
STARTCHAR C031053
ENCODING 12843
SWIDTH 1400 0
DWIDTH 14 0
BBX 11 12 2 -2
BITMAP
FF60
1B60
1B60
1B60
1BE0
3660
EE60
1860
6060
6000
6000
7FE0
ENDCHAR
STARTCHAR C031054
ENCODING 12844
SWIDTH 1400 0
DWIDTH 14 0
BBX 12 12 2 -2
BITMAP
FF60
3360
3360
33E0
3360
E660
0C60
7FE0
0060
7FE0
6000
7FF0
ENDCHAR
STARTCHAR C031055
ENCODING 12845
SWIDTH 1400 0
DWIDTH 14 0
BBX 12 12 2 -2
BITMAP
FF30
19B0
1B30
1BF0
3330
E630
0C30
7FE0
6060
6060
6060
7FE0
ENDCHAR
STARTCHAR C031056
ENCODING 12846
SWIDTH 1400 0
DWIDTH 14 0
BBX 12 12 2 -2
BITMAP
FF60
19E0
1B60
1BE0
3360
6660
6C30
6030
7FF0
6030
6030
7FF0
ENDCHAR
STARTCHAR C031057
ENCODING 12847
SWIDTH 1400 0
DWIDTH 14 0
BBX 12 13 1 -2
BITMAP
0030
FFB0
19B0
19B0
19F0
3330
7330
C630
0330
0700
0F80
18E0
7030
ENDCHAR
STARTCHAR C031060
ENCODING 12848
SWIDTH 1400 0
DWIDTH 14 0
BBX 13 13 1 -2
BITMAP
0030
FFB0
19B0
19B0
19F0
3330
E330
0630
1800
18E0
38E0
7DB0
0718
ENDCHAR
STARTCHAR C031061
ENCODING 12849
SWIDTH 1400 0
DWIDTH 14 0
BBX 12 13 2 -2
BITMAP
0030
FF30
19B0
1B30
33F0
3330
6630
0C30
1FB0
70E0
6060
70E0
1F80
ENDCHAR
STARTCHAR C031062
ENCODING 12850
SWIDTH 1400 0
DWIDTH 14 0
BBX 11 13 2 -2
BITMAP
0180
FFE0
37E0
37E0
37E0
37E0
37E0
37E0
37E0
6DE0
DDE0
01E0
01E0
ENDCHAR
STARTCHAR C031063
ENCODING 12851
SWIDTH 1400 0
DWIDTH 14 0
BBX 11 13 2 -2
BITMAP
01E0
FFE0
37E0
37E0
37E0
67E0
EDE0
19E0
0000
7FE0
0060
0060
0060
ENDCHAR
STARTCHAR C031064
ENCODING 12852
SWIDTH 1400 0
DWIDTH 14 0
BBX 11 12 2 -2
BITMAP
FFE0
37E0
37E0
37E0
37E0
6DE0
D9E0
01E0
6060
6000
6000
7FE0
ENDCHAR
STARTCHAR C031065
ENCODING 12853
SWIDTH 1400 0
DWIDTH 14 0
BBX 12 13 2 -2
BITMAP
0180
FFE0
37E0
37E0
37E0
67E0
6DE0
19E0
7FF0
6030
6030
6030
7FF0
ENDCHAR
STARTCHAR C031066
ENCODING 12854
SWIDTH 1400 0
DWIDTH 14 0
BBX 11 12 2 -2
BITMAP
FFE0
37E0
37E0
37E0
37E0
6DE0
EDE0
1E60
0700
0F00
39C0
E060
ENDCHAR
STARTCHAR C031067
ENCODING 12855
SWIDTH 1400 0
DWIDTH 14 0
BBX 13 13 1 -2
BITMAP
00D8
FED8
36D8
36D8
36F8
66D8
6CD8
D8D8
0FC0
3870
3030
3870
0FC0
ENDCHAR
STARTCHAR C031070
ENCODING 12856
SWIDTH 1400 0
DWIDTH 14 0
BBX 12 13 1 -2
BITMAP
0030
FFB0
19B0
19B0
19F0
19B0
19B0
19B0
31F0
7330
E630
0030
0030
ENDCHAR
STARTCHAR C031071
ENCODING 12857
SWIDTH 1400 0
DWIDTH 14 0
BBX 12 12 2 -2
BITMAP
FF30
1B30
1BF0
1B30
1B30
36F0
EC30
0030
6030
6000
6000
7FE0
ENDCHAR
STARTCHAR C031072
ENCODING 12858
SWIDTH 1400 0
DWIDTH 14 0
BBX 12 12 2 -2
BITMAP
FF30
33F0
3330
3330
33F0
E630
0C30
7FE0
0060
7FE0
6000
7FF0
ENDCHAR
STARTCHAR C031073
ENCODING 12859
SWIDTH 1400 0
DWIDTH 14 0
BBX 13 12 1 -2
BITMAP
7FB0
19B0
19F0
19B0
1BF0
3330
E630
0030
0380
0780
1CE0
7038
ENDCHAR
STARTCHAR C031074
ENCODING 12860
SWIDTH 1400 0
DWIDTH 14 0
BBX 12 11 1 -1
BITMAP
FFB0
19B0
19F0
19B0
3330
67F0
C030
18F0
18E0
38E0
6FB0
ENDCHAR
STARTCHAR C031075
ENCODING 12861
SWIDTH 1400 0
DWIDTH 14 0
BBX 11 12 2 -2
BITMAP
FF60
3360
33E0
3360
67E0
EE60
0000
7FE0
6000
7FE0
6000
7FE0
ENDCHAR
STARTCHAR C031076
ENCODING 12862
SWIDTH 1400 0
DWIDTH 14 0
BBX 11 12 2 -2
BITMAP
FFE0
37E0
37E0
37E0
37E0
37E0
37E0
37E0
6DE0
D9E0
01E0
0060
ENDCHAR
STARTCHAR C031077
ENCODING 12863
SWIDTH 1400 0
DWIDTH 14 0
BBX 13 11 1 -1
BITMAP
7FF0
0C30
0C30
0C30
0C30
0C30
0F30
1B60
0300
0300
FFF8
ENDCHAR
STARTCHAR C031100
ENCODING 12864
SWIDTH 1400 0
DWIDTH 14 0
BBX 13 12 1 -2
BITMAP
7FE0
0C30
0C30
0F30
0F00
0300
FFF8
0000
7FE0
0030
0030
0030
ENDCHAR
STARTCHAR C031101
ENCODING 12865
SWIDTH 1400 0
DWIDTH 14 0
BBX 13 12 1 -2
BITMAP
7FE0
0C30
0C30
0C30
1B60
1B60
FFF8
0000
3000
3000
3000
3FF0
ENDCHAR
STARTCHAR C031102
ENCODING 12866
SWIDTH 1400 0
DWIDTH 14 0
BBX 13 12 1 -2
BITMAP
7FE0
0C30
0C30
0F60
0F60
FFF8
0000
61E0
67F0
63F0
7F30
03F0
ENDCHAR
STARTCHAR C031103
ENCODING 12867
SWIDTH 1400 0
DWIDTH 14 0
BBX 13 12 1 -2
BITMAP
7FE0
0C30
0C30
0F60
0F60
FFF8
0000
7FF0
0030
3FF0
6000
3FF0
ENDCHAR
STARTCHAR C031104
ENCODING 12868
SWIDTH 1400 0
DWIDTH 14 0
BBX 13 12 1 -2
BITMAP
7DF0
0C30
0C30
0F30
0F30
FFF8
0000
3FF0
3030
3030
3030
3FF0
ENDCHAR
STARTCHAR C031105
ENCODING 12869
SWIDTH 1400 0
DWIDTH 14 0
BBX 13 12 1 -2
BITMAP
7FE0
0C30
0C30
0F60
0F60
FFF8
6030
6030
7FF0
6030
6030
7FF0
ENDCHAR
STARTCHAR C031106
ENCODING 12870
SWIDTH 1400 0
DWIDTH 14 0
BBX 13 12 1 -2
BITMAP
7FF0
0C30
0C30
0F30
0F30
0300
FFF8
0000
0700
0780
1CE0
7030
ENDCHAR
STARTCHAR C031107
ENCODING 12871
SWIDTH 1400 0
DWIDTH 14 0
BBX 13 12 1 -2
BITMAP
7FF0
0C30
0C30
0C30
0F30
0300
FFF8
0FC0
3870
3030
3870
0FC0
ENDCHAR
STARTCHAR C031110
ENCODING 12872
SWIDTH 1400 0
DWIDTH 14 0
BBX 13 12 1 -2
BITMAP
7FE0
0C30
0C30
0F60
0F60
FFF8
0000
3FF0
0300
0780
1DC0
7870
ENDCHAR
STARTCHAR C031111
ENCODING 12873
SWIDTH 1400 0
DWIDTH 14 0
BBX 13 12 1 -2
BITMAP
7FE0
0C30
0F60
0F60
FFF8
0000
0F80
0000
7FF0
0700
0D80
78F0
ENDCHAR
STARTCHAR C031112
ENCODING 12874
SWIDTH 1400 0
DWIDTH 14 0
BBX 13 12 1 -2
BITMAP
FFE0
19E0
19E0
19E0
19E0
1DF8
3DE0
0C60
FFE0
0060
0060
0060
ENDCHAR
STARTCHAR C031113
ENCODING 12875
SWIDTH 1400 0
DWIDTH 14 0
BBX 13 12 1 -2
BITMAP
FF60
19E0
31E0
3F78
3F60
FFE0
07E0
0060
7FE0
0060
0060
0060
ENDCHAR
STARTCHAR C031114
ENCODING 12876
SWIDTH 1400 0
DWIDTH 14 0
BBX 13 12 1 -2
BITMAP
FF60
19E0
31E0
3F78
3F60
FFE0
0000
7FE0
0060
7FE0
6000
7FE0
ENDCHAR
STARTCHAR C031115
ENCODING 12877
SWIDTH 1400 0
DWIDTH 14 0
BBX 13 11 1 -1
BITMAP
FF60
19E0
31E0
3F78
3F60
FFE0
0060
30C0
38C0
39E0
6FB0
ENDCHAR
STARTCHAR C031116
ENCODING 12878
SWIDTH 1400 0
DWIDTH 14 0
BBX 13 12 1 -2
BITMAP
FF60
19E0
19E0
31F8
3C60
0C60
FFE0
1FC0
7070
6030
7070
1FC0
ENDCHAR
STARTCHAR C031117
ENCODING 12879
SWIDTH 1400 0
DWIDTH 14 0
BBX 11 13 2 -2
BITMAP
01E0
FFE0
37E0
37E0
37E0
37E0
7FE0
7FE0
19E0
1BE0
FFE0
01E0
0180
ENDCHAR
STARTCHAR C031120
ENCODING 12880
SWIDTH 1400 0
DWIDTH 14 0
BBX 11 12 2 -2
BITMAP
FFE0
37E0
37E0
3FE0
3FE0
FFE0
01E0
0000
7FE0
0060
0060
0060
ENDCHAR
STARTCHAR C031121
ENCODING 12881
SWIDTH 1400 0
DWIDTH 14 0
BBX 11 12 2 -2
BITMAP
FFE0
37E0
37E0
3FE0
3FE0
FFE0
01E0
1F80
70E0
6060
70E0
1F80
ENDCHAR
STARTCHAR C031122
ENCODING 12882
SWIDTH 1400 0
DWIDTH 14 0
BBX 11 11 2 -1
BITMAP
F7E0
31E0
31E0
31E0
31E0
3F60
3F60
0C60
0FE0
F860
0060
ENDCHAR
STARTCHAR C031123
ENCODING 12883
SWIDTH 1400 0
DWIDTH 14 0
BBX 11 12 2 -2
BITMAP
FF60
31E0
31E0
31E0
3F60
0C60
FFE0
0060
6060
6000
6000
7FE0
ENDCHAR
STARTCHAR C031124
ENCODING 12884
SWIDTH 1400 0
DWIDTH 14 0
BBX 11 12 2 -2
BITMAP
FF60
31E0
31E0
3F60
3F60
FFE0
0060
7FE0
0060
7FE0
6000
7FE0
ENDCHAR
STARTCHAR C031125
ENCODING 12885
SWIDTH 1400 0
DWIDTH 14 0
BBX 11 12 2 -2
BITMAP
FFE0
31E0
31E0
3DE0
3F60
FFE0
0060
7FE0
6060
6060
6060
7FE0
ENDCHAR
STARTCHAR C031126
ENCODING 12886
SWIDTH 1400 0
DWIDTH 14 0
BBX 11 12 2 -2
BITMAP
FFE0
31E0
31E0
3DE0
0C60
FFE0
0060
6060
7FE0
6060
6060
7FE0
ENDCHAR
STARTCHAR C031127
ENCODING 12887
SWIDTH 1400 0
DWIDTH 14 0
BBX 11 12 2 -2
BITMAP
FFE0
31E0
31E0
3DE0
3F60
FFE0
0060
1F80
70E0
6060
70E0
1F80
ENDCHAR
STARTCHAR C031130
ENCODING 12888
SWIDTH 1400 0
DWIDTH 14 0
BBX 12 11 2 -1
BITMAP
FFE0
1860
1860
1860
1860
1860
3DE0
3DE0
0D80
0D80
FFF0
ENDCHAR
STARTCHAR C031131
ENCODING 12889
SWIDTH 1400 0
DWIDTH 14 0
BBX 13 12 1 -2
BITMAP
FDF0
0C30
0C30
0C30
0C30
0C30
FFF8
0300
0300
0300
0300
0300
ENDCHAR
STARTCHAR C031132
ENCODING 12890
SWIDTH 1400 0
DWIDTH 14 0
BBX 12 12 2 -2
BITMAP
FFE0
0C60
0C60
0C60
0C60
FFF0
0600
0600
7FE0
0060
0060
0060
ENDCHAR
STARTCHAR C031133
ENCODING 12891
SWIDTH 1400 0
DWIDTH 14 0
BBX 12 12 2 -2
BITMAP
FFE0
0C60
0C60
0C60
0C60
FFF0
0600
0600
6600
6000
6000
7FE0
ENDCHAR
STARTCHAR C031134
ENCODING 12892
SWIDTH 1400 0
DWIDTH 14 0
BBX 13 12 1 -2
BITMAP
7FF0
0660
0C60
0C60
FFF8
0300
0300
7FE0
0030
7FF0
6000
3FF0
ENDCHAR
STARTCHAR C031135
ENCODING 12893
SWIDTH 1400 0
DWIDTH 14 0
BBX 12 12 2 -2
BITMAP
FFE0
0C60
0C60
0C60
FFF0
0600
07C0
FFE0
1800
FBE0
C660
FBE0
ENDCHAR
STARTCHAR C031136
ENCODING 12894
SWIDTH 1400 0
DWIDTH 14 0
BBX 12 12 2 -2
BITMAP
FFE0
0C60
0C60
0C60
0C60
FFF0
0600
7FE0
6060
6060
6060
7FE0
ENDCHAR
STARTCHAR C031137
ENCODING 12895
SWIDTH 1400 0
DWIDTH 14 0
BBX 12 12 2 -2
BITMAP
FFE0
0C60
0C60
0C60
0C60
FFF0
6660
6660
7FE0
6060
6060
7FE0
ENDCHAR
STARTCHAR C031140
ENCODING 12896
SWIDTH 1400 0
DWIDTH 14 0
BBX 12 12 2 -2
BITMAP
FFE0
0C60
0C60
0C60
0C60
FFF0
0600
0600
0600
0F00
3980
E0E0
ENDCHAR
STARTCHAR C031141
ENCODING 12897
SWIDTH 1400 0
DWIDTH 14 0
BBX 12 12 2 -2
BITMAP
FFE0
0C60
0C60
0C60
0C60
FFF0
0600
1F80
70E0
6060
70E0
1F80
ENDCHAR
STARTCHAR C031142
ENCODING 12898
SWIDTH 1400 0
DWIDTH 14 0
BBX 13 11 1 -1
BITMAP
FDF0
0C30
0C30
0C30
0C30
FFF8
0300
7FF0
0700
0D80
78F0
ENDCHAR
STARTCHAR C031143
ENCODING 12899
SWIDTH 1400 0
DWIDTH 14 0
BBX 11 12 2 -2
BITMAP
FFE0
19E0
19E0
19E0
19E0
19E0
FFE0
0C60
0FE0
0C60
0C60
0C60
ENDCHAR
STARTCHAR C031144
ENCODING 12900
SWIDTH 1400 0
DWIDTH 14 0
BBX 11 12 2 -2
BITMAP
FF60
3360
3360
3360
FFE0
1BE0
0060
7FE0
0060
7FE0
6000
7FE0
ENDCHAR
STARTCHAR C031145
ENCODING 12901
SWIDTH 1400 0
DWIDTH 14 0
BBX 13 11 1 -1
BITMAP
7FB0
19B0
19B0
1FF0
FC30
0DF0
0C30
18C0
38E0
3DE0
EF38
ENDCHAR
STARTCHAR C031146
ENCODING 12902
SWIDTH 1400 0
DWIDTH 14 0
BBX 11 12 2 -2
BITMAP
F7E0
31E0
31E0
31E0
FFE0
0FE0
0C60
1F80
70E0
6060
70E0
1F80
ENDCHAR
STARTCHAR C031147
ENCODING 12903
SWIDTH 1400 0
DWIDTH 14 0
BBX 11 13 2 -2
BITMAP
01E0
FFE0
37E0
37E0
37E0
37E0
37E0
FDE0
1FE0
19E0
19E0
19E0
0060
ENDCHAR
STARTCHAR C031150
ENCODING 12904
SWIDTH 1400 0
DWIDTH 14 0
BBX 13 13 1 -2
BITMAP
00D8
FFD8
33D8
33D8
33D8
3FD8
7BD8
18C0
3FF8
0018
0018
0018
0018
ENDCHAR
STARTCHAR C031151
ENCODING 12905
SWIDTH 1400 0
DWIDTH 14 0
BBX 12 13 1 -2
BITMAP
00F0
FEF0
36F0
36F0
36F0
36F0
FCF0
1BF0
18F0
3000
3000
3000
3FF0
ENDCHAR
STARTCHAR C031152
ENCODING 12906
SWIDTH 1400 0
DWIDTH 14 0
BBX 13 13 1 -2
BITMAP
0018
7ED8
36D8
36D8
36D8
FFD8
1BD8
00C0
3FF0
0030
3FF0
3000
3FF8
ENDCHAR
STARTCHAR C031153
ENCODING 12907
SWIDTH 1400 0
DWIDTH 14 0
BBX 13 13 1 -2
BITMAP
0018
FFD8
33D8
33D8
33D8
FFD8
0FD8
0CC0
3FF8
3818
3818
3818
3FF8
ENDCHAR
STARTCHAR C031154
ENCODING 12908
SWIDTH 1400 0
DWIDTH 14 0
BBX 12 13 2 -2
BITMAP
0030
FFB0
37B0
37B0
37B0
FFB0
1FB0
1980
6060
7FE0
6060
6060
7FE0
ENDCHAR
STARTCHAR C031155
ENCODING 12909
SWIDTH 1400 0
DWIDTH 14 0
BBX 13 13 1 -2
BITMAP
0030
FEF0
36F0
36F0
36F0
FFF0
1BF0
18C0
1800
1860
38E0
7DB0
0718
ENDCHAR
STARTCHAR C031156
ENCODING 12910
SWIDTH 1400 0
DWIDTH 14 0
BBX 11 12 2 -2
BITMAP
FF60
1B60
1B60
1B60
1B60
1B60
FFE0
0C60
0C60
0C60
0C60
0C60
ENDCHAR
STARTCHAR C031157
ENCODING 12911
SWIDTH 1400 0
DWIDTH 14 0
BBX 12 13 1 -2
BITMAP
0030
FFB0
19B0
19B0
19B0
19B0
FFF0
0630
0630
3630
3000
3000
3FF0
ENDCHAR
STARTCHAR C031160
ENCODING 12912
SWIDTH 1400 0
DWIDTH 14 0
BBX 11 12 2 -2
BITMAP
FF60
3360
3360
3360
FFE0
1860
0060
7FE0
0060
7FE0
6000
7FE0
ENDCHAR
STARTCHAR C031161
ENCODING 12913
SWIDTH 1400 0
DWIDTH 14 0
BBX 11 12 2 -2
BITMAP
FF60
3360
3360
3360
FFE0
0C60
0C60
7FE0
6060
6060
6060
7FE0
ENDCHAR
STARTCHAR C031162
ENCODING 12914
SWIDTH 1400 0
DWIDTH 14 0
BBX 11 12 2 -2
BITMAP
FF60
3360
3360
3360
FFE0
0C60
0C60
6060
7FE0
6060
6060
7FE0
ENDCHAR
STARTCHAR C031163
ENCODING 12915
SWIDTH 1400 0
DWIDTH 14 0
BBX 13 12 1 -2
BITMAP
7FF0
0C30
0C30
0C30
0C30
0C30
FFF8
18C0
18C0
18C0
18C0
18C0
ENDCHAR
STARTCHAR C031164
ENCODING 12916
SWIDTH 1400 0
DWIDTH 14 0
BBX 13 11 1 -1
BITMAP
7FF0
0C30
0C30
0C30
0C30
0C30
0C30
0C30
0C30
1860
FFF8
ENDCHAR
STARTCHAR C031165
ENCODING 12917
SWIDTH 1400 0
DWIDTH 14 0
BBX 12 12 2 -2
BITMAP
7FE0
0C60
0C60
0C60
0C60
FFF0
0000
7FE0
0060
0060
0060
0060
ENDCHAR
STARTCHAR C031166
ENCODING 12918
SWIDTH 1400 0
DWIDTH 14 0
BBX 12 12 2 -2
BITMAP
7FE0
0C60
0C60
0C60
0C60
FFF0
0000
0000
6000
6000
6000
7FE0
ENDCHAR
STARTCHAR C031167
ENCODING 12919
SWIDTH 1400 0
DWIDTH 14 0
BBX 12 12 2 -2
BITMAP
7FE0
0C60
0C60
0C60
0C60
FFF0
03C0
C000
CFE0
C7E0
C660
FFC0
ENDCHAR
STARTCHAR C031170
ENCODING 12920
SWIDTH 1400 0
DWIDTH 14 0
BBX 13 12 1 -2
BITMAP
7FF0
0630
0630
0630
0C30
FFF8
0000
7FF0
0030
3FF0
6000
3FF0
ENDCHAR
STARTCHAR C031171
ENCODING 12921
SWIDTH 1400 0
DWIDTH 14 0
BBX 12 12 2 -2
BITMAP
7FE0
0C60
0C60
0C60
0C60
FFF0
0000
FBE0
1B60
FB60
C360
FFE0
ENDCHAR
STARTCHAR C031172
ENCODING 12922
SWIDTH 1400 0
DWIDTH 14 0
BBX 12 12 2 -2
BITMAP
7FE0
0C60
0C60
0C60
0C60
FFF0
FBC0
1FE0
F800
C3E0
C660
FBE0
ENDCHAR
STARTCHAR C031173
ENCODING 12923
SWIDTH 1400 0
DWIDTH 14 0
BBX 12 12 2 -2
BITMAP
7FE0
0C60
0C60
0C60
0C60
FFF0
0000
7FE0
6060
6060
6060
7FE0
ENDCHAR
STARTCHAR C031174
ENCODING 12924
SWIDTH 1400 0
DWIDTH 14 0
BBX 12 12 2 -2
BITMAP
7FE0
0C60
0C60
0C60
0C60
FFF0
6060
6060
7FE0
6060
6060
7FE0
ENDCHAR
STARTCHAR C031175
ENCODING 12925
SWIDTH 1400 0
DWIDTH 14 0
BBX 12 12 2 -2
BITMAP
7FE0
0C60
0C60
0C60
0C60
FFF0
0000
0600
0600
0F00
39C0
E060
ENDCHAR
STARTCHAR C031176
ENCODING 12926
SWIDTH 1400 0
DWIDTH 14 0
BBX 12 12 2 -2
BITMAP
7FE0
0C60
0C60
0C60
0C60
FFF0
0000
1F80
70E0
6060
70E0
1F80
ENDCHAR
STARTCHAR C031177
ENCODING 12927
SWIDTH 1400 0
DWIDTH 14 0
BBX 0 0 0 0
BITMAP
ENDCHAR
STARTCHAR C031440
ENCODING 13088
SWIDTH 1400 0
DWIDTH 14 0
BBX 0 0 0 0
BITMAP
ENDCHAR
STARTCHAR C031441
ENCODING 13089
SWIDTH 1400 0
DWIDTH 14 0
BBX 12 12 2 -2
BITMAP
7FE0
0C60
0C60
0C60
0C60
FFF0
0000
7FE0
6000
7FE0
6000
7FE0
ENDCHAR
STARTCHAR C031442
ENCODING 13090
SWIDTH 1400 0
DWIDTH 14 0
BBX 12 12 1 -2
BITMAP
FFB0
19B0
19B0
19B0
19B0
19B0
19B0
31B0
3330
E330
0030
0030
ENDCHAR
STARTCHAR C031443
ENCODING 13091
SWIDTH 1400 0
DWIDTH 14 0
BBX 11 12 2 -2
BITMAP
FF60
1B60
1B60
3360
3660
EE60
0060
7FE0
0060
0060
0060
0060
ENDCHAR
STARTCHAR C031444
ENCODING 13092
SWIDTH 1400 0
DWIDTH 14 0
BBX 11 12 2 -2
BITMAP
FF60
3360
3360
3360
3360
3360
EE60
0060
6060
6000
6000
7FE0
ENDCHAR
STARTCHAR C031445
ENCODING 13093
SWIDTH 1400 0
DWIDTH 14 0
BBX 12 12 2 -2
BITMAP
FF60
3360
3360
3360
3360
EE60
0000
7FE0
0060
7FE0
6000
3FF0
ENDCHAR
STARTCHAR C031446
ENCODING 13094
SWIDTH 1400 0
DWIDTH 14 0
BBX 11 12 2 -2
BITMAP
FF60
1BE0
1B60
1B60
3360
EE60
0000
7FE0
6060
6060
6060
7FE0
ENDCHAR
STARTCHAR C031447
ENCODING 13095
SWIDTH 1400 0
DWIDTH 14 0
BBX 11 12 2 -2
BITMAP
FF60
19E0
1B60
3360
3360
E660
6C60
6060
7FE0
6060
6060
7FE0
ENDCHAR
STARTCHAR C031450
ENCODING 13096
SWIDTH 1400 0
DWIDTH 14 0
BBX 13 13 1 -2
BITMAP
0030
FFB0
19B0
19B0
19B0
3330
7330
C630
0030
0300
0780
1CC0
7078
ENDCHAR
STARTCHAR C031451
ENCODING 13097
SWIDTH 1400 0
DWIDTH 14 0
BBX 11 13 2 -2
BITMAP
0060
FF60
19E0
19E0
3360
3360
6660
CC60
1FE0
70E0
6060
70E0
1F80
ENDCHAR
STARTCHAR C031452
ENCODING 13098
SWIDTH 1400 0
DWIDTH 14 0
BBX 13 13 1 -2
BITMAP
0060
C060
C060
C060
C060
C078
C060
C060
C060
7FE0
0060
0060
0060
ENDCHAR
STARTCHAR C031453
ENCODING 13099
SWIDTH 1400 0
DWIDTH 14 0
BBX 13 13 1 -2
BITMAP
0060
C060
C060
C078
C060
C060
FFE0
0060
7FE0
0060
0060
0060
0060
ENDCHAR
STARTCHAR C031454
ENCODING 13100
SWIDTH 1400 0
DWIDTH 14 0
BBX 13 13 1 -2
BITMAP
C060
C060
C060
C078
C060
FFE0
0060
0060
FFE0
0C60
0C60
0C60
0C60
ENDCHAR
STARTCHAR C031455
ENCODING 13101
SWIDTH 1400 0
DWIDTH 14 0
BBX 13 12 1 -2
BITMAP
C060
C060
C060
C078
C060
FFE0
0060
0060
6060
6000
6000
7FE0
ENDCHAR
STARTCHAR C031456
ENCODING 13102
SWIDTH 1400 0
DWIDTH 14 0
BBX 13 13 1 -2
BITMAP
C000
C060
C060
C078
C060
FFE0
0060
0060
7FE0
6000
6000
6000
7FE0
ENDCHAR
STARTCHAR C031457
ENCODING 13103
SWIDTH 1400 0
DWIDTH 14 0
BBX 13 13 1 -2
BITMAP
C000
C060
C060
C078
C060
FFE0
0060
7FE0
0060
7FE0
6000
6000
7FE0
ENDCHAR
STARTCHAR C031460
ENCODING 13104
SWIDTH 1400 0
DWIDTH 14 0
BBX 13 13 1 -2
BITMAP
C000
C060
C060
C078
C060
FFE0
0060
0000
FFE0
1860
F860
C060
FC60
ENDCHAR
STARTCHAR C031461
ENCODING 13105
SWIDTH 1400 0
DWIDTH 14 0
BBX 13 13 1 -2
BITMAP
C000
C060
C060
C078
C060
FFE0
0060
0000
FBE0
1B60
FB60
C360
FFE0
ENDCHAR
STARTCHAR C031462
ENCODING 13106
SWIDTH 1400 0
DWIDTH 14 0
BBX 13 13 1 -2
BITMAP
C000
C060
C060
C078
C060
FFE0
0060
0060
7FE0
6060
6060
6060
7FE0
ENDCHAR
STARTCHAR C031463
ENCODING 13107
SWIDTH 1400 0
DWIDTH 14 0
BBX 13 13 1 -2
BITMAP
C000
C060
C060
C078
C060
FFE0
0060
6060
6060
7FE0
6060
6060
7FE0
ENDCHAR
STARTCHAR C031464
ENCODING 13108
SWIDTH 1400 0
DWIDTH 14 0
BBX 13 12 1 -2
BITMAP
C060
C060
C060
C078
C060
FFE0
0060
0660
0700
0D80
38C0
6070
ENDCHAR
STARTCHAR C031465
ENCODING 13109
SWIDTH 1400 0
DWIDTH 14 0
BBX 13 12 1 -1
BITMAP
C000
C060
C060
C078
C060
FFE0
0060
0060
30C0
30C0
79C0
EF70
ENDCHAR
STARTCHAR C031466
ENCODING 13110
SWIDTH 1400 0
DWIDTH 14 0
BBX 13 12 1 -2
BITMAP
C060
C060
C078
C060
C060
FFE0
0060
3FE0
E0E0
C060
E0E0
3F80
ENDCHAR
STARTCHAR C031467
ENCODING 13111
SWIDTH 1400 0
DWIDTH 14 0
BBX 13 13 1 -2
BITMAP
C060
C060
C060
C078
C060
FFE0
0060
0000
FFE0
0E00
0F00
3980
E0E0
ENDCHAR
STARTCHAR C031470
ENCODING 13112
SWIDTH 1400 0
DWIDTH 14 0
BBX 13 13 1 -2
BITMAP
C060
C060
C060
C078
C060
FFE0
0060
1F00
0000
FFE0
0E00
3B80
E0E0
ENDCHAR
STARTCHAR C031471
ENCODING 13113
SWIDTH 1400 0
DWIDTH 14 0
BBX 13 13 1 -2
BITMAP
C060
C060
C060
C078
C060
FFE0
0060
0000
7FE0
6000
7FE0
6000
7FE0
ENDCHAR
STARTCHAR C031472
ENCODING 13114
SWIDTH 1400 0
DWIDTH 14 0
BBX 13 13 1 -2
BITMAP
C000
C060
C060
C078
C060
FFE0
0060
1FE0
0000
FFF0
7FC0
6060
3FC0
ENDCHAR
STARTCHAR C031473
ENCODING 13115
SWIDTH 1400 0
DWIDTH 14 0
BBX 11 12 2 -1
BITMAP
C360
C360
C360
C360
C360
C3E0
C360
C360
C360
7F60
0360
0360
ENDCHAR
STARTCHAR C031474
ENCODING 13116
SWIDTH 1400 0
DWIDTH 14 0
BBX 11 12 2 -2
BITMAP
C360
C360
C360
C3E0
C360
FF60
0360
0060
7FE0
0060
0060
0060
ENDCHAR
STARTCHAR C031475
ENCODING 13117
SWIDTH 1400 0
DWIDTH 14 0
BBX 11 13 2 -2
BITMAP
C300
C360
C360
C360
C3E0
C360
FF60
0360
0360
6060
6000
6000
7FE0
ENDCHAR
STARTCHAR C031476
ENCODING 13118
SWIDTH 1400 0
DWIDTH 14 0
BBX 11 12 2 -2
BITMAP
C360
C360
C3E0
C360
FF60
0360
0000
7FE0
0060
7FE0
6000
7FE0
ENDCHAR
STARTCHAR C031477
ENCODING 13119
SWIDTH 1400 0
DWIDTH 14 0
BBX 11 13 2 -2
BITMAP
0300
C360
C360
C3E0
C360
C360
FF60
0360
7FE0
6060
6060
6060
7FE0
ENDCHAR
STARTCHAR C031500
ENCODING 13120
SWIDTH 1400 0
DWIDTH 14 0
BBX 11 13 2 -2
BITMAP
0300
C360
C360
C3E0
C360
C360
FF60
0300
6060
7FE0
6060
6060
7FE0
ENDCHAR
STARTCHAR C031501
ENCODING 13121
SWIDTH 1400 0
DWIDTH 14 0
BBX 11 12 2 -2
BITMAP
C360
C360
C360
C3E0
C360
FF60
0360
0060
0E00
1F00
71C0
C060
ENDCHAR
STARTCHAR C031502
ENCODING 13122
SWIDTH 1400 0
DWIDTH 14 0
BBX 11 13 2 -2
BITMAP
C300
C360
C360
C3E0
C360
FF60
0360
0060
3180
71C0
71C0
DB60
0C00
ENDCHAR
STARTCHAR C031503
ENCODING 13123
SWIDTH 1400 0
DWIDTH 14 0
BBX 11 12 2 -2
BITMAP
C360
C360
C360
C3E0
C360
FF60
0360
3FE0
E0E0
C060
E0E0
3F80
ENDCHAR
STARTCHAR C031504
ENCODING 13124
SWIDTH 1400 0
DWIDTH 14 0
BBX 12 13 1 -2
BITMAP
00C0
C0C0
C0C0
C0F0
C0C0
C0C0
C0C0
C0F0
C1C0
FFC0
00C0
00C0
00C0
ENDCHAR
STARTCHAR C031505
ENCODING 13125
SWIDTH 1400 0
DWIDTH 14 0
BBX 13 13 1 -2
BITMAP
0060
C060
C078
C060
C060
C7F8
FC60
0060
0000
FFE0
0060
0060
0060
ENDCHAR
STARTCHAR C031506
ENCODING 13126
SWIDTH 1400 0
DWIDTH 14 0
BBX 13 13 1 -2
BITMAP
C060
C060
C060
C078
C060
C060
FFF8
0060
0060
6060
6000
6000
7FE0
ENDCHAR
STARTCHAR C031507
ENCODING 13127
SWIDTH 1400 0
DWIDTH 14 0
BBX 13 13 1 -2
BITMAP
C060
C060
C078
C060
C060
FFF8
0060
7FE0
0060
7FE0
6000
6000
7FF0
ENDCHAR
STARTCHAR C031510
ENCODING 13128
SWIDTH 1400 0
DWIDTH 14 0
BBX 13 13 1 -2
BITMAP
C060
C060
C078
C060
C060
FFF8
0060
0000
7FE0
6060
6060
6060
7FE0
ENDCHAR
STARTCHAR C031511
ENCODING 13129
SWIDTH 1400 0
DWIDTH 14 0
BBX 13 13 1 -2
BITMAP
0060
C060
C078
C060
C060
C078
FFE0
0060
1FE0
70E0
6060
70E0
1F80
ENDCHAR
STARTCHAR C031512
ENCODING 13130
SWIDTH 1400 0
DWIDTH 14 0
BBX 11 13 2 -2
BITMAP
0060
C060
C060
C060
C7E0
C060
C060
C060
C060
FF60
0060
0060
0060
ENDCHAR
STARTCHAR C031513
ENCODING 13131
SWIDTH 1400 0
DWIDTH 14 0
BBX 11 12 2 -2
BITMAP
C060
C060
C7E0
C060
C060
FF60
0060
7FE0
0060
0060
0060
0060
ENDCHAR
STARTCHAR C031514
ENCODING 13132
SWIDTH 1400 0
DWIDTH 14 0
BBX 12 13 1 -2
BITMAP
0030
C030
C030
C3F0
C030
C3B0
FE30
0030
7EC0
06C0
06C0
07A0
0610
ENDCHAR
STARTCHAR C031515
ENCODING 13133
SWIDTH 1400 0
DWIDTH 14 0
BBX 11 13 2 -2
BITMAP
0060
C060
C060
C7E0
C060
C060
EFE0
3860
0060
6060
6000
6000
7FE0
ENDCHAR
STARTCHAR C031516
ENCODING 13134
SWIDTH 1400 0
DWIDTH 14 0
BBX 11 12 2 -2
BITMAP
C060
C060
C7E0
C060
C7E0
7C60
0060
7FE0
0060
7FE0
6000
7FE0
ENDCHAR
STARTCHAR C031517
ENCODING 13135
SWIDTH 1400 0
DWIDTH 14 0
BBX 11 12 2 -2
BITMAP
C060
C060
C7E0
C060
C060
7F60
0060
7FE0
0F60
7F60
C360
7FE0
ENDCHAR
STARTCHAR C031520
ENCODING 13136
SWIDTH 1400 0
DWIDTH 14 0
BBX 11 12 2 -2
BITMAP
C060
C060
C7E0
C060
C7E0
7C60
0000
FB60
1BE0
FB60
C360
FFE0
ENDCHAR
STARTCHAR C031521
ENCODING 13137
SWIDTH 1400 0
DWIDTH 14 0
BBX 11 12 2 -2
BITMAP
C060
C060
C7E0
C060
C060
7F60
0060
7FE0
6060
6060
6060
7FE0
ENDCHAR
STARTCHAR C031522
ENCODING 13138
SWIDTH 1400 0
DWIDTH 14 0
BBX 11 12 2 -2
BITMAP
C060
C060
C7E0
C060
C3E0
7E60
6060
6060
7FE0
6060
6060
7FE0
ENDCHAR
STARTCHAR C031523
ENCODING 13139
SWIDTH 1400 0
DWIDTH 14 0
BBX 11 13 2 -2
BITMAP
0060
C060
C060
C7E0
C060
C060
EFE0
3860
0060
0E00
1B00
71C0
C060
ENDCHAR
STARTCHAR C031524
ENCODING 13140
SWIDTH 1400 0
DWIDTH 14 0
BBX 11 12 2 -2
BITMAP
C060
C060
C7E0
C060
C060
FF60
0060
3180
71C0
71C0
DB60
0C00
ENDCHAR
STARTCHAR C031525
ENCODING 13141
SWIDTH 1400 0
DWIDTH 14 0
BBX 11 12 2 -2
BITMAP
C060
C060
C7E0
C060
C060
FF60
0060
3F80
E0E0
C060
E0E0
3F80
ENDCHAR
STARTCHAR C031526
ENCODING 13142
SWIDTH 1400 0
DWIDTH 14 0
BBX 11 12 2 -2
BITMAP
C060
C7E0
C060
C060
C7E0
7C60
1F80
0000
FFE0
7FC0
6060
3FC0
ENDCHAR
STARTCHAR C031527
ENCODING 13143
SWIDTH 1400 0
DWIDTH 14 0
BBX 11 12 2 -2
BITMAP
C360
C360
C360
C360
DF60
C360
C360
C360
FF60
0360
0360
0360
ENDCHAR
STARTCHAR C031530
ENCODING 13144
SWIDTH 1400 0
DWIDTH 14 0
BBX 11 13 2 -2
BITMAP
0360
C360
C360
DF60
C360
C360
FF60
0360
0000
7FE0
0060
0060
0060
ENDCHAR
STARTCHAR C031531
ENCODING 13145
SWIDTH 1400 0
DWIDTH 14 0
BBX 11 12 2 -2
BITMAP
C360
C360
DF60
C360
C360
FF60
0360
0360
6000
6000
6000
7FE0
ENDCHAR
STARTCHAR C031532
ENCODING 13146
SWIDTH 1400 0
DWIDTH 14 0
BBX 11 13 2 -2
BITMAP
0360
C360
CF60
C360
C360
FF60
0360
0060
7FE0
0060
7FE0
6000
7FE0
ENDCHAR
STARTCHAR C031533
ENCODING 13147
SWIDTH 1400 0
DWIDTH 14 0
BBX 11 13 2 -2
BITMAP
0360
C360
C360
DF60
C360
C360
FF60
0360
7FE0
6060
6060
6060
7FE0
ENDCHAR
STARTCHAR C031534
ENCODING 13148
SWIDTH 1400 0
DWIDTH 14 0
BBX 11 12 2 -2
BITMAP
C360
C360
DF60
C360
C760
7F60
0300
6060
7FE0
6060
6060
7FE0
ENDCHAR
STARTCHAR C031535
ENCODING 13149
SWIDTH 1400 0
DWIDTH 14 0
BBX 11 12 2 -2
BITMAP
C360
C360
DF60
C360
C360
FF60
0360
0060
0600
0F00
39C0
E060
ENDCHAR
STARTCHAR C031536
ENCODING 13150
SWIDTH 1400 0
DWIDTH 14 0
BBX 11 13 2 -2
BITMAP
0060
C360
C360
DF60
C360
C360
FF60
0300
3180
71C0
71C0
DB60
0C00
ENDCHAR
STARTCHAR C031537
ENCODING 13151
SWIDTH 1400 0
DWIDTH 14 0
BBX 11 12 2 -2
BITMAP
C360
C360
DF60
C360
C360
FF60
0360
3F80
E0E0
C060
E0E0
3F80
ENDCHAR
STARTCHAR C031540
ENCODING 13152
SWIDTH 1400 0
DWIDTH 14 0
BBX 11 12 2 -2
BITMAP
C060
C060
C7E0
C060
C060
C7E0
C060
C060
FF60
0060
0060
0060
ENDCHAR
STARTCHAR C031541
ENCODING 13153
SWIDTH 1400 0
DWIDTH 14 0
BBX 11 12 2 -2
BITMAP
C060
C3E0
C060
C3E0
C060
FF60
0060
7FE0
0060
0060
0060
0060
ENDCHAR
STARTCHAR C031542
ENCODING 13154
SWIDTH 1400 0
DWIDTH 14 0
BBX 11 12 2 -2
BITMAP
C060
C3E0
C060
C060
C3E0
C060
FF60
0060
6060
6000
6000
7FE0
ENDCHAR
STARTCHAR C031543
ENCODING 13155
SWIDTH 1400 0
DWIDTH 14 0
BBX 11 12 2 -2
BITMAP
C060
C3E0
C060
C3E0
C060
FF60
0000
7FE0
0060
7FE0
6000
7FE0
ENDCHAR
STARTCHAR C031544
ENCODING 13156
SWIDTH 1400 0
DWIDTH 14 0
BBX 11 12 2 -2
BITMAP
C060
C3E0
C060
C3E0
C060
FF60
0060
7FE0
6060
6060
6060
7FE0
ENDCHAR
STARTCHAR C031545
ENCODING 13157
SWIDTH 1400 0
DWIDTH 14 0
BBX 11 12 2 -2
BITMAP
C060
C3E0
C060
C3E0
C060
FF60
6060
6060
7FE0
6060
6060
7FE0
ENDCHAR
STARTCHAR C031546
ENCODING 13158
SWIDTH 1400 0
DWIDTH 14 0
BBX 13 12 1 -2
BITMAP
6030
61F0
6030
61F0
6030
7FB0
0030
00C0
18C0
38E0
6DB0
C718
ENDCHAR
STARTCHAR C031547
ENCODING 13159
SWIDTH 1400 0
DWIDTH 14 0
BBX 11 13 2 -2
BITMAP
C000
C060
C3E0
C060
C3E0
C060
FF60
0060
3F80
E0E0
C060
E0E0
3F80
ENDCHAR
STARTCHAR C031550
ENCODING 13160
SWIDTH 1400 0
DWIDTH 14 0
BBX 11 13 2 -2
BITMAP
C000
C060
C3E0
C060
C3E0
C060
FF60
0060
7FE0
0060
7FE0
0060
0060
ENDCHAR
STARTCHAR C031551
ENCODING 13161
SWIDTH 1400 0
DWIDTH 14 0
BBX 11 13 2 -2
BITMAP
0300
C360
C360
DF60
C360
C360
DF60
C360
C360
FF60
0360
0360
0360
ENDCHAR
STARTCHAR C031552
ENCODING 13162
SWIDTH 1400 0
DWIDTH 14 0
BBX 11 13 2 -2
BITMAP
0300
C360
DF60
C360
DF60
C360
CF60
7B60
0360
6060
6000
6000
7FE0
ENDCHAR
STARTCHAR C031553
ENCODING 13163
SWIDTH 1400 0
DWIDTH 14 0
BBX 12 12 1 -1
BITMAP
6000
6000
6000
6000
6000
6000
7FF0
0000
0600
0600
0600
FFF0
ENDCHAR
STARTCHAR C031554
ENCODING 13164
SWIDTH 1400 0
DWIDTH 14 0
BBX 12 13 1 -2
BITMAP
6000
6000
6000
6000
7FE0
0600
FFF0
0000
7FF0
0030
0030
0030
0030
ENDCHAR
STARTCHAR C031555
ENCODING 13165
SWIDTH 1400 0
DWIDTH 14 0
BBX 12 13 2 -2
BITMAP
C000
C000
C000
C000
FFE0
0600
0600
FFF0
0000
C000
C000
C000
FFE0
ENDCHAR
STARTCHAR C031556
ENCODING 13166
SWIDTH 1400 0
DWIDTH 14 0
BBX 13 12 1 -2
BITMAP
6000
6000
6000
3FF0
0300
FFF8
0000
7FF0
0030
7FF0
6000
7FF0
ENDCHAR
STARTCHAR C031557
ENCODING 13167
SWIDTH 1400 0
DWIDTH 14 0
BBX 13 12 1 -2
BITMAP
6000
6000
6000
7FF8
0300
FFF8
0000
7DF0
0DB0
7DB0
61B0
7DF0
ENDCHAR
STARTCHAR C031560
ENCODING 13168
SWIDTH 1400 0
DWIDTH 14 0
BBX 13 13 1 -2
BITMAP
6000
6000
6000
6000
7FF0
0300
FFF8
0000
3FF0
3030
3030
3030
3FF0
ENDCHAR
STARTCHAR C031561
ENCODING 13169
SWIDTH 1400 0
DWIDTH 14 0
BBX 13 12 1 -2
BITMAP
6000
6000
6000
7FF0
0300
FFF8
0000
6030
7FF0
6030
6030
7FF0
ENDCHAR
STARTCHAR C031562
ENCODING 13170
SWIDTH 1400 0
DWIDTH 14 0
BBX 12 13 2 -2
BITMAP
C000
C000
C000
C000
FFE0
0600
0600
FFF0
0600
0E00
1B00
71C0
C060
ENDCHAR
STARTCHAR C031563
ENCODING 13171
SWIDTH 1400 0
DWIDTH 14 0
BBX 13 13 1 -2
BITMAP
6000
6000
6000
6000
7FF8
0300
FFF8
0000
1FC0
7060
6030
7070
1FC0
ENDCHAR
STARTCHAR C031564
ENCODING 13172
SWIDTH 1400 0
DWIDTH 14 0
BBX 12 13 2 -2
BITMAP
C000
C000
C000
C000
FFE0
0600
FFF0
0000
FFE0
3180
3180
3180
FFE0
ENDCHAR
STARTCHAR C031565
ENCODING 13173
SWIDTH 1400 0
DWIDTH 14 0
BBX 12 12 2 -2
BITMAP
C000
C000
C000
FFE0
0600
FFF0
1F00
0000
FFE0
7FC0
60C0
3FC0
ENDCHAR
STARTCHAR C031566
ENCODING 13174
SWIDTH 1400 0
DWIDTH 14 0
BBX 13 13 1 -2
BITMAP
6000
6060
6060
6060
6060
7FE0
0078
0C60
0C60
0CE0
FFE0
0060
0060
ENDCHAR
STARTCHAR C031567
ENCODING 13175
SWIDTH 1400 0
DWIDTH 14 0
BBX 13 13 1 -2
BITMAP
C000
C060
C060
C060
FFE0
0C78
0C60
FFE0
0060
6060
6000
6000
7FE0
ENDCHAR
STARTCHAR C031570
ENCODING 13176
SWIDTH 1400 0
DWIDTH 14 0
BBX 13 12 1 -2
BITMAP
C060
C060
C060
FFF8
0C60
FFE0
0060
7FE0
0060
7FE0
6000
3FF0
ENDCHAR
STARTCHAR C031571
ENCODING 13177
SWIDTH 1400 0
DWIDTH 14 0
BBX 13 11 1 -1
BITMAP
C060
C060
C060
FFF8
0C60
FFE0
0660
30C0
38C0
39C0
6F70
ENDCHAR
STARTCHAR C031572
ENCODING 13178
SWIDTH 1400 0
DWIDTH 14 0
BBX 11 13 2 -2
BITMAP
C000
C060
C060
C060
C060
FF60
0C60
0C60
0C60
0FE0
FC60
0060
0060
ENDCHAR
STARTCHAR C031573
ENCODING 13179
SWIDTH 1400 0
DWIDTH 14 0
BBX 11 13 2 -2
BITMAP
C000
C060
C060
C060
FFE0
0C60
0C60
FFE0
0060
6060
6000
6000
7FE0
ENDCHAR
STARTCHAR C031574
ENCODING 13180
SWIDTH 1400 0
DWIDTH 14 0
BBX 11 12 2 -2
BITMAP
C060
C060
C060
FFE0
1860
FFE0
0060
7FE0
0060
7FE0
6000
7FE0
ENDCHAR
STARTCHAR C031575
ENCODING 13181
SWIDTH 1400 0
DWIDTH 14 0
BBX 11 12 2 -2
BITMAP
C060
C060
C060
FFE0
0C60
FFE0
0060
7FE0
6060
6060
6060
7FE0
ENDCHAR
STARTCHAR C031576
ENCODING 13182
SWIDTH 1400 0
DWIDTH 14 0
BBX 11 12 2 -2
BITMAP
C060
C060
C060
FFE0
0C60
FFE0
0060
6060
7FE0
6060
6060
7FE0
ENDCHAR
STARTCHAR C031577
ENCODING 13183
SWIDTH 1400 0
DWIDTH 14 0
BBX 0 0 0 0
BITMAP
ENDCHAR
STARTCHAR C032041
ENCODING 13345
SWIDTH 1400 0
DWIDTH 14 0
BBX 11 12 2 -2
BITMAP
C060
C060
C060
FFE0
0C60
0C60
FFE0
0060
0600
0F00
39C0
E060
ENDCHAR
STARTCHAR C032042
ENCODING 13346
SWIDTH 1400 0
DWIDTH 14 0
BBX 12 11 1 -1
BITMAP
6000
6000
6000
6000
6000
7FF0
0000
18C0
18C0
18C0
FFF0
ENDCHAR
STARTCHAR C032043
ENCODING 13347
SWIDTH 1400 0
DWIDTH 14 0
BBX 13 12 1 -2
BITMAP
6000
6000
6000
7FF0
18C0
18C0
FFF8
0000
7FF0
0030
0030
0030
ENDCHAR
STARTCHAR C032044
ENCODING 13348
SWIDTH 1400 0
DWIDTH 14 0
BBX 13 13 1 -2
BITMAP
6000
6000
6000
6000
7FF0
0CC0
0CC0
FFF8
0000
6000
6000
6000
7FF0
ENDCHAR
STARTCHAR C032045
ENCODING 13349
SWIDTH 1400 0
DWIDTH 14 0
BBX 13 12 1 -2
BITMAP
6000
6000
6000
7FF0
18C0
FFF8
0000
7FF0
0030
7FF0
6000
3FF0
ENDCHAR
STARTCHAR C032046
ENCODING 13350
SWIDTH 1400 0
DWIDTH 14 0
BBX 13 12 1 -2
BITMAP
6000
6000
6000
7FF0
18C0
FFF8
0000
6030
7FF0
6030
6030
7FF0
ENDCHAR
STARTCHAR C032047
ENCODING 13351
SWIDTH 1400 0
DWIDTH 14 0
BBX 13 12 1 -2
BITMAP
6000
6000
6000
7FF0
18C0
18C0
FFF8
0000
0600
0F00
39C0
6070
ENDCHAR
STARTCHAR C032050
ENCODING 13352
SWIDTH 1400 0
DWIDTH 14 0
BBX 13 12 1 -2
BITMAP
6000
6000
6000
7FF0
18C0
FFF8
0000
1FC0
7070
6030
7070
1FC0
ENDCHAR
STARTCHAR C032051
ENCODING 13353
SWIDTH 1400 0
DWIDTH 14 0
BBX 12 12 2 -2
BITMAP
C000
C000
C000
C000
FFE0
0000
FFF0
0600
0600
0600
0600
0600
ENDCHAR
STARTCHAR C032052
ENCODING 13354
SWIDTH 1400 0
DWIDTH 14 0
BBX 13 14 1 -3
BITMAP
6000
6000
6000
6000
7FF0
0000
FFF8
0300
0300
7FF0
0030
0030
0030
0030
ENDCHAR
STARTCHAR C032053
ENCODING 13355
SWIDTH 1400 0
DWIDTH 14 0
BBX 13 13 1 -2
BITMAP
6000
6000
6000
6000
7FF0
0000
0000
FFF8
0300
6300
6300
6000
7FF0
ENDCHAR
STARTCHAR C032054
ENCODING 13356
SWIDTH 1400 0
DWIDTH 14 0
BBX 12 11 2 -1
BITMAP
C000
C000
C000
FFE0
0000
FFF0
0600
FFE0
C000
C000
FFC0
ENDCHAR
STARTCHAR C032055
ENCODING 13357
SWIDTH 1400 0
DWIDTH 14 0
BBX 12 12 2 -2
BITMAP
C000
C000
C000
FFE0
0000
FFF0
0600
FFE0
0060
FFE0
C000
FFF0
ENDCHAR
STARTCHAR C032056
ENCODING 13358
SWIDTH 1400 0
DWIDTH 14 0
BBX 12 12 2 -2
BITMAP
C000
C000
C000
FFE0
0000
FFF0
0600
FFE0
C060
C060
C060
FFE0
ENDCHAR
STARTCHAR C032057
ENCODING 13359
SWIDTH 1400 0
DWIDTH 14 0
BBX 13 12 1 -2
BITMAP
6000
6000
6000
7FF0
0000
FFF8
0300
6330
7FF0
6030
6030
7FF0
ENDCHAR
STARTCHAR C032060
ENCODING 13360
SWIDTH 1400 0
DWIDTH 14 0
BBX 12 12 2 -2
BITMAP
C000
C000
C000
FFE0
0000
FFF0
0600
0600
0600
1F00
3180
E0E0
ENDCHAR
STARTCHAR C032061
ENCODING 13361
SWIDTH 1400 0
DWIDTH 14 0
BBX 13 12 1 -2
BITMAP
6000
6000
6000
7FF0
0000
FFF8
0300
1FE0
7070
6038
7070
1FE0
ENDCHAR
STARTCHAR C032062
ENCODING 13362
SWIDTH 1400 0
DWIDTH 14 0
BBX 11 13 2 -2
BITMAP
6000
6060
6060
6060
7FE0
0060
0060
FFE0
1860
1BE0
1860
1860
1860
ENDCHAR
STARTCHAR C032063
ENCODING 13363
SWIDTH 1400 0
DWIDTH 14 0
BBX 13 12 1 -1
BITMAP
6030
6030
6030
7FB0
0030
FFF0
0E30
0DF0
1800
38E0
3CE0
6FB8
ENDCHAR
STARTCHAR C032064
ENCODING 13364
SWIDTH 1400 0
DWIDTH 14 0
BBX 11 13 2 -2
BITMAP
C360
C360
C360
C360
FF60
0360
0360
FF60
3360
3F60
3360
3360
3060
ENDCHAR
STARTCHAR C032065
ENCODING 13365
SWIDTH 1400 0
DWIDTH 14 0
BBX 11 13 2 -2
BITMAP
6060
6060
6060
6060
7FE0
0060
0060
FFE0
0C60
0C60
0C60
0C60
0C60
ENDCHAR
STARTCHAR C032066
ENCODING 13366
SWIDTH 1400 0
DWIDTH 14 0
BBX 13 13 1 -2
BITMAP
6030
6030
6030
6030
7FF0
0030
03F0
FF30
0630
3630
3600
3000
3FF8
ENDCHAR
STARTCHAR C032067
ENCODING 13367
SWIDTH 1400 0
DWIDTH 14 0
BBX 11 13 2 -2
BITMAP
C060
C060
C060
FFE0
0060
FFE0
1860
0000
7FE0
0060
7FE0
6000
7FE0
ENDCHAR
STARTCHAR C032070
ENCODING 13368
SWIDTH 1400 0
DWIDTH 14 0
BBX 11 13 2 -2
BITMAP
0060
C060
C060
C060
FFE0
0060
FFE0
0C60
7FE0
6060
6060
6060
7FE0
ENDCHAR
STARTCHAR C032071
ENCODING 13369
SWIDTH 1400 0
DWIDTH 14 0
BBX 11 13 2 -2
BITMAP
6060
6060
6060
7FE0
0060
0FE0
FC60
0C00
6C60
7FE0
6060
6060
7FE0
ENDCHAR
STARTCHAR C032072
ENCODING 13370
SWIDTH 1400 0
DWIDTH 14 0
BBX 13 12 1 -2
BITMAP
6000
6000
6000
6000
7FF0
0000
FFF8
18C0
18C0
18C0
18C0
18C0
ENDCHAR
STARTCHAR C032073
ENCODING 13371
SWIDTH 1400 0
DWIDTH 14 0
BBX 13 12 1 -2
BITMAP
6000
6000
6000
7FF0
0000
FFF8
18C0
7FF0
0030
0030
0030
0030
ENDCHAR
STARTCHAR C032074
ENCODING 13372
SWIDTH 1400 0
DWIDTH 14 0
BBX 13 12 1 -2
BITMAP
6000
6000
6000
3FF0
0000
FFF8
18C0
7FF0
0030
3FF0
6000
3FF0
ENDCHAR
STARTCHAR C032075
ENCODING 13373
SWIDTH 1400 0
DWIDTH 14 0
BBX 13 12 1 -2
BITMAP
6000
6000
6000
7FE0
0000
FFF8
18C0
7FF0
6030
6030
6030
7FF0
ENDCHAR
STARTCHAR C032076
ENCODING 13374
SWIDTH 1400 0
DWIDTH 14 0
BBX 13 12 1 -2
BITMAP
6000
6000
6000
7FF0
0000
FFF8
18C0
78F0
7FF0
6030
6030
7FF0
ENDCHAR
STARTCHAR C032077
ENCODING 13375
SWIDTH 1400 0
DWIDTH 14 0
BBX 13 12 1 -2
BITMAP
6000
6000
6000
7FE0
0000
FFF8
18C0
1FC0
7070
6030
7070
3FC0
ENDCHAR
STARTCHAR C032100
ENCODING 13376
SWIDTH 1400 0
DWIDTH 14 0
BBX 13 11 1 -1
BITMAP
6000
6000
6000
6000
6000
6000
7FE0
0000
0000
0000
FFF8
ENDCHAR
STARTCHAR C032101
ENCODING 13377
SWIDTH 1400 0
DWIDTH 14 0
BBX 13 12 1 -2
BITMAP
6000
6000
6000
7FF0
0000
FFF8
0000
7FF0
0030
0030
0030
0030
ENDCHAR
STARTCHAR C032102
ENCODING 13378
SWIDTH 1400 0
DWIDTH 14 0
BBX 13 12 1 -2
BITMAP
6000
6000
6000
6000
7FF0
0000
FFF8
0000
6000
6000
6000
7FF0
ENDCHAR
STARTCHAR C032103
ENCODING 13379
SWIDTH 1400 0
DWIDTH 14 0
BBX 13 12 1 -2
BITMAP
6000
6000
6000
7FF0
0000
FFF8
0000
7FF0
0030
3FF0
6000
3FF0
ENDCHAR
STARTCHAR C032104
ENCODING 13380
SWIDTH 1400 0
DWIDTH 14 0
BBX 13 12 1 -2
BITMAP
6000
6000
6000
7FF0
0000
FFF8
0000
7FE0
0C60
7C60
C060
7C60
ENDCHAR
STARTCHAR C032105
ENCODING 13381
SWIDTH 1400 0
DWIDTH 14 0
BBX 13 12 1 -2
BITMAP
6000
6000
6000
7FF0
0000
FFF8
0000
7DF0
0DB0
7DB0
61B0
7FF0
ENDCHAR
STARTCHAR C032106
ENCODING 13382
SWIDTH 1400 0
DWIDTH 14 0
BBX 13 12 1 -2
BITMAP
6000
6000
6000
7FF0
0000
FFF8
0000
3FF0
3030
3030
3030
3FF0
ENDCHAR
STARTCHAR C032107
ENCODING 13383
SWIDTH 1400 0
DWIDTH 14 0
BBX 13 12 1 -2
BITMAP
6000
6000
6000
7FF0
0000
FFF8
0000
3030
3FF0
3030
3030
3FF0
ENDCHAR
STARTCHAR C032110
ENCODING 13384
SWIDTH 1400 0
DWIDTH 14 0
BBX 13 12 1 -2
BITMAP
6000
6000
6000
7FF0
0000
0000
FFF8
0000
0700
0D80
38C0
6070
ENDCHAR
STARTCHAR C032111
ENCODING 13385
SWIDTH 1400 0
DWIDTH 14 0
BBX 13 12 1 -2
BITMAP
6000
6000
6000
7FF0
0000
FFF8
0000
1FC0
7070
6030
7070
1FC0
ENDCHAR
STARTCHAR C032112
ENCODING 13386
SWIDTH 1400 0
DWIDTH 14 0
BBX 13 11 1 -1
BITMAP
6000
6000
6000
7FF0
0000
FFF8
0000
7FF0
0700
0D80
78F0
ENDCHAR
STARTCHAR C032113
ENCODING 13387
SWIDTH 1400 0
DWIDTH 14 0
BBX 13 12 1 -2
BITMAP
6000
6000
6000
7FF0
0000
FFF8
0000
7FF0
18C0
18C0
18C0
7FF0
ENDCHAR
STARTCHAR C032114
ENCODING 13388
SWIDTH 1400 0
DWIDTH 14 0
BBX 11 13 2 -2
BITMAP
0060
6060
6060
6060
6060
6060
7FE0
0060
0060
0060
FFE0
0060
0060
ENDCHAR
STARTCHAR C032115
ENCODING 13389
SWIDTH 1400 0
DWIDTH 14 0
BBX 11 13 2 -2
BITMAP
0060
C060
C060
C060
FF60
0060
0060
FFE0
0060
6060
6000
6000
7FE0
ENDCHAR
STARTCHAR C032116
ENCODING 13390
SWIDTH 1400 0
DWIDTH 14 0
BBX 11 13 2 -2
BITMAP
0060
C060
C060
C060
FF60
0060
FFE0
0060
7FE0
0060
7FE0
6000
7FE0
ENDCHAR
STARTCHAR C032117
ENCODING 13391
SWIDTH 1400 0
DWIDTH 14 0
BBX 11 13 2 -2
BITMAP
0060
C060
C060
C060
C060
C060
C060
C060
C060
FFE0
0060
0060
0060
ENDCHAR
STARTCHAR C032120
ENCODING 13392
SWIDTH 1400 0
DWIDTH 14 0
BBX 11 13 2 -2
BITMAP
0060
C060
C060
C060
C060
FFE0
0060
0060
FFE0
0060
0060
0060
0060
ENDCHAR
STARTCHAR C032121
ENCODING 13393
SWIDTH 1400 0
DWIDTH 14 0
BBX 11 13 2 -2
BITMAP
0060
C060
C060
C060
C060
C060
FFE0
0060
0060
6060
6000
6000
7FE0
ENDCHAR
STARTCHAR C032122
ENCODING 13394
SWIDTH 1400 0
DWIDTH 14 0
BBX 11 13 2 -2
BITMAP
0060
C060
C060
C060
C060
FFE0
0060
7FE0
0060
7FE0
6000
6000
7FE0
ENDCHAR
STARTCHAR C032123
ENCODING 13395
SWIDTH 1400 0
DWIDTH 14 0
BBX 11 13 2 -2
BITMAP
0060
C060
C060
C060
C060
FFE0
0060
0000
FBE0
1B60
FB60
C360
FBE0
ENDCHAR
STARTCHAR C032124
ENCODING 13396
SWIDTH 1400 0
DWIDTH 14 0
BBX 11 13 2 -2
BITMAP
0060
C060
C060
C060
C060
FFE0
0060
0000
7FE0
6060
6060
6060
7FE0
ENDCHAR
STARTCHAR C032125
ENCODING 13397
SWIDTH 1400 0
DWIDTH 14 0
BBX 11 13 2 -2
BITMAP
0060
C060
C060
C060
C060
FFE0
0060
6060
6060
7FE0
6060
6060
7FE0
ENDCHAR
STARTCHAR C032126
ENCODING 13398
SWIDTH 1400 0
DWIDTH 14 0
BBX 11 13 2 -2
BITMAP
0060
C060
C060
C060
C060
C060
FFE0
0060
0060
0660
0F00
39C0
6060
ENDCHAR
STARTCHAR C032127
ENCODING 13399
SWIDTH 1400 0
DWIDTH 14 0
BBX 11 13 2 -2
BITMAP
0060
C060
C060
C060
C060
FFE0
F060
0060
1F80
70E0
6060
70E0
1F80
ENDCHAR
STARTCHAR C032130
ENCODING 13400
SWIDTH 1400 0
DWIDTH 14 0
BBX 11 13 2 -2
BITMAP
0060
C060
C060
C060
C060
FFE0
0060
0000
FFE0
3180
3180
3180
FFE0
ENDCHAR
STARTCHAR C032131
ENCODING 13401
SWIDTH 1400 0
DWIDTH 14 0
BBX 13 13 1 -2
BITMAP
0060
FE60
C060
C060
C060
C078
C060
C060
C060
FFE0
0060
0060
0060
ENDCHAR
STARTCHAR C032132
ENCODING 13402
SWIDTH 1400 0
DWIDTH 14 0
BBX 13 13 1 -2
BITMAP
0060
FF60
C060
C078
C060
C7E0
FC60
0000
7FE0
0060
0060
0060
0060
ENDCHAR
STARTCHAR C032133
ENCODING 13403
SWIDTH 1400 0
DWIDTH 14 0
BBX 13 13 1 -2
BITMAP
0060
FF60
C060
C078
C060
FFE0
0060
0000
FFE0
0C60
0C60
0C60
0C60
ENDCHAR
STARTCHAR C032134
ENCODING 13404
SWIDTH 1400 0
DWIDTH 14 0
BBX 13 13 1 -2
BITMAP
0060
FF60
C060
C078
C060
C060
FFE0
0060
0060
6000
6000
6000
7FE0
ENDCHAR
STARTCHAR C032135
ENCODING 13405
SWIDTH 1400 0
DWIDTH 14 0
BBX 13 13 1 -2
BITMAP
0060
FF60
C060
C078
C060
C7E0
FC60
0000
7FE0
6000
6000
6000
7FE0
ENDCHAR
STARTCHAR C032136
ENCODING 13406
SWIDTH 1400 0
DWIDTH 14 0
BBX 13 13 1 -2
BITMAP
0060
FF60
C060
C078
C060
FFE0
0060
7FE0
0060
7FE0
6000
6000
7FE0
ENDCHAR
STARTCHAR C032137
ENCODING 13407
SWIDTH 1400 0
DWIDTH 14 0
BBX 13 13 1 -2
BITMAP
0060
FF60
C060
C078
C060
FFE0
0060
0000
FFE0
1860
F860
C060
FC60
ENDCHAR
STARTCHAR C032140
ENCODING 13408
SWIDTH 1400 0
DWIDTH 14 0
BBX 13 13 1 -2
BITMAP
0060
FF60
C060
C078
C060
FFE0
0060
0000
FBE0
1B60
FB60
C360
FFE0
ENDCHAR
STARTCHAR C032141
ENCODING 13409
SWIDTH 1400 0
DWIDTH 14 0
BBX 13 13 1 -2
BITMAP
0060
FF60
C060
C078
C060
FFE0
0060
0000
FB60
1BE0
FB60
C360
FFE0
ENDCHAR
STARTCHAR C032142
ENCODING 13410
SWIDTH 1400 0
DWIDTH 14 0
BBX 13 13 1 -2
BITMAP
0060
FF60
C060
C078
C060
FFE0
0060
03C0
F800
1FF0
FBE0
C660
FFE0
ENDCHAR
STARTCHAR C032143
ENCODING 13411
SWIDTH 1400 0
DWIDTH 14 0
BBX 13 13 1 -2
BITMAP
0060
FF60
C060
C078
C060
C7E0
FC60
0000
7FE0
6060
6060
6060
7FE0
ENDCHAR
STARTCHAR C032144
ENCODING 13412
SWIDTH 1400 0
DWIDTH 14 0
BBX 13 13 1 -2
BITMAP
0060
FF60
C060
C078
C060
FFE0
0060
6060
6060
7FE0
6060
6060
7FE0
ENDCHAR
STARTCHAR C032145
ENCODING 13413
SWIDTH 1400 0
DWIDTH 14 0
BBX 13 13 1 -2
BITMAP
0060
FF60
C060
C078
C060
C060
FFE0
0060
0060
0700
0D80
18C0
7070
ENDCHAR
STARTCHAR C032146
ENCODING 13414
SWIDTH 1400 0
DWIDTH 14 0
BBX 13 12 1 -1
BITMAP
0060
FF60
C060
C078
C060
FFE0
0060
0000
30C0
30C0
79E0
CF30
ENDCHAR
STARTCHAR C032147
ENCODING 13415
SWIDTH 1400 0
DWIDTH 14 0
BBX 13 13 1 -2
BITMAP
0060
FF60
C060
C078
C060
C7E0
FC60
0060
1F80
70E0
6060
70E0
1F80
ENDCHAR
STARTCHAR C032150
ENCODING 13416
SWIDTH 1400 0
DWIDTH 14 0
BBX 13 13 1 -2
BITMAP
0060
FF60
C060
C078
C060
FFE0
0060
0000
FFE0
0600
0F00
39C0
6060
ENDCHAR
STARTCHAR C032151
ENCODING 13417
SWIDTH 1400 0
DWIDTH 14 0
BBX 13 13 1 -2
BITMAP
0060
FF60
C060
C078
C060
FFE0
0060
1F80
0000
7FE0
0600
1F80
70F0
ENDCHAR
STARTCHAR C032152
ENCODING 13418
SWIDTH 1400 0
DWIDTH 14 0
BBX 13 13 1 -2
BITMAP
0060
FF60
C060
C078
C060
FFE0
0060
1F80
0000
FFF0
3FC0
6060
3FC0
ENDCHAR
STARTCHAR C032153
ENCODING 13419
SWIDTH 1400 0
DWIDTH 14 0
BBX 11 13 2 -2
BITMAP
0360
FF60
C360
C360
C360
C3E0
C360
C360
C360
C360
FF60
0360
0360
ENDCHAR
STARTCHAR C032154
ENCODING 13420
SWIDTH 1400 0
DWIDTH 14 0
BBX 11 13 2 -2
BITMAP
0360
FF60
C360
C3E0
C360
C360
FF60
0360
FFE0
0060
0060
0060
0060
ENDCHAR
STARTCHAR C032155
ENCODING 13421
SWIDTH 1400 0
DWIDTH 14 0
BBX 11 13 2 -2
BITMAP
0360
FF60
C360
C3E0
C360
C360
C360
FF60
0360
6360
6000
6000
7FE0
ENDCHAR
STARTCHAR C032156
ENCODING 13422
SWIDTH 1400 0
DWIDTH 14 0
BBX 11 13 2 -2
BITMAP
0360
FF60
C360
C3E0
C360
FF60
0360
7FE0
0060
7FE0
6000
6000
7FE0
ENDCHAR
STARTCHAR C032157
ENCODING 13423
SWIDTH 1400 0
DWIDTH 14 0
BBX 11 13 2 -2
BITMAP
0360
FF60
C360
C3E0
C360
C360
FF60
0360
7FE0
6060
6060
6060
7FE0
ENDCHAR
STARTCHAR C032160
ENCODING 13424
SWIDTH 1400 0
DWIDTH 14 0
BBX 11 13 2 -2
BITMAP
0360
FF60
C360
C3E0
C360
C360
FF60
6360
6060
7FE0
6060
6060
7FE0
ENDCHAR
STARTCHAR C032161
ENCODING 13425
SWIDTH 1400 0
DWIDTH 14 0
BBX 11 13 2 -2
BITMAP
0360
FF60
C360
C3E0
C360
C360
FF60
0360
0000
0600
0F00
39C0
E060
ENDCHAR
STARTCHAR C032162
ENCODING 13426
SWIDTH 1400 0
DWIDTH 14 0
BBX 12 13 1 -2
BITMAP
01B0
7FB0
61B0
61F0
61B0
61B0
7FB0
01B0
18C0
38E0
38E0
6DB0
8610
ENDCHAR
STARTCHAR C032163
ENCODING 13427
SWIDTH 1400 0
DWIDTH 14 0
BBX 11 13 2 -2
BITMAP
0360
FF60
C360
C3E0
C360
C360
FF60
0360
3F80
E0E0
C060
E0E0
3F80
ENDCHAR
STARTCHAR C032164
ENCODING 13428
SWIDTH 1400 0
DWIDTH 14 0
BBX 13 14 1 -3
BITMAP
0060
FE60
C060
C060
C078
C060
C060
C078
C060
C060
FFE0
0060
0060
0060
ENDCHAR
STARTCHAR C032165
ENCODING 13429
SWIDTH 1400 0
DWIDTH 14 0
BBX 11 13 2 -2
BITMAP
0060
FE60
C060
C060
C060
C7E0
C060
C060
C060
C360
FE60
0060
0060
ENDCHAR
STARTCHAR C032166
ENCODING 13430
SWIDTH 1400 0
DWIDTH 14 0
BBX 11 13 2 -2
BITMAP
0060
FE60
C060
C7E0
C060
C060
FF60
0060
FFE0
0060
0060
0060
0060
ENDCHAR
STARTCHAR C032167
ENCODING 13431
SWIDTH 1400 0
DWIDTH 14 0
BBX 11 13 2 -2
BITMAP
0060
FE60
C060
C7E0
C060
C060
FF60
0000
FFE0
0C60
0C60
0C60
0C60
ENDCHAR
STARTCHAR C032170
ENCODING 13432
SWIDTH 1400 0
DWIDTH 14 0
BBX 11 13 2 -2
BITMAP
0060
FE60
C060
C7E0
C060
C060
C060
7E60
0060
6060
6000
6000
7FE0
ENDCHAR
ENDFONT
